<svg width="16" height="16" viewBox="0 0 16 16" fill="none" xmlns="http://www.w3.org/2000/svg">
<mask id="mask0_180_2697" style="mask-type:alpha" maskUnits="userSpaceOnUse" x="0" y="0" width="16" height="16">
<rect width="16" height="16" fill="#D9D9D9"/>
</mask>
<g mask="url(#mask0_180_2697)">
<path d="M7.53332 12.8666C7.4111 12.7444 7.34721 12.5888 7.34166 12.4C7.3361 12.2111 7.39443 12.0555 7.51666 11.9333L10.7833 8.66662H3.33332C3.14443 8.66662 2.9861 8.60273 2.85832 8.47495C2.73055 8.34717 2.66666 8.18884 2.66666 7.99995C2.66666 7.81106 2.73055 7.65273 2.85832 7.52495C2.9861 7.39717 3.14443 7.33328 3.33332 7.33328H10.7833L7.51666 4.06662C7.39443 3.9444 7.3361 3.78884 7.34166 3.59995C7.34721 3.41106 7.4111 3.25551 7.53332 3.13328C7.65555 3.01106 7.8111 2.94995 7.99999 2.94995C8.18888 2.94995 8.34443 3.01106 8.46666 3.13328L12.8667 7.53328C12.9333 7.58884 12.9805 7.65828 13.0083 7.74162C13.0361 7.82495 13.05 7.91106 13.05 7.99995C13.05 8.08884 13.0361 8.17217 13.0083 8.24995C12.9805 8.32773 12.9333 8.39995 12.8667 8.46662L8.46666 12.8666C8.34443 12.9888 8.18888 13.05 7.99999 13.05C7.8111 13.05 7.65555 12.9888 7.53332 12.8666Z" fill="black"/>
</g>
</svg>
