
<svg>
<symbol id="planicon" xmlns="http://www.w3.org/2000/svg"  viewBox="0 0 111 111" fill="none">
  <path d="M48.451 5.7598L48.4436 5.72499C48.5605 5.69951 48.4095 5.56487 48.3887 5.46741L48.2218 5.19052C48.1146 5.00675 47.982 4.83941 47.828 4.69353C47.455 4.35151 46.9891 4.13068 46.4907 4.05968C46.2937 4.02513 46.0945 4.00521 45.8947 4.00007C45.729 3.99974 45.5717 4.00487 45.409 4.01845C45.1008 4.03751 44.7941 4.07752 44.4912 4.13822L42.0414 4.67181C40.9541 4.90863 39.8668 5.14546 38.8081 5.4489C36.6744 5.97919 34.5845 6.58007 32.5542 7.18985C28.4949 8.41637 24.7022 9.74509 21.3499 10.9779C14.6787 13.4653 9.67532 15.5677 7.94008 16.3463C7.28452 16.6493 6.8388 16.8557 6.399 17.0898C6.0471 17.2877 5.77547 17.6048 5.63191 17.9854C5.63409 18.0091 5.63907 18.0325 5.64673 18.055C5.58488 18.0854 5.52777 18.1249 5.47722 18.1721C5.35885 18.2925 5.27394 18.4349 5.46997 18.8147C5.97731 19.8114 12.1057 26.0744 13.1258 26.537C13.4927 26.7047 13.6657 26.6379 13.8347 26.4846C14.7123 26.1401 15.5507 25.701 16.3354 25.175C17.1633 24.6669 18.645 23.5429 20.6116 22.0583C23.082 20.2816 25.655 18.6557 28.3169 17.1893L45.3953 7.74385L45.2534 7.8549C44.4536 8.49531 42.9277 9.71637 40.766 11.2653C38.6042 12.8143 35.8027 14.7066 32.6712 16.9767C29.5396 19.2468 26.0972 21.8833 22.569 24.7934L19.9035 27.0203L18.5639 28.1352C18.0145 28.5733 17.5648 29.1259 17.2454 29.7555C17.0672 30.1525 16.9963 30.5903 17.0401 31.024C17.0577 31.1752 17.0895 31.3244 17.1349 31.4696C17.1114 31.5621 17.0947 31.6532 17.0742 31.7596C16.971 32.3576 16.8438 34.0607 16.697 36.3145C16.6317 37.4287 16.5602 38.6827 16.4882 40.0023L16.4623 40.2192L16.3318 39.9781C16.2056 39.6962 16.1026 39.4044 16.0237 39.1055C14.436 33.7766 13.5375 28.2685 13.1976 27.1114C12.9313 26.2661 12.7533 26.1738 12.5424 26.1979C12.3315 26.2219 12.2308 26.324 12.2223 27.2656C12.5609 31.4427 13.3452 35.5705 14.5615 39.5769C14.668 39.956 14.8045 40.3258 14.9696 40.6827C14.9904 40.7801 15.0677 40.8726 15.1243 40.9695L15.2415 41.148C15.2431 41.1742 15.2486 41.2 15.2578 41.2245C15.0169 41.277 14.7427 41.4096 14.3805 41.5686C13.405 42.0189 12.4973 42.6065 11.6845 43.314C11.0187 43.8871 10.4329 44.5489 9.94307 45.2814C9.35379 46.1839 8.95229 47.1983 8.76303 48.2628C8.6977 48.6558 8.66192 49.0532 8.656 49.4517C8.35315 49.688 8.06323 49.9409 7.7875 50.209C6.04749 51.9752 4.84832 54.2118 4.33397 56.6505C3.92199 58.5276 3.89189 60.4698 4.24551 62.359C4.44174 63.4298 4.78148 64.4685 5.25533 65.4463C5.47889 65.8201 5.65122 66.0885 5.80534 66.339C5.93456 66.5043 6.07378 66.6613 6.22221 66.8091C6.43922 67.0168 6.55673 67.0277 6.64567 66.9719C6.7346 66.9161 6.75123 66.825 6.68508 66.5481C6.63117 66.3543 6.5643 66.1644 6.48494 65.9798C6.4316 65.7291 6.30003 65.4154 6.15217 65.0251C5.83349 64.0792 5.59764 63.1068 5.44734 62.1191C5.21186 60.3989 5.30128 58.649 5.71085 56.9625C6.21476 54.8132 7.30695 52.851 8.86228 51.3007C8.90969 51.5235 8.9571 51.7463 9.06549 51.9849C9.309 52.6245 9.6615 53.2159 10.107 53.7322C10.5868 54.3104 11.2172 54.7409 11.9267 54.9749C12.6733 55.2029 13.4699 55.2018 14.2158 54.9717C14.9887 54.7359 15.6644 54.2511 16.1398 53.591C16.6166 52.8985 16.8308 52.0553 16.7432 51.216C16.6727 50.3805 16.3251 49.5936 15.7568 48.9832C15.1714 48.3835 14.3963 48.0109 13.567 47.9304C12.824 47.85 12.0727 47.9147 11.3538 48.121C10.9409 48.2351 10.5396 48.3884 10.1552 48.5788L10.1433 48.5231C10.4396 46.88 11.2727 45.3852 12.509 44.2782C13.2325 43.6101 14.0166 43.0125 14.8509 42.4933C15.2818 42.2173 15.5771 42.0146 15.7957 41.8577C15.8844 41.9285 15.9776 41.9934 16.0747 42.0519C16.2989 42.1958 16.5667 42.2537 16.8295 42.2153C17.0857 42.163 17.3118 42.0118 17.4599 41.7939C17.5495 41.6468 17.625 41.4913 17.6851 41.3296C18.1164 40.988 18.9778 40.0282 19.8658 39.0918C20.4503 38.4545 21.0377 37.8313 21.4738 37.3429C21.6741 37.5397 21.8744 37.7364 22.0899 37.9372C22.5934 38.4299 23.1896 38.8153 23.8432 39.0705C24.6045 39.3312 25.4369 39.2756 26.1577 38.916C26.7727 38.5836 27.3226 38.1405 27.7803 37.6083C29.3867 35.7505 30.8398 33.9844 32.3209 32.2486C35.2379 28.6994 37.9544 25.325 40.2646 22.2067C42.5748 19.0884 44.4929 16.2594 45.9136 13.9686C46.6258 12.8154 47.2257 11.8106 47.7008 10.9641C48.1041 10.3081 48.4512 9.61838 48.7381 8.90246C48.994 8.26035 49.0643 7.55789 48.9407 6.87693C48.8817 6.46619 48.7123 6.07974 48.451 5.7598ZM11.7574 49.5775C12.8328 49.285 14.0561 49.3828 14.6457 50.0556C14.9623 50.4124 15.1537 50.8648 15.1903 51.3428C15.2269 51.8208 15.1068 52.2976 14.8484 52.6995C14.554 53.0737 14.1549 53.3494 13.7033 53.4906C13.2517 53.6319 12.7684 53.6321 12.3167 53.4913C11.8672 53.3002 11.4629 53.0148 11.1305 52.654C10.798 52.2932 10.5449 51.8652 10.3879 51.3982C10.2691 51.0417 10.1906 50.6727 10.1538 50.2983C10.652 49.9825 11.1919 49.7398 11.7574 49.5775ZM43.4699 7.01955L37.819 10.1735C34.1337 12.2437 30.637 14.1854 27.5331 15.976C24.8428 17.502 22.2568 19.2091 19.7926 21.0857C17.8271 22.6429 16.4437 23.7892 15.6925 24.3535L13.7711 25.8137C13.2751 24.8363 7.32044 18.7467 6.17236 18.1226C6.33401 17.9787 6.51924 17.8644 6.71972 17.7849L8.33425 17.2511C10.1424 16.646 15.1671 14.6775 21.8727 12.2845C25.2202 11.0965 29.0011 9.81401 33.0304 8.61588C35.0653 8.02698 37.1031 7.45202 39.2314 6.93018C40.2891 6.65609 41.3558 6.42376 42.4248 6.16905L44.8334 5.64445C45.0655 5.60069 45.3004 5.57387 45.5363 5.56419C45.6483 5.55393 45.7608 5.55133 45.8731 5.5564L46.0418 5.57066L43.4699 7.01955ZM20.5333 36.273L20.5879 36.3266L20.5265 36.3764C20.5331 36.3424 20.5354 36.3076 20.5333 36.273ZM47.8312 8.53181C47.5012 9.17294 47.136 9.79485 46.7371 10.3946C46.2384 11.2317 45.6046 12.1783 44.8711 13.2996C43.4028 15.5353 41.4629 18.2961 39.134 21.3603C36.8051 24.4244 34.0787 27.7864 31.1651 31.2838L28.9396 33.9539L27.7855 35.298C27.3985 35.7465 27.0184 36.1935 26.6255 36.6142C26.296 36.9898 25.9008 37.3006 25.4597 37.531C25.28 37.6184 25.0843 37.6671 24.8851 37.6742C24.6858 37.6812 24.4872 37.6464 24.3019 37.5719C23.5175 37.2693 22.6518 36.3142 21.8501 35.4908C21.0509 34.639 20.3038 33.7386 19.613 32.7947C19.2916 32.3329 18.9071 31.812 18.683 31.4019C18.5797 31.2557 18.5177 31.0838 18.5037 30.9046C18.4897 30.7254 18.5241 30.5457 18.6034 30.3849C18.9439 29.6842 20.0415 28.9207 20.8795 28.1554L23.5175 25.9345C27.0113 23.0319 30.4079 20.3835 33.4923 18.0945C36.5766 15.8055 39.3545 13.9038 41.4857 12.245C43.0142 11.1055 44.4827 9.886 45.8853 8.5914C46.6738 7.87573 47.3902 7.08282 48.0242 6.22427C48.1535 6.60113 48.2032 7.00127 48.1699 7.39878C48.1367 7.79628 48.0213 8.18229 47.8312 8.53181Z" fill="#F4A64E"/>
  <path d="M7.37159 13.6072C8.4868 13.565 9.5861 13.3256 10.6197 12.8998C12.0302 12.3886 13.3589 11.6621 13.5503 11.3436C13.6104 11.2545 13.6432 11.1495 13.6446 11.0416C13.646 10.9338 13.6159 10.8279 13.5581 10.7373C13.5205 10.649 13.4574 10.5742 13.3771 10.5228C13.2968 10.4714 13.203 10.4458 13.108 10.4492C12.0702 10.704 11.0535 11.0399 10.0672 11.4539C9.04466 11.7486 8.05667 12.1543 7.12044 12.664C7.04729 12.7383 6.99742 12.8329 6.97706 12.9358C6.95669 13.0387 6.96674 13.1454 7.00595 13.2425C7.01992 13.3351 7.06306 13.4205 7.12894 13.4863C7.19483 13.552 7.27993 13.5944 7.37159 13.6072Z" fill="#F4A64E"/>
  <path d="M17.6551 9.82309C18.1291 9.83586 18.601 9.75533 19.0447 9.58597C19.6276 9.4153 20.212 9.25159 20.318 9.03911C20.3847 8.86408 20.4015 8.67368 20.3667 8.48946C20.3606 8.32336 20.291 8.16613 20.1725 8.05096C19.6479 7.88637 19.0836 7.90655 18.5718 8.10822C17.8925 8.29988 17.2562 8.69344 17.2073 8.9372C17.1827 9.12387 17.2231 9.31336 17.3214 9.47326C17.3886 9.62585 17.5067 9.74968 17.6551 9.82309Z" fill="#F4A64E"/>
  <path d="M45.1264 20.6233C44.3453 21.0418 43.6543 21.6132 43.0936 22.3044C42.4495 22.9168 41.9498 23.668 41.6316 24.5023C41.6374 24.6023 41.6678 24.6994 41.7199 24.7847C41.7719 24.87 41.8441 24.9408 41.93 24.9909C41.9949 25.0519 42.0746 25.0943 42.161 25.1139C42.2474 25.1335 42.3374 25.1295 42.4217 25.1023C43.1003 24.5892 43.7135 23.9932 44.2475 23.3279C44.8639 22.7481 45.3912 22.0783 45.8119 21.3408C45.8207 21.2411 45.8065 21.1406 45.7704 21.0474C45.7343 20.9541 45.6773 20.8706 45.604 20.8034C45.5481 20.7322 45.4742 20.6777 45.39 20.646C45.3058 20.6143 45.2147 20.6064 45.1264 20.6233Z" fill="#F4A64E"/>
</symbol>
<!---->
<symbol id="ringicon" xmlns="http://www.w3.org/2000/svg" width="54" height="37" viewBox="0 0 54 37" fill="none">
  <g clip-path="url(#clip0_216_17)">
    <path d="M6.06064 32.0466L6.04935 32.0187C5.96144 31.7478 5.92037 31.4636 5.92784 31.178C5.97426 30.0259 6.1685 28.8821 6.50593 27.774L6.72358 26.9194C6.76467 26.7503 6.81685 26.5837 6.87982 26.421C6.97002 26.1853 7.10861 25.9699 7.28683 25.7885C7.4909 25.6055 7.75347 25.4993 8.02738 25.4888C8.15974 25.4878 8.29136 25.5044 8.41868 25.5383C8.53919 25.574 8.70056 25.6451 8.74034 25.6615C8.98966 25.7779 9.23235 25.9074 9.46742 26.0493C9.71553 26.2012 9.9523 26.3702 10.176 26.555C11.0157 25.7459 11.9474 25.0353 12.952 24.4376C15.0196 23.1793 17.2999 22.3049 19.678 21.8584C20.727 21.6567 21.7902 21.5437 22.8561 21.5205C22.8305 21.3425 22.814 21.1543 22.8054 20.9694C22.7634 20.1773 22.9488 19.3864 23.3403 18.6872C23.7503 18.0133 24.3078 17.4368 24.9715 17.0007C25.6103 16.5767 26.3024 16.2375 27.0296 15.9924C27.2688 15.8955 27.5319 15.8411 27.7847 15.7777C27.6877 15.2997 27.6502 14.811 27.673 14.3224C27.7258 13.4852 27.9916 12.6716 28.4459 11.9568C28.8958 11.2772 29.4705 10.6854 30.1399 10.2124C31.4142 9.3423 32.863 8.75595 34.3838 8.49484C35.109 8.35553 35.8438 8.27541 36.5807 8.2553C36.7445 6.75404 37.459 5.35589 38.5895 4.32425C39.8 3.30368 41.3401 2.74734 42.9217 2.75928C43.9091 2.75241 44.8854 2.93789 45.7945 3.30505C46.5142 3.59537 47.1919 3.97604 47.8108 4.43774C48.1598 4.69585 48.4849 4.98378 48.7823 5.29827C49.1861 5.73897 49.2061 5.88677 49.1456 5.95023C49.0851 6.01369 48.9805 5.98457 48.5081 5.6691C48.2662 5.51366 47.9346 5.28409 47.4484 5.00016C46.8147 4.61988 46.1384 4.31176 45.4326 4.08163C44.609 3.80912 43.7398 3.68762 42.8676 3.72309C41.537 3.75729 40.2564 4.26174 39.2596 5.14437C38.396 5.99056 37.8523 7.10124 37.7207 8.28758C38.0837 8.31609 38.4454 8.35806 38.8002 8.41582C40.2422 8.65778 41.5972 9.24451 42.7471 10.1249C43.3073 10.5582 43.8045 11.0649 44.2252 11.6313C44.4314 11.915 44.6146 12.2144 44.7733 12.5268C44.9765 12.8792 45.1032 13.2702 45.1453 13.6754C45.1677 13.9229 45.1355 14.173 45.0509 14.4086C44.9498 14.6928 44.753 14.9353 44.4936 15.0954C44.2743 15.2235 44.0288 15.3006 43.776 15.3209C43.5973 15.3365 43.4179 15.3419 43.2389 15.3369C42.5674 15.3329 41.9015 15.2326 41.2621 15.0391C40.045 14.6765 38.9543 13.996 38.1046 13.0691C37.3064 12.1924 36.7888 11.1015 36.6154 9.93016C36.601 9.81258 36.6002 9.69596 36.5937 9.58166C35.9083 9.59721 35.2248 9.67382 34.5516 9.81054C33.2233 10.0331 31.9581 10.5451 30.8489 11.3091C30.3219 11.6819 29.8751 12.1543 29.535 12.6983C29.209 13.2317 29.0247 13.836 28.9994 14.4546C28.9888 14.8249 29.0248 15.1943 29.1064 15.5546C31.5229 15.3261 33.9254 16 35.8372 17.4425C36.1483 17.6882 36.4436 17.9527 36.7213 18.2345C37.023 18.5275 37.284 18.8586 37.4978 19.2194C37.7402 19.6043 37.8988 20.0354 37.9639 20.4859C38.048 21.015 37.9167 21.5584 37.5984 21.9985C37.2802 22.4385 36.8006 22.7398 36.2636 22.837C35.8106 22.9256 35.3455 22.9238 34.8958 22.8319C34.478 22.7595 34.0725 22.6332 33.6896 22.4561C33.3271 22.3014 32.9746 22.1252 32.6341 21.9284C31.2672 21.1484 30.0842 20.0941 29.1603 18.8327C28.7584 18.276 28.422 17.6756 28.1575 17.0429C27.8854 17.1024 27.6166 17.1765 27.3523 17.2649C26.1651 17.6039 25.1308 18.3421 24.4307 19.3502C24.0843 20.0418 23.9941 20.8279 24.1759 21.571C24.6167 21.6151 25.0536 21.6878 25.4839 21.7887C26.6219 22.0529 27.6717 22.5923 28.539 23.3584C29.0128 23.7802 29.4112 24.2775 29.718 24.83C29.877 25.124 30.0027 25.4347 30.093 25.7566C30.1509 25.9591 30.1714 26.1708 30.1537 26.3816C30.1298 26.6365 30.0332 26.8806 29.875 27.0855C29.7135 27.2913 29.4969 27.4488 29.2501 27.5398C29.0392 27.6118 28.8176 27.6465 28.5955 27.6423C28.2169 27.6457 27.8423 27.5767 27.4923 27.4392C26.8669 27.1667 26.28 26.8172 25.7454 26.3988C24.6587 25.5338 23.8142 24.4102 23.2894 23.1315C23.2284 22.9808 23.1674 22.8301 23.1064 22.6794C21.9878 22.6658 20.869 22.7597 19.7658 22.9596C17.5003 23.3686 15.3139 24.1437 13.2955 25.2535C12.3449 25.7695 11.4238 26.3375 10.5366 26.9547C10.6872 27.103 10.8221 27.266 10.9391 27.4414L11.6931 27.9612L12.3869 28.4469C12.5416 28.5527 12.6884 28.6691 12.8262 28.7953C13.0368 28.9909 13.1711 29.2533 13.2063 29.5379C13.2257 29.7944 13.1567 30.0511 13.0107 30.2667C12.8726 30.4659 12.696 30.6367 12.4914 30.7691C12.3306 30.8797 12.1927 30.9485 12.0765 31.0215L11.6946 31.241L10.1364 32.125L8.56457 33.008C8.22239 33.2192 7.83399 33.3452 7.43351 33.3748C7.30877 33.3804 7.18408 33.3697 7.06265 33.343C6.92498 33.3151 6.7922 33.2682 6.6682 33.2039C6.46814 33.1018 6.30149 32.9467 6.18676 32.7558C6.07203 32.5648 6.01373 32.3455 6.01831 32.1222L6.06064 32.0466ZM39.0536 12.3017C39.7681 13.0608 40.6789 13.6142 41.6911 13.9041C42.22 14.052 42.7691 14.123 43.3211 14.1149C43.4997 14.1348 43.6813 14.1104 43.8493 14.044C43.8493 14.044 43.8778 14.0325 43.8916 13.9684C43.9067 13.8905 43.9081 13.8108 43.8957 13.7329C43.7559 13.2175 43.5077 12.7382 43.1671 12.3258C42.8055 11.8564 42.3799 11.4386 41.9021 11.0839C40.695 10.1993 39.249 9.68136 37.7384 9.59258C37.7409 9.65753 37.7472 9.72223 37.7572 9.78636C37.9276 10.7356 38.3784 11.6104 39.0536 12.3017ZM30.329 18.0674C31.152 19.174 32.2026 20.0961 33.4136 20.7749C33.7204 20.9431 34.0283 21.0978 34.3488 21.2344C34.6378 21.3666 34.9435 21.4612 35.2583 21.5159C35.5341 21.569 35.8191 21.5643 36.0947 21.5022C36.1928 21.4807 36.286 21.4404 36.3688 21.3834C36.4516 21.3265 36.5223 21.2542 36.577 21.1706C36.6683 20.9427 36.6954 20.6954 36.6554 20.4553C36.6155 20.2152 36.5099 19.9913 36.3501 19.8073C36.1816 19.5387 35.9777 19.2937 35.7435 19.0784C35.5114 18.8415 35.2626 18.621 34.999 18.4184C33.4412 17.2765 31.5199 16.7124 29.5669 16.8233C29.779 17.262 30.0342 17.6786 30.329 18.0674ZM26.6257 25.4125C27.0567 25.7601 27.5329 26.05 28.042 26.2748C28.2425 26.3577 28.4581 26.4006 28.6766 26.4013C28.8758 26.3856 28.9237 26.3402 28.9273 26.2998C28.9308 26.2594 28.9721 26.1648 28.9135 25.9546C28.8458 25.7228 28.755 25.4985 28.6424 25.2848C28.3992 24.8552 28.086 24.4686 27.7151 24.1401C26.9799 23.5044 26.0976 23.0549 25.1428 22.8296C24.9575 22.7812 24.7709 22.7463 24.5867 22.7169C25.0324 23.7702 25.7329 24.6973 26.6279 25.4181L26.6257 25.4125ZM8.59636 26.9929L8.64763 26.9722L8.47034 26.8945C8.51659 26.9248 8.55957 26.9596 8.59862 26.9985L8.59636 26.9929ZM7.54174 31.824L7.58721 31.838L7.51227 31.7839C7.46144 31.7723 7.41303 31.7524 7.36906 31.725L7.35974 31.8002L7.54174 31.824Z" fill="#FCC85A"/>
  </g>
  <defs>
    <clipPath id="clip0_216_17">
      <rect width="49.9066" height="18.2991" fill="white" transform="matrix(-0.92696 0.37516 0.37516 0.92696 47.059 0.565186)"/>
    </clipPath>
  </defs>
</symbol>
<!---->
<symbol id="staricon" xmlns="http://www.w3.org/2000/svg"  viewBox="0 0 110 110" fill="none">
  <path d="M76.3195 63.0299C76.1654 62.6418 75.9654 62.2733 75.7238 61.932C75.2625 61.3071 74.7267 60.74 74.1281 60.2429C73.0304 59.2993 71.8797 58.4181 70.6816 57.6036C69.5055 56.7953 68.2863 56.0506 67.0294 55.3726C66.4053 55.0442 65.7741 54.7275 65.1359 54.4225C64.8168 54.2747 64.4976 54.1199 64.1785 53.9861L63.5899 53.7328H63.5119L64.7104 53.029L68.157 51.0583L71.5184 49.137C71.8373 48.9613 72.1388 48.7563 72.419 48.5247C72.7594 48.2477 73.023 47.8893 73.1849 47.4831C73.2781 47.2337 73.3105 46.9661 73.2797 46.7019C73.2489 46.4377 73.1557 46.1845 73.0077 45.9629C72.74 45.5829 72.3537 45.301 71.9085 45.1605C71.5624 45.0414 71.2026 44.9658 70.8376 44.9353L69.8873 44.872C69.2703 44.872 68.6605 44.8227 68.0506 44.8157C66.8308 44.8157 65.6394 44.8157 64.5047 44.9142C63.3701 45.0128 62.1999 45.1113 61.0936 45.2661C60.5334 45.3506 59.9873 45.435 59.4484 45.5336L58.647 45.6814H58.5406L58.2144 44.14L57.7393 42.0287C57.4131 40.6492 57.075 39.3402 56.7252 38.1015C56.3777 36.8558 56.016 35.6875 55.6685 34.5825C55.5154 33.9818 55.2766 33.4059 54.9593 32.8723C54.7449 32.5472 54.4366 32.294 54.0746 32.1458C53.7127 31.9976 53.3141 31.9613 52.9311 32.0418C52.5485 32.1551 52.2222 32.4061 52.0163 32.7456C51.861 32.9833 51.7349 33.2384 51.6404 33.5057L51.1511 34.7936C50.8462 35.6171 50.5838 36.3842 50.3639 37.088C49.9172 38.4956 49.6122 39.6146 49.4137 40.4451C48.9424 42.2945 48.6129 44.1767 48.4279 46.0755C48.3635 46.4387 48.3635 46.8102 48.4279 47.1734C48.0481 47.0377 47.6526 46.9502 47.2507 46.913C46.2153 46.7582 44.414 46.5752 41.2015 46.3359L38.1379 46.0966L36.0671 45.9136C35.6075 45.8395 35.1369 45.8708 34.6913 46.0051C34.4167 46.1076 34.1715 46.2755 33.9774 46.4939C33.7833 46.7123 33.6461 46.9746 33.5779 47.2579C33.4348 47.8104 33.49 48.3952 33.7339 48.9118C33.9802 49.399 34.3312 49.8267 34.7622 50.1645C35.1596 50.4886 35.5738 50.7916 36.0033 51.0724C36.4288 51.368 36.8614 51.6636 37.3152 51.9592C38.261 52.593 39.2463 53.1666 40.2654 53.6765C40.8134 53.9388 41.3744 54.1737 41.9461 54.3803L42.3929 54.5351L42.4922 54.5703L42.6624 54.6196L36.2089 59.6306C35.8563 59.8868 35.5177 60.1617 35.1948 60.454C34.7684 60.8221 34.4705 61.3149 34.3438 61.8616C34.2819 62.1939 34.3214 62.537 34.4573 62.8469C34.5829 63.1374 34.7776 63.3934 35.0246 63.5929C35.4789 63.9528 36.0392 64.1554 36.6203 64.1701C37.0949 64.1827 37.5696 64.1521 38.0386 64.0786L39.3931 63.8885C40.2938 63.7478 41.2086 63.5718 42.1234 63.3607C43.9899 62.9318 45.824 62.3745 47.6124 61.6927L47.974 61.5519C47.974 61.5519 48.0166 61.5097 48.0166 61.5519L48.1159 62.2557C48.2506 63.2059 48.3783 64.17 48.4775 65.1413C48.6903 67.0791 48.8369 69.0473 48.9172 71.0461C48.9172 72.0455 48.9811 73.0449 48.9882 74.0584C48.9882 74.5581 48.9882 75.0648 48.9882 75.5715V76.3668C48.9912 76.5495 49.015 76.7313 49.0591 76.9087C49.114 77.1538 49.234 77.3797 49.4066 77.5633C49.5365 77.7048 49.6955 77.817 49.8729 77.8923C50.0503 77.9676 50.242 78.0042 50.4348 77.9996C50.6268 77.9948 50.8164 77.9567 50.9951 77.887C51.13 77.8314 51.2604 77.7655 51.3851 77.6899C51.8055 77.4112 52.1609 77.0465 52.4276 76.6202C52.8673 75.9164 53.2999 75.2548 53.7112 74.551C54.5338 73.1434 55.3068 71.7358 56.016 70.2156C56.7252 68.6955 57.3634 67.2034 57.9378 65.648C58.2286 64.8738 58.4981 64.0856 58.7534 63.2973C58.881 62.9032 58.9945 62.5021 59.1151 62.1079L59.2711 61.573L60.7461 61.8968L62.8736 62.3824C64.292 62.7202 65.7103 63.0862 67.1287 63.4522C68.547 63.8182 69.9653 64.2193 71.3269 64.6345L73.4048 65.2609C73.8271 65.393 74.2669 65.4618 74.7097 65.465C74.9815 65.4602 75.2504 65.4078 75.5039 65.3102C75.8216 65.187 76.0904 64.9647 76.2698 64.6768C76.4384 64.397 76.5175 64.0731 76.4967 63.7478C76.4781 63.5004 76.4182 63.2578 76.3195 63.0299ZM75.0146 63.9519C75.0146 63.9519 75.0146 63.9519 74.9508 63.9941C74.8624 64.0273 74.7687 64.044 74.6742 64.0434C74.3898 64.0372 74.1079 63.9898 73.8374 63.9026L71.7453 63.2692C70.327 62.854 68.9087 62.4528 67.4903 62.0798C66.072 61.7068 64.6537 61.376 63.1999 60.9959L61.0724 60.5033L58.2357 59.891L57.718 61.7279C57.5974 62.115 57.484 62.5021 57.3563 62.8891C57.1152 63.6563 56.8528 64.4234 56.5692 65.1765C56.0089 66.6896 55.3919 68.1746 54.6969 69.6245C54.002 71.0743 53.2786 72.4819 52.456 73.8472C52.0588 74.551 51.6404 75.2056 51.2149 75.8671C51.0634 76.1197 50.8575 76.336 50.6121 76.5005L50.4774 76.5709C50.4695 76.5008 50.4695 76.4299 50.4774 76.3598V74.1076C50.4774 73.0801 50.4419 72.0596 50.3994 71.0461C50.3143 69.0192 50.1583 67.0134 49.9384 65.0498C49.8321 64.0645 49.7044 63.0862 49.5697 62.122L49.2293 59.9402V59.7643V59.6798C49.2293 59.6798 49.2293 59.6024 49.1938 59.6306L48.8676 59.7643L48.201 60.0388L47.201 60.4399C45.4797 61.1106 43.7116 61.6563 41.9106 62.0727C41.0242 62.2768 40.1448 62.4528 39.2725 62.5935C38.8329 62.6639 38.4003 62.7343 37.9606 62.7836C37.5648 62.8512 37.1637 62.8841 36.7621 62.8821C36.0529 62.8821 35.6487 62.4246 35.7267 62.1361C35.8027 61.8613 35.961 61.6159 36.1806 61.4323C36.4359 61.186 36.7905 60.9256 37.1096 60.6651L45.499 54.0636L43.6907 53.6202C43.3999 53.5498 43.0879 53.4653 42.8468 53.3809L42.4354 53.2401C41.8957 53.0343 41.3678 52.7994 40.854 52.5363C39.876 52.0522 38.9287 51.5092 38.0173 50.9105L36.7125 50.0519C36.3096 49.7941 35.9213 49.5145 35.5494 49.2144C35.2502 48.9799 35.0078 48.6816 34.8402 48.3417C34.7159 48.0627 34.6909 47.7499 34.7693 47.4549C34.7949 47.344 34.8498 47.2419 34.9283 47.159C35.0068 47.0761 35.1061 47.0155 35.2161 46.9834C35.5282 46.9157 35.85 46.9038 36.1664 46.9482L38.2939 47.0889C39.5704 47.1664 40.6129 47.2086 41.3859 47.2367C47.4705 47.4268 48.6123 47.4268 48.6336 47.2367C48.7116 47.2367 48.8109 47.1101 49.0307 46.2022C49.2505 45.2943 49.5909 43.5981 50.449 40.5718C50.6831 39.7695 51.0164 38.6716 51.4844 37.3132C51.7184 36.6094 51.9879 35.9056 52.3 35.0822C52.4631 34.681 52.6262 34.2658 52.8035 33.8365C52.9808 33.4072 53.1722 33.1327 53.3637 33.1327C53.5225 33.1264 53.6798 33.1655 53.8168 33.2454C53.9538 33.3252 54.0648 33.4425 54.1367 33.5831C54.3755 34.0279 54.5566 34.5008 54.6757 34.9907C55.009 36.0746 55.3494 37.2358 55.6756 38.4534C56.0018 39.6709 56.328 40.973 56.6401 42.3243C56.789 43.028 56.9379 43.7318 57.0939 44.4356C57.2712 45.3435 57.4485 46.2725 57.6329 47.2156L59.0087 46.9411L59.7888 46.8004C60.3135 46.7089 60.8454 46.6244 61.3844 46.5541C62.4623 46.4063 63.5686 46.2937 64.7033 46.2303C65.838 46.167 66.9939 46.1318 68.1711 46.1529C68.7597 46.1529 69.3554 46.1881 69.9511 46.2162L70.8376 46.2796C71.0911 46.3017 71.3411 46.3536 71.5822 46.4344C72.0503 46.6104 72.107 46.7933 72.0432 47.0186C71.794 47.4231 71.4285 47.7442 70.9936 47.9405L67.618 49.8478L64.1643 51.8114L61.895 53.0994L61.044 53.592L60.6114 53.8313C60.5452 53.8673 60.4812 53.9072 60.4199 53.9509L60.6469 54.0424L62.4269 54.7462L63.2566 55.0841L63.7317 55.2882L64.6537 55.7104C65.2635 56.006 65.8734 56.3087 66.4762 56.6324C68.9147 57.9539 71.2041 59.53 73.3055 61.3338C73.8121 61.7497 74.269 62.222 74.6671 62.7414C74.8397 62.9877 74.9848 63.252 75.0997 63.5296C75.0643 63.8041 75.043 63.9378 75.0146 63.9519Z" fill="#FCC85A"/>
</symbol>
<!---->
<symbol id="curveImage" xmlns="http://www.w3.org/2000/svg" width="2144" height="159" viewBox="0 0 1440 159" fill="none">
<path d="M232.148 46.8522C145.217 41.9166 41.4136 73.1701 -0.0378494 93.7038L-107 0H1547C1398.3 69.4098 1227.85 114.108 1046.1 149.231C853.05 186.539 551.072 106.667 445.203 82.4244C339.11 58.1307 339.11 52.925 232.148 46.8522Z" fill="#C472B3"/>
</symbol>
<!---->
<symbol id="flowericon" xmlns="http://www.w3.org/2000/svg" width="63" height="68" viewBox="0 0 63 68" fill="none">
  <g clip-path="url(#clip0_359_106)">
    <path d="M16.4788 24.1235C18.1626 23.8571 19.7849 24.7161 20.9463 25.8578C23.109 28.0784 24.451 30.9684 24.751 34.0516C25.0436 36.9521 24.5478 39.8771 23.316 42.5181C24.3196 41.9384 25.3012 41.3271 26.2804 40.6593C28.0692 39.4492 29.7529 38.0908 31.3137 36.5984C31.4129 36.5001 31.5414 36.4369 31.6799 36.4183C31.2809 35.6293 31.0694 34.7591 31.0618 33.8754C31.0542 32.9918 31.2507 32.1185 31.6361 31.3235C30.2974 31.7616 28.8634 31.8221 27.4919 31.4982C25.9283 31.055 24.5272 29.7949 24.2157 28.1677C23.8527 26.2712 25.3482 24.5442 26.7987 23.5314C28.1115 22.618 29.6629 22.1077 31.2625 22.0632C30.448 20.5923 29.6294 19.1282 28.8458 17.6441C28.1386 16.2981 27.5423 14.6946 28.2027 13.2102C28.5098 12.5335 29.0177 11.9678 29.6577 11.5898C30.2977 11.2118 31.0386 11.0399 31.7801 11.0972C33.4018 11.2417 34.8475 12.451 36.0676 13.4362C37.0851 14.2069 37.9365 15.175 38.5706 16.2824C39.3176 14.5914 40.3341 13.033 41.5804 11.6677C42.8318 10.3644 45.0017 9.2766 46.6067 10.6836C48.0715 11.9596 48.0545 14.5634 47.9281 16.3453C47.7994 18.1288 47.3132 19.8679 46.4983 21.4591C48.2265 21.6317 49.9949 21.49 51.6688 22.0004C53.4219 22.5315 55.1315 23.842 55.2577 25.8188C55.3565 27.5545 54.2428 29.1889 52.7652 30.0203C51.5446 30.6533 50.1719 30.9353 48.7998 30.835C49.7251 31.8359 50.4325 33.0178 50.877 34.3058C51.2069 35.1122 51.2128 36.0146 50.8933 36.8246C50.6925 37.2179 50.4106 37.5642 50.0662 37.8407C49.7218 38.1172 49.3227 38.3176 48.895 38.4288C47.0675 38.9466 44.9963 38.0571 43.4074 37.2413C42.4793 36.7742 41.5993 36.2173 40.7801 35.5784C40.4784 35.344 40.2081 35.0718 39.9758 34.7685L38.7232 36.5106C38.2677 37.2598 37.7106 37.9423 37.0676 38.5385C35.8497 39.5005 34.2113 39.1124 33.0854 38.1984C32.7877 37.9572 32.5175 37.6837 32.2798 37.3832C30.88 38.7252 29.3838 39.9631 27.8031 41.0869L27.9436 41.0671C29.6215 40.8632 31.32 40.8965 32.9891 41.1661C34.7515 41.4833 36.4517 42.0819 38.0243 42.939C39.6585 43.8236 41.2522 44.9857 42.2027 46.6171C43.024 47.9293 43.3098 49.5062 43.001 51.0219C42.8091 51.7592 42.467 52.4489 41.9961 53.0478C41.5252 53.6467 40.9356 54.1419 40.2643 54.5025C37.2438 56.1898 33.7688 55.1969 31.066 53.3645C27.7158 51.0395 25.1966 47.7049 23.8769 43.8483C23.7835 43.8415 23.6934 43.8104 23.6156 43.758C19.9917 45.7754 16.2182 47.5122 12.3281 48.9531C10.2331 49.7522 8.1202 50.513 6.01004 51.2616C5.2553 51.5303 4.80351 50.3672 5.57045 50.0785C10.7971 48.2229 16.0984 46.3349 21.0237 43.7694C17.9727 41.6235 15.4525 38.8089 13.656 35.541C12.1402 32.7597 11.1882 29.2778 13.0715 26.4315C13.4521 25.8351 13.9507 25.3228 14.5366 24.926C15.1225 24.5291 15.7834 24.2561 16.4788 24.1235ZM33.865 37.2261C34.2644 37.5654 34.7535 37.7819 35.2731 37.8495C35.971 37.9078 36.4521 37.4636 36.8586 36.9463C37.829 35.7055 38.6958 34.4016 39.6094 33.1263C39.6874 33.0352 39.7899 32.9684 39.9047 32.9336C40.0195 32.8988 40.1419 32.8975 40.2575 32.9298C40.3731 32.9622 40.4771 33.0268 40.5572 33.1162C40.6373 33.2055 40.6903 33.3159 40.7099 33.4343C40.776 34.0788 41.3986 34.4943 41.8852 34.8545C42.5486 35.3406 43.2524 35.7689 43.989 36.1347C45.2233 36.7576 46.7919 37.5015 48.2129 37.2903C48.5401 37.2574 48.854 37.1435 49.1262 36.9592C49.3985 36.7748 49.6205 36.5256 49.7723 36.234C50.0548 35.5589 49.7418 34.7778 49.4729 34.1427C48.8482 32.7064 47.8641 31.4547 46.6153 30.5083C46.5183 30.4206 46.4512 30.3047 46.4234 30.177C46.3956 30.0493 46.4085 29.9161 46.4603 29.7961C46.5121 29.6761 46.6001 29.5754 46.7121 29.5081C46.8241 29.4407 46.9544 29.4101 47.0848 29.4205C48.7099 29.6723 50.4942 29.783 52.0003 29.0101C53.182 28.4014 54.2116 27.0181 53.9599 25.6242C53.6591 23.9945 51.8518 23.206 50.3769 22.9861C48.652 22.7101 46.8854 22.8942 45.1576 22.5249C44.4483 22.3726 44.5314 21.3472 45.1393 21.2822C45.8931 19.9432 46.3927 18.4762 46.6129 16.9551C46.7229 16.1488 46.7492 15.3332 46.6913 14.5214C46.6337 13.6897 46.5581 12.7143 46.1051 11.99C44.9775 10.205 42.8611 12.0487 42.0059 13.0849C40.7652 14.6309 39.7817 16.3667 39.0931 18.2256C38.8565 18.8554 38.0108 18.6109 37.8992 18.0485C37.5728 16.3253 36.1508 15.0846 34.8228 14.0659C33.6084 13.1392 31.9383 11.7337 30.3508 12.6402C28.7633 13.5467 29.1024 15.3921 29.7972 16.8038C30.7261 18.6967 31.8185 20.5244 32.8269 22.3696C32.8943 22.4701 32.9315 22.5877 32.9342 22.7086C32.9369 22.8295 32.905 22.9486 32.8421 23.0519C32.7793 23.1551 32.6882 23.2383 32.5796 23.2914C32.4709 23.3446 32.3493 23.3655 32.2291 23.3518C30.6618 23.183 29.0843 23.554 27.7576 24.4034C26.6162 25.1418 25.0911 26.5258 25.4576 28.0399C25.7418 29.275 26.9779 30.1737 28.1756 30.3897C29.8286 30.686 31.5 30.1236 33.0452 29.5576C33.576 29.3633 34.2284 30.0762 33.7552 30.5299C31.8261 32.3594 31.7328 35.5028 33.865 37.2261ZM33.3265 48.0832C31.9418 47.2405 30.5788 46.3471 29.1657 45.5512C27.9665 44.9279 26.6833 44.4817 25.3563 44.2266C26.408 46.8671 28.0679 49.223 30.201 51.1029C32.3384 52.9758 35.3055 54.7127 38.2561 53.9764C39.5625 53.6763 40.6971 52.8728 41.4133 51.7406C41.7284 51.1447 41.8988 50.483 41.911 49.8089C41.9232 49.1347 41.7767 48.467 41.4833 47.8596C40.2305 44.9775 36.6582 43.2935 33.769 42.5884C32.101 42.2058 30.3835 42.0877 28.6793 42.2381C27.598 42.301 26.5364 42.5539 25.5434 42.9853C26.9826 43.2543 28.3752 43.7316 29.6771 44.4019C31.1954 45.2435 32.6472 46.2093 34.1256 47.1089C34.2543 47.2124 34.337 47.3625 34.3557 47.5264C34.3743 47.6904 34.3275 47.855 34.2253 47.9845C34.1729 48.0502 34.1081 48.1048 34.0345 48.1453C33.9609 48.1858 33.8801 48.2113 33.7966 48.2205C33.713 48.2297 33.6285 48.2223 33.5479 48.1987C33.4672 48.1751 33.392 48.1359 33.3265 48.0832ZM14.5281 34.5974C16.1658 37.7229 18.5034 40.4286 21.3586 42.5036C21.0951 41.2834 20.7668 40.078 20.3752 38.8926C20.1363 38.1704 19.876 37.4534 19.5887 36.7429C19.4405 36.3689 19.2836 35.9941 19.1246 35.6227C18.9839 35.2499 18.8236 34.8849 18.6442 34.5292C18.1008 34.1115 18.5852 33.1198 19.2499 33.451C19.7017 33.6801 19.8326 34.1353 20.0248 34.5727C20.217 35.0101 20.3733 35.3707 20.5422 35.7711C20.8798 36.587 21.1908 37.4142 21.4751 38.2525C21.8348 39.3184 22.1367 40.404 22.3988 41.5021C24.1588 37.2165 24.0502 32.183 21.344 28.2699C20.5184 27.0808 19.4146 25.8368 17.9635 25.4345C17.3306 25.2868 16.669 25.3201 16.0544 25.5308C15.4399 25.7414 14.8973 26.1208 14.4888 26.6256C12.4469 28.9266 13.2622 32.1285 14.5281 34.5974Z" fill="#F4A64E"/>
    <path d="M35.2751 25.622C35.2192 23.7933 36.2581 21.7472 37.9337 20.9218C39.8886 19.9687 42.0293 20.9097 43.3961 22.4145C43.5111 22.418 43.6221 22.4574 43.7136 22.527C43.8052 22.5967 43.8727 22.6932 43.9067 22.803C44.5544 24.5706 44.6295 26.6766 43.5595 28.3146C42.6099 29.7695 40.7266 30.6425 39.0266 30.1071C38.0091 29.717 37.1091 29.0715 36.4133 28.233C35.7327 27.5272 35.3287 26.6004 35.2751 25.622ZM38.9365 28.7337C40.1285 29.3583 41.4864 28.9119 42.3207 27.895C43.2482 26.77 43.2773 25.2082 42.9146 23.8384C42.0447 22.549 40.5552 21.4869 38.9351 21.8746C37.5267 22.2308 36.6523 23.8184 36.5303 25.1863C36.4698 25.8629 36.6609 26.5383 37.0671 27.0833C37.565 27.7608 38.2025 28.3236 38.9365 28.7337Z" fill="#F4A64E"/>
    <path d="M42.2877 20.1009C42.1387 20.0316 42.0219 19.9079 41.9614 19.7552C41.9008 19.6025 41.9011 19.4325 41.9622 19.2801L42.7287 17.3201C42.7957 17.1688 42.9193 17.0498 43.0731 16.9885C43.2269 16.9272 43.3986 16.9285 43.5515 16.9921C43.7005 17.0614 43.8173 17.1852 43.8779 17.3378C43.9384 17.4905 43.9381 17.6605 43.8771 17.8129L43.1085 19.7763C43.0417 19.9272 42.9182 20.0457 42.7647 20.1064C42.6112 20.1671 42.4399 20.1651 42.2877 20.1009Z" fill="#F4A64E"/>
    <path d="M34.695 20.6403C34.5826 20.534 34.5068 20.3949 34.4784 20.243L34.4936 20.2934C34.429 20.0444 34.3377 19.8031 34.2211 19.5737C34.0953 19.3551 33.9461 19.1507 33.7762 18.9641L33.7495 18.9479C33.6226 18.843 33.5397 18.6945 33.5169 18.5317C33.4995 18.367 33.5472 18.2021 33.6498 18.0723C33.7538 17.9446 33.9037 17.8628 34.0674 17.8443C34.2312 17.8258 34.3957 17.8722 34.5257 17.9735C34.8151 18.237 35.0634 18.5425 35.2623 18.8795C35.4761 19.2531 35.6323 19.6568 35.7253 20.0769C35.7424 20.2402 35.6955 20.4037 35.5945 20.533C35.4893 20.6606 35.3391 20.7429 35.1749 20.763C35.0908 20.7758 35.005 20.7715 34.9225 20.7504C34.8401 20.7293 34.7627 20.6919 34.695 20.6403Z" fill="#F4A64E"/>
    <path d="M32.0947 26.9921L32.0054 26.9882C31.794 26.9908 31.5834 27.0161 31.3773 27.0638C31.1848 27.1152 30.9977 27.1854 30.819 27.2734C30.6717 27.3314 30.5079 27.3315 30.3605 27.2737C30.2074 27.2041 30.087 27.0784 30.0242 26.9225C29.9672 26.7755 29.9681 26.6125 30.0268 26.4663C30.0553 26.4195 30.0837 26.3727 30.1142 26.3226C30.1846 26.2375 30.2752 26.1715 30.3778 26.1305C30.9694 25.8452 31.6279 25.7267 32.2822 25.7877C32.3645 25.8005 32.4435 25.8294 32.5147 25.8727C32.5858 25.916 32.6478 25.9728 32.697 26.0401C32.7906 26.1729 32.8305 26.3362 32.8084 26.4971C32.797 26.579 32.769 26.6578 32.726 26.7284C32.683 26.7991 32.6259 26.8602 32.5584 26.908C32.4183 26.989 32.2544 27.0188 32.0947 26.9921Z" fill="#F4A64E"/>
    <path d="M36.7319 31.5584C36.8856 31.626 37.0069 31.7508 37.0702 31.9062C37.1288 32.0534 37.1291 32.2172 37.0709 32.3645C36.8456 32.795 36.6202 33.2256 36.3982 33.6582C36.3269 33.8098 36.2018 33.9294 36.0472 33.994C35.9 34.0493 35.7374 34.0482 35.5908 33.991C35.5148 33.9578 35.4463 33.9099 35.3891 33.8499C35.3319 33.79 35.2873 33.7192 35.2578 33.6418C35.1972 33.4951 35.1969 33.3304 35.2571 33.1836C35.4804 32.7563 35.7024 32.3237 35.9278 31.8932C35.9972 31.7402 36.1229 31.62 36.2788 31.5574C36.4245 31.5008 36.5863 31.5011 36.7319 31.5584Z" fill="#F4A64E"/>
    <path d="M44.2544 30.9761C44.5131 31.2385 44.7401 31.5303 44.9307 31.8455C45.1231 32.1556 45.2802 32.4861 45.399 32.831C45.4552 32.9781 45.4543 33.1409 45.3964 33.2872C45.3637 33.3637 45.3161 33.4329 45.2564 33.4909C45.1967 33.5489 45.1261 33.5945 45.0487 33.625C44.8937 33.6813 44.7228 33.6749 44.5722 33.6072C44.4217 33.5396 44.3035 33.416 44.2425 33.2627C44.1736 33.0521 44.0884 32.8471 43.9876 32.6497C43.8254 32.3663 43.6302 32.1031 43.4061 31.8655L43.4675 31.9303C43.3523 31.824 43.2773 31.6814 43.255 31.5263C43.2376 31.3617 43.2853 31.1968 43.3879 31.0669C43.4925 30.9387 43.643 30.8562 43.8074 30.8369C43.8875 30.8285 43.9684 30.8365 44.0452 30.8604C44.1221 30.8844 44.1933 30.9237 44.2544 30.9761Z" fill="#F4A64E"/>
    <path d="M46.3767 25.0936C46.9806 25.1842 47.5742 25.3338 48.149 25.5403C48.3011 25.6066 48.4209 25.7302 48.4825 25.8843C48.5441 26.0383 48.5424 26.2103 48.4779 26.363C48.4094 26.5125 48.2858 26.6298 48.1329 26.6903C47.9799 26.7507 47.8094 26.7498 47.657 26.6876C47.4849 26.6241 47.312 26.5692 47.1337 26.5157C46.8268 26.4325 46.5157 26.3654 46.2018 26.3149C46.0362 26.2874 45.8875 26.197 45.787 26.0625C45.6934 25.9297 45.6535 25.7664 45.6756 25.6055C45.7061 25.4474 45.7953 25.3067 45.9254 25.2118C46.0554 25.1168 46.2166 25.0746 46.3767 25.0936Z" fill="#F4A64E"/>
  </g>
  <defs>
    <clipPath id="clip0_359_106">
      <rect width="38.621" height="56.0418" fill="white" transform="matrix(-0.854264 -0.519839 -0.519839 0.854264 62.1252 20.0767)"/>
    </clipPath>
  </defs>
</symbol>
<!---->
<symbol id="rocketicon" xmlns="http://www.w3.org/2000/svg"  viewBox="0 0 42 51" fill="none">
  <g opacity="0.2" clip-path="url(#clip0_73_729)">
    <path d="M28.0337 16.6733C28.6743 16.393 29.3877 16.3216 30.0715 16.4695C30.7377 16.6096 31.3902 16.8081 32.0211 17.0628C33.0945 17.3568 33.836 18.3525 34.3908 19.2733C35.0243 20.2815 35.4213 21.4189 35.5522 22.6008C35.7571 24.77 34.7382 27.076 32.6796 28.0175C31.5545 28.5334 30.31 28.4508 29.1434 28.1181C27.8072 27.7477 26.5836 27.0548 25.5811 26.101C25.119 25.6687 24.7396 25.1565 24.4611 24.5895C24.2031 23.9788 24.0052 23.3448 23.87 22.6962C23.5537 21.4245 23.5745 20.1735 24.3678 19.085C25.2493 17.8598 26.6726 17.2253 28.0337 16.6733ZM24.5259 21.8321C24.6867 22.9051 24.99 24.1381 25.6745 24.997C26.4081 25.8782 27.3495 26.565 28.4148 26.9961C29.4311 27.4268 30.6056 27.7467 31.71 27.4913C33.5248 27.0786 34.6656 25.2369 34.7615 23.4829C34.7943 22.3784 34.5436 21.2838 34.033 20.3025C33.6545 19.5287 33.0685 18.4969 32.2493 18.0275C32.2244 18.0208 32.2002 18.0121 32.1767 18.0017C32.0471 17.9449 31.9174 17.8882 31.78 17.834C31.6948 17.8126 31.6082 17.7971 31.5208 17.7876C31.4643 17.7849 31.4092 17.7693 31.3597 17.742C31.3103 17.7148 31.2678 17.6765 31.2356 17.6302C30.9608 17.5348 30.6808 17.4471 30.3982 17.3723C29.8148 17.2201 29.2315 17.0963 28.6482 17.2975C27.563 17.6335 26.5496 18.1661 25.6589 18.8684C25.222 19.2191 24.8868 19.6791 24.6877 20.2013C24.4886 20.7235 24.4328 21.2891 24.5259 21.8398V21.8321Z" fill="#BB521F"/>
    <path d="M3.12145 22.5905C3.95478 21.1597 4.97572 19.8456 6.15738 18.6827C7.31108 17.5039 8.43109 16.258 9.66257 15.1592C10.2563 14.6113 10.9555 14.1887 11.7179 13.917C12.4803 13.6452 13.2901 13.5299 14.0985 13.578C15.9418 13.6709 17.6478 14.4679 19.2837 15.2443L19.6233 14.9245C21.8039 12.9907 24.2056 11.3189 26.7789 9.94363C28.0337 9.22631 29.3326 8.58794 30.6677 8.03229C32.0294 7.52635 33.4869 7.32725 34.9352 7.44935C35.5525 7.48932 36.1671 7.56424 36.7759 7.67376C36.7761 7.62776 36.7813 7.58192 36.7915 7.53705C36.9289 7.03922 37.297 6.69874 37.6237 6.31957C37.9118 5.99093 38.1431 5.61699 38.3081 5.213C38.6482 4.39012 38.7118 3.47993 38.4896 2.61812C38.1436 2.36633 37.8984 2.00082 37.7974 1.58636C37.6574 1.04984 37.7974 0.250227 38.4066 0.0387161C38.7111 -0.0390572 39.0328 -0.0145735 39.3218 0.10836C39.6423 0.223418 39.9492 0.373055 40.237 0.554597C40.5168 0.709216 40.7669 0.911804 40.9759 1.15302C41.0831 1.29666 41.1427 1.46996 41.1464 1.64884C41.1501 1.82772 41.0978 2.00332 40.9966 2.15125C40.771 2.4448 40.4423 2.64284 40.0763 2.70582C39.8474 2.76731 39.6129 2.80534 39.3763 2.81931C39.5267 3.66781 39.4489 4.54079 39.1507 5.34971C38.9858 5.80144 38.7533 6.2258 38.4611 6.60846C38.1552 7.00827 37.7092 7.33069 37.5718 7.83368C37.5607 7.8726 37.5412 7.90868 37.5148 7.93943C37.5223 7.94787 37.5285 7.95745 37.5329 7.96781C37.6036 7.9944 37.6649 8.04103 37.7092 8.10194C40.2537 11.4473 41.6791 15.5025 41.7848 19.6964L41.8963 19.8047C41.9388 19.8442 41.9707 19.8938 41.9888 19.9489C42.0069 20.004 42.0107 20.0627 41.9998 20.1196C41.9889 20.1765 41.9637 20.2298 41.9266 20.2744C41.8895 20.319 41.8416 20.3535 41.7874 20.3747C41.7874 20.9138 41.7511 21.4529 41.694 21.992C41.4378 24.1972 40.7695 26.3352 39.7237 28.2961C41.4996 30.1249 41.9092 32.7533 41.7666 35.227C41.7252 35.9698 41.6396 36.7075 41.5463 37.4453C41.4741 38.2042 41.3229 38.9537 41.0952 39.6816C40.8111 40.3984 40.464 41.0889 40.0581 41.7451C39.6675 42.433 39.2734 43.1208 38.8759 43.8086C38.124 45.0983 37.4033 46.3597 36.2833 47.3656C35.1633 48.3716 33.8048 49.228 32.5474 50.1127C32.0781 50.4455 31.487 51.0336 30.8622 51.0078C30.2374 50.982 29.9937 50.4377 30.0844 49.9038C30.1907 49.1996 30.5666 48.5032 30.8622 47.8712C31.1966 47.1825 31.5363 46.499 31.8344 45.7948C33.113 42.7643 33.8466 39.534 34.0018 36.251C33.3355 36.2639 32.6874 35.8228 32.1066 35.5416L31.6529 35.3198C31.3649 35.8836 30.9817 36.394 30.52 36.8288C30.3697 36.9541 30.1947 37.0467 30.0063 37.1004C29.8178 37.1542 29.6201 37.168 29.4259 37.1409C29.1602 38.5864 28.7796 40.0087 28.2877 41.3943C27.9015 42.4674 27.4374 43.8499 26.2137 44.2136C26.1145 44.2554 26.0029 44.257 25.9026 44.2179C25.8023 44.1789 25.7213 44.1024 25.677 44.0047C25.4874 43.3901 25.2615 42.7872 25.0003 42.1991C24.9407 42.0675 24.7411 41.4614 24.6089 41.4253C24.6529 41.4253 24.4378 41.6419 24.3781 41.709L24.0022 42.1166C23.0844 43.107 22.1407 44.0743 21.1711 45.0184C20.4892 45.6839 19.7063 46.4732 18.6926 46.5351C18.2285 46.5634 17.6555 46.4345 17.43 45.9908C17.2044 45.5472 17.43 45.0081 17.5933 44.567C17.8526 43.8319 18.1455 43.1019 18.4515 42.3822C18.5966 42.034 18.7496 41.6858 18.9052 41.3505C19.016 41.1353 19.103 40.9086 19.1644 40.6747C18.7913 40.813 18.4495 41.0234 18.1585 41.2937C17.7618 41.5981 17.3807 41.9231 16.9918 42.23C16.2348 42.8182 15.2937 43.494 14.3007 43.5507C13.8755 43.5739 13.3933 43.4269 13.2352 42.991C13.0537 42.4906 13.4166 41.8586 13.58 41.3969L14.2385 39.5475L14.5548 38.6576C14.5729 38.6086 14.6015 38.5441 14.63 38.4719C13.9092 39.1296 13.3337 39.9447 12.5222 40.5044C11.8896 40.9378 10.0903 41.7142 9.76627 40.5225C9.62367 40.0066 9.97887 39.4082 10.2148 38.9748C10.5298 38.4002 10.8869 37.8493 11.2829 37.3266C11.8015 36.6456 12.32 35.9827 12.8048 35.2786C11.6485 35.8744 10.3755 36.22 9.12331 35.6087C9.02575 35.5685 8.94743 35.4926 8.9045 35.3966C8.86156 35.3006 8.85729 35.1919 8.89256 35.0928C10.3107 32.5392 12.3148 30.4267 14.337 28.3374C14.379 28.2925 14.4303 28.2573 14.4874 28.2342C14.28 27.4965 14.6118 26.8284 14.6948 26.1113C14.2872 25.8707 13.902 25.5945 13.5437 25.2859C13.4434 25.196 13.3562 25.0927 13.2844 24.979C11.8187 25.2722 10.398 25.7552 9.05849 26.4157C7.67209 27.0304 6.37254 27.823 5.19294 28.7733C4.62979 29.2424 4.12029 29.7718 3.67367 30.3519C3.20441 30.9606 2.79478 31.6132 2.28145 32.1858C1.88738 32.6269 1.31441 33.2769 0.674042 33.2847C-0.194477 33.3001 -0.020771 32.3974 0.0933037 31.8454C0.746635 28.6417 1.52441 25.4355 3.12145 22.5905ZM17.3807 15.4507C17.4534 15.4068 17.5368 15.3836 17.6218 15.3836L17.2433 15.2263C17.29 15.3036 17.3392 15.3784 17.3833 15.4507H17.3807ZM17.5648 16.8461C17.4403 17.037 17.3055 17.2279 17.1863 17.4187C17.3418 17.2382 17.5 17.0628 17.6607 16.8874C17.6277 16.8783 17.5963 16.8644 17.5674 16.8461H17.5648ZM13.7096 22.6343L12.9318 23.8105C12.8987 23.8588 12.8542 23.8984 12.8022 23.9258C12.7503 23.9532 12.6925 23.9676 12.6337 23.9679L12.4133 24.2851C12.644 24.2284 12.8774 24.1819 13.1107 24.1381C13.1314 23.9735 13.1732 23.8123 13.2352 23.6583C13.3855 23.3178 13.5437 22.9748 13.7096 22.6343ZM11.6174 24.1819C11.5751 24.1529 11.5397 24.1151 11.5137 24.071L11.2337 24.6256C11.41 24.5689 11.5889 24.5121 11.7522 24.4605C11.7126 24.4261 11.6804 24.3842 11.6572 24.3373C11.6341 24.2903 11.6205 24.2393 11.6174 24.1871V24.1819ZM18.117 15.5951C18.2643 15.7341 18.3663 15.9138 18.41 16.111L18.6692 15.8531L18.117 15.5951ZM40.1748 14.7026C40.0949 14.7242 40.0101 14.7188 39.9337 14.6872C39.4618 14.4963 38.9952 14.2899 38.5337 14.0784C38.64 14.1868 38.7437 14.3002 38.8422 14.4137C39.1879 14.67 39.5215 14.9322 39.8429 15.2005C39.9205 15.2591 39.9738 15.3439 39.9929 15.4389C40.012 15.5339 39.9956 15.6326 39.9466 15.7163L40.0478 15.8169C40.2241 15.9588 40.3952 16.1033 40.5663 16.2529C40.4539 15.7284 40.3217 15.2116 40.1696 14.7026H40.1748ZM38.2148 10.2944C38.1881 10.3041 38.1602 10.3102 38.1318 10.3125L38.3911 10.5911C38.3392 10.4905 38.2692 10.3924 38.2096 10.2944H38.2148ZM36.2652 9.38648C36.2242 9.33263 36.1999 9.26811 36.1952 9.20076C36.0396 9.17497 35.884 9.15434 35.7259 9.13628C35.9411 9.25751 36.1537 9.37874 36.3611 9.50513C36.3326 9.46386 36.2989 9.42775 36.2652 9.38648ZM32.3374 11.9659L31.9718 11.8808C32.3331 12.0613 32.6917 12.2462 33.0478 12.4353C33.1696 12.4972 33.2915 12.5643 33.4133 12.6288L33.6 12.7062C33.18 12.4508 32.7574 12.2058 32.34 11.953L32.3374 11.9659ZM30.3826 10.2686C30.4221 10.2004 30.4793 10.1439 30.5481 10.1049C30.6169 10.0659 30.6949 10.0459 30.774 10.0468C31.5855 10.07 32.3711 10.377 33.1074 10.6684C33.9163 10.9831 34.707 11.3468 35.4874 11.7234C35.9108 11.9281 36.3317 12.1344 36.75 12.3425C35.2539 11.3355 33.6805 10.4471 32.0444 9.68569C31.6452 9.72438 31.2485 9.77597 30.8518 9.85077C30.3938 9.9431 29.9411 10.0602 29.4959 10.2016C29.7933 10.1965 30.0906 10.2146 30.3852 10.2557L30.3826 10.2686ZM34.4037 9.68311C34.3804 9.69923 34.3562 9.71387 34.3311 9.72696L34.5203 9.8095L34.4037 9.68311ZM40.2318 17.0112C40.4289 17.2201 40.6181 17.4342 40.8022 17.6586C40.7685 17.4007 40.7322 17.1634 40.6881 16.9183C40.6333 16.9822 40.5587 17.026 40.476 17.0429C40.3934 17.0597 40.3074 17.0485 40.2318 17.0112ZM37.38 15.6209C37.3217 15.6416 37.2594 15.6488 37.1979 15.6421C37.1364 15.6354 37.0772 15.6149 37.0248 15.5822L36.6592 15.3681C37.8978 16.2043 39.0665 17.1385 40.154 18.1616C39.342 17.1958 38.4049 16.3415 37.367 15.6209H37.38ZM29.6566 11.7054C29.4596 11.6306 29.26 11.5609 29.0603 11.4964C28.5494 11.4672 28.041 11.4043 27.5385 11.3081C27.4676 11.299 27.4003 11.2717 27.3431 11.229C27.286 11.1863 27.2408 11.1297 27.2121 11.0645C27.1834 10.9994 27.1722 10.928 27.1794 10.8572C27.1866 10.7865 27.212 10.7188 27.2533 10.6607C27.2689 10.6349 27.287 10.6143 27.3026 10.5885C26.9966 10.7561 26.6907 10.9264 26.3874 11.1044C27.4812 11.3182 28.5562 11.6184 29.6022 12.002C29.5804 11.9014 29.5951 11.7963 29.6437 11.7054H29.6566ZM32.8637 8.29281C31.8808 8.43835 30.9282 8.7415 30.0429 9.19045L30.4422 9.10275C30.7689 9.0331 31.0955 8.97636 31.4248 8.93251C31.444 8.8873 31.472 8.84633 31.5073 8.81196C31.5425 8.7776 31.5842 8.75052 31.63 8.73229C31.6758 8.71406 31.7248 8.70504 31.7741 8.70576C31.8234 8.70648 31.8721 8.71692 31.9174 8.73647L32.2129 8.85254C32.5681 8.82675 32.9207 8.81127 33.2759 8.81127C33.909 8.4223 34.6493 8.24179 35.3915 8.29539C34.5515 8.20263 33.7038 8.20176 32.8637 8.29281ZM39.1481 12.0458C39.0803 12.0936 38.9992 12.1192 38.9161 12.1192C38.833 12.1192 38.7519 12.0936 38.6841 12.0458C38.067 11.6022 37.4474 11.1611 36.8148 10.7407C36.8952 10.8103 36.9729 10.8825 37.0533 10.9496C37.3126 11.1792 37.5926 11.4036 37.8622 11.628C38.371 11.9835 38.8528 12.3757 39.3037 12.8016L39.3322 12.8222L39.41 12.8945C39.4617 12.9431 39.4962 13.007 39.5084 13.0768C39.5206 13.1465 39.5097 13.2183 39.4774 13.2814L39.7781 13.5264C39.5863 13.0312 39.3763 12.5334 39.1481 12.0458ZM34.6889 38.0308C34.9481 37.8554 35.2074 37.6722 35.4407 37.4788C35.3593 37.5138 35.2686 37.5212 35.1826 37.4998C35.0965 37.4785 35.0199 37.4296 34.9645 37.3608C34.9091 37.2919 34.878 37.2068 34.876 37.1186C34.874 37.0304 34.9011 36.944 34.9533 36.8726C35.0622 36.7101 35.1763 36.5528 35.2955 36.398C35.3189 36.3361 35.3474 36.2742 35.3707 36.2097C35.3175 36.193 35.2683 36.1656 35.2261 36.1293C35.1839 36.0929 35.1496 36.0484 35.1253 35.9984C35.101 35.9484 35.0873 35.894 35.0849 35.8385C35.0825 35.783 35.0915 35.7277 35.1115 35.6758C35.0326 35.769 34.9459 35.8553 34.8522 35.9337C34.8185 36.6276 34.7666 37.3318 34.6889 38.0308ZM37.8648 33.313C38.0437 33.0551 38.2096 32.7791 38.3833 32.5057C38.1707 32.8496 37.9538 33.1824 37.7326 33.5039L37.7637 33.4704C37.7896 33.4136 37.8207 33.3646 37.8648 33.313ZM38.4637 30.4757C38.5148 30.4765 38.5656 30.4852 38.614 30.5015L38.8163 30.1326C38.7863 30.0555 38.7863 29.9699 38.8163 29.8928C38.6996 30.0939 38.5829 30.2874 38.4637 30.4757ZM37.2477 32.5908C37.4137 32.2864 37.5692 31.9795 37.717 31.6674C37.3281 32.2735 36.9392 32.8797 36.5503 33.473C36.3766 33.7309 36.2055 34.0172 36.0318 34.2906C36.4328 33.7266 36.8381 33.1617 37.2477 32.596V32.5908ZM39.0937 29.4439C39.0289 29.5549 38.9589 29.6658 38.8941 29.7767L39.2129 29.4027C39.2473 29.3628 39.2893 29.3302 39.3365 29.3068C39.3837 29.2833 39.4351 29.2694 39.4877 29.266C39.4307 29.1937 39.3737 29.1215 39.3115 29.0519C39.2389 29.186 39.1689 29.3072 39.0937 29.4439ZM40.2344 30.4602C40.165 30.8249 40.0307 31.1743 39.8378 31.492C39.8994 31.4714 39.9656 31.4685 40.0289 31.4836C40.0921 31.4986 40.1499 31.531 40.1955 31.5771L40.4885 31.1025C40.4133 30.8678 40.3278 30.6563 40.2344 30.4525V30.4602ZM31.9018 47.6055C31.5774 48.2251 31.2883 48.8624 31.0359 49.5143C30.9866 49.6484 30.7585 50.1617 30.9452 50.1849C31.1785 50.2159 31.6011 49.7825 31.78 49.6691C32.9103 48.872 34.0744 48.1059 35.1503 47.2496C36.183 46.4097 37.0445 45.3809 37.6885 44.2188C38.4196 42.9832 39.1689 41.7503 39.8326 40.4786C40.4963 39.207 40.6726 37.8193 40.8385 36.4083C41.0224 35.0009 41.0015 33.5744 40.7763 32.1729C39.1818 34.7524 37.4266 37.3318 34.79 38.9413C34.7233 38.9835 34.646 39.0059 34.567 39.0058C34.1407 41.9944 33.2412 44.897 31.9018 47.6055ZM30.4785 35.6268C30.6315 35.4127 30.774 35.1908 30.914 34.9664L29.9755 34.5073C28.5522 33.8109 27.1237 33.1093 25.7237 32.387C22.9211 30.958 20.1496 29.4594 17.4611 27.8241C16.7801 27.4096 16.1034 26.9849 15.4311 26.5498C15.2892 26.9576 15.2233 27.3876 15.2366 27.8189C15.3041 28.3348 15.724 28.7604 16.1233 29.0777C17.2018 29.9289 18.4566 30.6253 19.6129 31.3424C22.142 32.9446 24.7838 34.3635 27.5178 35.5881C27.9092 35.7583 28.2955 35.9208 28.6948 36.0807C29.0111 36.2071 29.4466 36.4548 29.7966 36.3387C30.1 36.2175 30.3022 35.8667 30.4785 35.619V35.6268ZM9.87516 35.0129C11.2259 35.3843 12.5766 34.5408 13.6889 33.8083C13.9974 33.6045 14.5081 33.8779 14.3215 34.2752C13.3959 36.2561 11.6666 37.729 10.7618 39.7125C10.71 39.8209 10.4741 40.2078 10.6011 40.3161C10.7281 40.4245 11.1585 40.2749 11.2803 40.2362C11.7398 40.0739 12.1589 39.8152 12.5092 39.4778C13.287 38.7891 13.8652 37.9302 14.7415 37.3498C14.8275 37.2861 14.9348 37.2575 15.0413 37.27C15.1479 37.2825 15.2456 37.335 15.3144 37.4169C15.6178 37.7367 15.5737 38.1726 15.4596 38.5647C15.2807 39.1451 15.0526 39.7151 14.8478 40.2903L14.2411 41.9902C14.1866 42.1475 13.9404 42.617 14.0726 42.7279C14.2048 42.8388 14.63 42.6685 14.7518 42.6247C15.6748 42.3049 16.4215 41.6497 17.1681 41.0461C17.837 40.5044 18.6796 39.6842 19.6207 39.8493C19.7098 39.8613 19.7928 39.9009 19.8579 39.9624C19.9231 40.024 19.9671 40.1045 19.9837 40.1923C20.09 40.7443 19.8566 41.2241 19.6363 41.7219C19.3485 42.3642 19.0737 43.0116 18.817 43.6616C18.6978 43.9634 18.5811 44.2652 18.4696 44.5696C18.3392 44.8516 18.2359 45.1452 18.1611 45.4466C18.0781 45.9753 19.0452 45.6581 19.2863 45.5317C19.7124 45.2802 20.1008 44.9702 20.44 44.6108C20.9326 44.1362 21.4183 43.6539 21.897 43.1638C22.3715 42.6814 22.8355 42.1914 23.297 41.6961C23.6107 41.3556 24.0048 40.6979 24.4948 40.6024C25.1403 40.4735 25.4463 41.2267 25.6589 41.6858C25.8985 42.2068 26.1088 42.7407 26.2889 43.285C27.0666 42.7691 27.3544 41.6136 27.6318 40.8062C28.0669 39.5441 28.4041 38.2506 28.6404 36.9371C27.0755 36.3219 25.5469 35.6192 24.0618 34.8323C22.5659 34.0585 21.1063 33.2099 19.6674 32.3329C18.938 31.8892 18.2164 31.437 17.5026 30.9761C16.8585 30.5929 16.2346 30.1771 15.6333 29.7303C15.3396 29.509 15.0779 29.2486 14.8555 28.9564C13.0407 30.8213 11.2078 32.743 9.87516 35.0051V35.0129ZM14.56 24.9893C15.1701 25.402 15.7863 25.807 16.4085 26.2042C21.4044 29.3872 26.727 32.0233 32.0522 34.6027L33.0478 35.0851C33.3133 35.248 33.6055 35.3633 33.9111 35.4256C34.484 35.4694 34.8341 34.6518 35.0881 34.2519C35.8944 32.9984 36.7007 31.7396 37.4966 30.4783C37.94 29.7767 38.3652 29.0673 38.7592 28.3451C38.7545 28.2605 38.7729 28.1762 38.8127 28.1012C38.8524 28.0262 38.9119 27.9634 38.9848 27.9195C39.7709 26.4621 40.3378 24.8978 40.6674 23.2766C40.8694 22.2007 40.9683 21.1081 40.9629 20.0136C38.9174 18.0301 36.8148 16.1574 34.2222 14.9064C31.5026 13.5961 28.7 12.2367 25.6848 11.7879C25.6338 11.7811 25.5847 11.7644 25.5402 11.7388C25.4957 11.7131 25.4567 11.679 25.4255 11.6383C24.272 12.3371 23.1573 13.0974 22.0863 13.9159C19.8711 15.5948 17.9214 17.5945 16.3022 19.8485C15.4975 20.9724 14.803 22.1704 14.2281 23.4262C14.0691 23.6903 13.961 23.9816 13.9092 24.2851C13.8989 24.6256 14.3163 24.8242 14.56 24.9893ZM1.22369 30.4215C1.1485 30.7646 1.0733 31.1102 1.00071 31.4533C0.964413 31.6261 0.930717 31.7964 0.894421 31.9692C0.87368 32.0672 0.855537 32.1652 0.834797 32.2632C0.834797 32.3122 0.816635 32.3612 0.806267 32.4103C0.795895 32.4593 0.806267 32.4283 0.806267 32.4386C0.837376 32.4103 0.928123 32.3071 0.974792 32.2735L1.13293 32.1472C1.27066 32.0275 1.40137 31.9 1.52442 31.7654C1.75177 31.5192 1.96553 31.2608 2.16478 30.9916C2.99701 29.8773 3.79034 28.8146 4.887 27.935C6.08406 27.0074 7.38991 26.2278 8.77589 25.6135C9.2633 25.3865 9.75676 25.175 10.2563 24.979C10.2382 24.9327 10.2307 24.883 10.2343 24.8335C10.2379 24.784 10.2525 24.7359 10.277 24.6927C11.1671 22.9146 12.0737 21.1451 12.9966 19.3843C13.446 18.5245 13.8997 17.6733 14.3578 16.8306C14.7299 16.0845 15.1418 15.3586 15.5918 14.6562C13.9403 14.2229 12.2474 14.2125 10.754 15.314C9.56404 16.1935 8.57109 17.3775 7.53924 18.4092C6.44776 19.521 5.34331 20.6198 4.47219 21.9172C2.76886 24.476 1.8848 27.4707 1.22369 30.4215Z" fill="#BB521F"/>
    <path d="M29.7474 18.4273C30.2688 18.4343 30.7826 18.5531 31.2537 18.7755C31.3363 18.7278 31.4328 18.7097 31.5272 18.7243C31.6215 18.7388 31.708 18.7851 31.7722 18.8554C33.0374 20.2148 34.02 22.0591 33.4419 23.9446C33.1977 24.7866 32.6281 25.498 31.8578 25.923C30.9867 26.377 29.9626 26.2635 29.0526 26.0004C28.1426 25.7373 27.077 25.304 26.4808 24.4863C25.9156 23.7125 25.83 22.7297 25.9467 21.8063C26.0633 20.8829 26.3019 19.8898 26.9656 19.2269C27.6293 18.564 28.8011 18.4144 29.7474 18.4273ZM27.4867 20.5785C27.4867 20.5965 27.4607 20.6146 27.4504 20.6327C27.486 20.6561 27.516 20.6869 27.5385 20.7229C27.5645 20.7642 27.58 20.8055 27.6033 20.8467L27.5878 20.6713C27.5493 20.646 27.5152 20.6146 27.4867 20.5785ZM27.4245 23.4958C27.4089 23.5783 27.3959 23.6635 27.3804 23.7537C27.3691 23.8144 27.345 23.8719 27.3097 23.9226C27.2744 23.9733 27.2287 24.016 27.1756 24.0478C27.3364 24.2484 27.528 24.4225 27.7433 24.5637C27.589 24.2237 27.4818 23.8645 27.4245 23.4958ZM29.2652 19.2527C28.8053 19.2551 28.3499 19.3426 27.9222 19.5106C27.796 19.574 27.6805 19.6567 27.58 19.7557C27.6486 19.7625 27.7158 19.779 27.7796 19.8047C27.8187 19.7788 27.8625 19.761 27.9085 19.7522C27.9545 19.7434 28.0018 19.7438 28.0477 19.7534C28.0936 19.763 28.1371 19.7816 28.1756 19.8081C28.2142 19.8346 28.247 19.8685 28.2722 19.9078C28.4794 20.2145 28.6532 20.5422 28.7907 20.8854C28.7441 20.5785 28.6948 20.2715 28.6404 19.9646C28.6306 19.8693 28.6547 19.7737 28.7084 19.6942C28.7621 19.6147 28.8421 19.5565 28.9345 19.5295C29.0268 19.5025 29.1257 19.5086 29.2141 19.5466C29.3024 19.5846 29.3746 19.6522 29.4182 19.7376C29.5237 19.9983 29.6154 20.2644 29.693 20.5346C29.6541 20.3051 29.6204 20.0729 29.5763 19.8434C29.483 19.3558 30.1389 19.2424 30.3541 19.6164C30.4293 19.7453 30.4863 19.8743 30.5485 20.011L30.5174 19.8124C30.5002 19.7346 30.5092 19.6534 30.5429 19.5812C30.5766 19.5089 30.6333 19.4497 30.7041 19.4126C30.6448 19.3871 30.5842 19.3648 30.5226 19.3455C30.1124 19.24 29.6865 19.2085 29.2652 19.2527ZM31.8137 24.9841L31.7489 24.9583C31.7489 24.9841 31.7489 25.0099 31.7489 25.0357C31.7645 25.0176 31.7904 25.0022 31.8111 24.9841H31.8137ZM31.4015 20.0497C31.4264 20.0279 31.4544 20.0096 31.4845 19.9955C31.4456 19.944 31.4015 19.8975 31.36 19.8511C31.3704 19.9182 31.3833 19.9826 31.3989 20.0497H31.4015ZM30.8622 25.2085V25.3426C30.8636 25.3581 30.8636 25.3736 30.8622 25.3891C30.9119 25.3821 30.9613 25.3726 31.01 25.3607C30.9529 25.3203 30.9022 25.2716 30.8596 25.2163L30.8622 25.2085ZM30.0326 25.3426L30.0145 25.3813H30.0508C30.0445 25.3706 30.0375 25.3603 30.03 25.3504L30.0326 25.3426ZM28.7467 25.0589C28.8867 25.1105 29.0319 25.1595 29.1796 25.2059C28.9031 24.4639 28.6923 23.6992 28.5496 22.9206C28.5756 23.4932 28.5963 24.0658 28.6015 24.6385C28.6066 24.6987 28.5935 24.7591 28.564 24.8119C28.5344 24.8648 28.4897 24.9076 28.4356 24.9351C28.5479 24.9712 28.6516 25.0125 28.7467 25.0589Z" fill="#BB521F"/>
  </g>
  <defs>
    <clipPath id="clip0_73_729">
      <rect width="42" height="51" fill="white" transform="matrix(-1 0 0 1 42 0)"/>
    </clipPath>
  </defs>
</symbol>
<!---->
<symbol id="arrowicon" xmlns="http://www.w3.org/2000/svg"  viewBox="0 0 63 52" fill="none">
  <g opacity="0.2" clip-path="url(#clip0_81_120)">
    <path d="M56.3646 9.20611C56.137 10.0881 55.6645 11.1228 55.4946 11.6858C55.0921 13.0116 54.6423 14.325 54.2131 15.6442C53.6911 17.2454 56.1332 17.987 56.6789 16.392C57.3374 14.4822 57.8887 12.5383 58.391 10.5911C58.701 9.39029 59.5197 7.53838 58.7594 6.40387C58.0557 5.35071 56.3083 5.36839 55.16 5.23039C53.1169 4.99262 51.0551 4.87908 48.9861 4.89042C47.952 4.89366 47.8371 6.38026 48.8549 6.46729C50.0684 6.57069 51.277 6.70118 52.4753 6.88884C53.3447 7.02422 54.2087 7.18968 55.0665 7.38052C55.1606 7.40054 55.2493 7.41677 55.3366 7.43128C42.7766 11.1222 38.4847 24.8992 30.049 33.481C27.6896 35.8813 24.8751 38.0603 21.606 38.9676C21.4394 39.0136 21.2727 39.0518 21.1029 39.0897C22.0298 36.8191 22.308 34.2912 21.5151 32.0312C20.7222 29.7712 18.6255 27.8734 15.9773 28.4447C13.453 28.9829 11.3917 31.4684 11.2661 33.9762C11.1261 36.7872 13.2372 39.1551 15.6979 40.1887C16.6571 40.5935 17.6871 40.8304 18.7434 40.8893C16.104 45.0194 11.0934 47.604 6.23711 47.1347C5.86985 47.0974 5.73168 47.7077 6.10011 47.7728C11.5793 48.7457 17.3651 45.6758 20.2141 40.8569C25.8807 40.3111 31.2513 34.9952 34.5317 30.8381C40.7782 22.9154 45.625 11.797 56.3646 9.20611ZM19.626 39.2675C16.9012 39.4037 14.1406 38.3123 13.0706 35.7218C11.887 32.867 14.8707 28.6602 18.1208 30.0837C21.029 31.3546 20.9135 35.6365 20.0285 38.2421C19.9098 38.59 19.7746 38.9343 19.626 39.2675Z" fill="#C472C3"/>
  </g>
  <defs>
    <clipPath id="clip0_81_120">
      <rect width="67" height="15" fill="white" transform="translate(0 39.5247) rotate(-36.1514)"/>
    </clipPath>
  </defs>
</symbol>
<!---->
<symbol id="stepicon" xmlns="http://www.w3.org/2000/svg"  viewBox="0 0 46 48" fill="none">
  <g opacity="0.2" clip-path="url(#clip0_73_747)">
    <path d="M10.21 28.3199C9.63475 28.3456 9.07107 28.4904 8.55467 28.7451C8.03827 28.9999 7.58039 29.3591 7.21 29.8C3.98 32.8 0.680001 36.4599 0.710001 41.1599C0.0700011 42.7899 -0.600011 45.2699 0.759989 46.6599C2.48999 48.4199 4.85996 46.41 6.16996 45.15C7.48293 43.8215 8.62817 42.3371 9.58 40.7299C10.7046 39.0436 11.6624 37.2518 12.44 35.3799C13.1 33.6399 13.49 31.38 12.44 29.71C12.2064 29.3169 11.8821 28.9855 11.4941 28.7437C11.1061 28.5018 10.6657 28.3565 10.21 28.3199Z" fill="#FCC85A"/>
    <path d="M45.19 1.44C45.1558 1.39145 45.1191 1.34474 45.08 1.30001C44.5863 0.642401 43.8668 0.190698 43.0599 0.0319166C42.2531 -0.126864 41.4161 0.0184905 40.71 0.439998C40.0681 0.758406 39.4556 1.13321 38.88 1.55999C38.6899 1.55953 38.502 1.60043 38.3294 1.67987C38.1567 1.7593 38.0033 1.87538 37.88 2.02001L36.88 3.27999C36.0504 4.17447 35.3164 5.15312 34.69 6.20001C32.22 9.60001 29.88 13.1 27.69 16.71C26.54 18.63 24.3 21.65 26.25 23.81C28.07 25.81 31.34 24.28 33.36 23.39C35.796 22.2726 37.8383 20.4464 39.22 18.15C40.7381 15.8289 42.1139 13.4178 43.34 10.93C44.42 8.71002 45.78 5.98 45.7 3.44C45.7079 2.7402 45.532 2.05057 45.19 1.44ZM31.5 17.01L31.2 17.35C31.27 17.23 31.34 17.1 31.42 16.98L31.5 17.01ZM29 21.5H28.9V21.32C28.96 21.39 28.98 21.45 29 21.5ZM33.67 19.61C34.26 19.09 34.83 18.61 35.39 18.03C34.8971 18.638 34.3175 19.1703 33.67 19.61ZM39.43 11.54C39.34 11.3622 39.2218 11.2001 39.08 11.06L40.13 9.52001C40.48 9.08002 40.82 8.64 41.13 8.19L40.6 9.29C40.26 10.06 39.84 10.8 39.44 11.54H39.43Z" fill="#FCC85A"/>
  </g>
  <defs>
    <clipPath id="clip0_73_747">
      <rect width="45.79" height="47.36" fill="white"/>
    </clipPath>
  </defs>
</symbol>
<!---->
<symbol id="planticon" xmlns="http://www.w3.org/2000/svg"  viewBox="0 0 43 42" fill="none">
  <g opacity="0.2" clip-path="url(#clip0_81_110)">
    <path d="M33.3236 10.8569C31.6357 11.5737 30.5715 13.7036 29.8847 15.2809C29.1978 16.8583 28.9504 18.6931 28.3929 20.3675C25.6591 16.6704 22.0948 13.4701 17.6763 11.9899C16.5398 11.5601 15.3399 11.3219 14.1254 11.2848C13.5031 11.2926 12.9019 11.5115 12.4203 11.9057C11.9387 12.2998 11.6052 12.8459 11.4744 13.4543C10.8244 15.775 12.0861 18.1043 13.1797 20.0634C14.6055 22.6331 16.1694 25.1237 17.8643 27.5243C16.5655 27.4207 15.2553 27.3051 13.9577 27.2909C12.6602 27.2766 10.97 27.5348 10.0827 28.7876C8.26278 31.3815 10.8224 35.0541 12.5473 36.9538C13.6609 38.209 14.8957 39.3512 16.2338 40.3636C17.7032 41.4243 18.9027 39.99 19.9213 39.0363C22.7259 36.3894 25.4798 33.7047 28.183 30.9823C30.7347 28.3928 33.232 25.7564 35.675 23.073C35.7775 23.0424 35.8695 22.9841 35.9411 22.9046C36.0126 22.8251 36.0609 22.7274 36.0806 22.6223L37.0437 21.5698C37.1575 21.4448 37.2224 21.2829 37.2266 21.1139C37.2308 20.9449 37.1739 20.78 37.0664 20.6495C37.1274 20.5496 37.1603 20.4351 37.1615 20.318C37.2246 18.1083 37.0803 15.8975 36.7307 13.7147C36.4897 11.9706 35.3262 10.0094 33.3236 10.8569ZM34.7244 22.0818L34.5646 22.2326C34.5028 21.2787 34.441 20.3248 34.4067 19.3601C34.502 20.2774 34.6078 21.1846 34.7244 22.0818ZM33.2521 22.8669C33.2617 22.9638 33.2969 23.0564 33.354 23.1352C33.4112 23.214 33.4882 23.2762 33.5773 23.3155L32.9071 24.0461C32.8122 22.6249 32.7786 21.2366 32.7689 19.8257C32.9844 20.83 33.1457 21.8452 33.2521 22.8669ZM14.865 34.7513C15.8667 35.5886 16.8295 36.4753 17.7532 37.4113C17.7625 37.4251 17.7739 37.4372 17.7871 37.4473C17.7592 37.4737 17.7312 37.5001 17.7072 37.5227C17.2971 37.7285 16.9655 37.3691 16.6778 37.1043C15.9511 36.4224 15.339 35.6279 14.865 34.7513ZM15.8034 33.3445C16.9427 34.1728 18.0793 35.0036 19.2133 35.837L18.7023 36.4401L15.8034 33.3445ZM19.8936 28.1698C20.4409 28.9979 20.9878 29.8414 21.4521 30.7176C20.2746 30.1369 19.1119 29.5346 17.9641 28.9107C18.3906 28.9463 18.801 28.9971 19.2359 29.0096C19.3425 29.0192 19.4498 29.002 19.5481 28.9595C19.6464 28.917 19.7325 28.8507 19.7986 28.7665C19.8647 28.6824 19.9088 28.583 19.9268 28.4775C19.9448 28.372 19.9361 28.2636 19.9016 28.1623L19.8936 28.1698ZM21.2563 33.4556L20.4519 34.396L20.2428 34.6387C19.1205 33.3214 17.9156 32.0769 16.6354 30.9125C18.222 31.6755 19.7671 32.5218 21.2643 33.448L21.2563 33.4556ZM22.7505 30.3005C22.8448 30.4004 22.9428 30.5042 23.0371 30.6041C23.1798 30.7266 23.3652 30.7879 23.5529 30.7745L23.1749 31.2143C23.0598 30.8923 22.913 30.5928 22.7505 30.3005ZM24.1563 29.7971C22.4158 27.3606 20.7216 24.8932 19.0736 22.3946C18.798 21.9825 18.5341 21.5668 18.2662 21.1549C20.4991 23.6815 22.8827 26.0709 25.404 28.3098C25.4591 28.3537 25.5194 28.3907 25.5835 28.4199L24.2361 29.9937C24.2242 29.922 24.1999 29.8529 24.1643 29.7895L24.1563 29.7971ZM21.5083 20.4443C23.3387 22.5491 25.1652 24.6551 26.9877 26.7623L26.4408 27.3993C24.8651 25.0415 23.2067 22.724 21.5163 20.4367L21.5083 20.4443ZM24.2931 21.3059L22.2356 18.8137C21.8865 18.3878 21.4489 17.9321 21.1054 17.448C21.5084 17.7551 21.8733 18.1737 22.1421 18.4185C22.9668 19.1963 23.7792 19.9931 24.568 20.8048C25.9227 22.2002 27.2098 23.652 28.4409 25.1566C28.3549 25.1969 28.2789 25.2558 28.2183 25.3289L27.9087 25.6892L24.2931 21.3059ZM29.2817 21.8855C29.521 21.3099 29.7199 20.7183 29.877 20.1151C29.9196 21.0403 30.011 21.9626 30.1507 22.8783C29.8619 22.5163 29.5722 22.1853 29.2784 21.866L29.2817 21.8855ZM31.8833 24.9142C31.9382 24.946 31.996 24.9724 32.0559 24.993L31.9201 25.1212L31.8833 24.9142ZM17.3956 13.3652C19.4312 14.0846 21.3206 15.1647 22.9733 16.5539C24.3 17.6636 25.5102 18.9056 26.5851 20.2608C26.5169 20.3317 26.469 20.4196 26.4464 20.5153C26.4238 20.6111 26.4274 20.7111 26.4566 20.805C25.9137 20.2297 25.3745 19.6584 24.8315 19.0831C23.9627 18.2185 23.0904 17.3423 22.1572 16.5536C21.4629 15.97 20.6791 15.5237 19.7514 15.7573C19.6224 15.7922 19.5067 15.8646 19.4189 15.9653C18.3341 14.7774 17.0982 13.7369 15.7428 12.8705C16.3008 12.9991 16.8514 13.1578 17.3923 13.3457L17.3956 13.3652ZM15.3908 21.1417C14.3393 19.3392 12.8838 17.2608 12.7131 15.1029C12.6196 14.0354 12.9163 12.645 14.2181 12.6476C14.5521 12.6525 14.8852 12.6842 15.2141 12.7425C15.1037 12.7812 15.0041 12.8456 14.9236 12.9304C14.8431 13.0153 14.7839 13.1181 14.751 13.2303C14.7182 13.3426 14.7125 13.461 14.7345 13.5759C14.7566 13.6908 14.8057 13.7987 14.8777 13.8908C17.0048 16.6649 19.1279 19.4427 21.2028 22.2736C18.9564 19.8985 16.8477 17.3969 14.887 14.781C14.5017 14.2608 13.7545 14.7017 13.7042 15.2326C13.5866 16.4766 14.3643 17.5329 15.0117 18.5309C15.2569 18.9188 15.5137 19.311 15.7668 19.6991C15.6482 19.6873 15.5287 19.7093 15.4221 19.7625C15.3155 19.8157 15.2261 19.898 15.1643 19.9998C15.1024 20.1016 15.0706 20.2188 15.0725 20.3379C15.0744 20.4571 15.11 20.5732 15.1751 20.673C16.4014 22.6127 17.6238 24.5535 18.8423 26.4956C17.6052 24.7473 16.4548 22.9627 15.3908 21.1417ZM16.0487 28.762C16.0069 28.8636 15.9917 28.9742 16.0044 29.0833C15.7167 28.9545 15.4327 28.8297 15.141 28.7047L16.0487 28.762ZM12.49 34.636C11.7207 33.5567 10.9477 32.2014 10.9134 30.8363C10.8765 30.3908 10.9998 29.9467 11.261 29.5838C11.5222 29.221 11.9043 28.9632 12.3385 28.8568C12.3686 28.9056 12.4084 28.9478 12.4554 28.9806L13.7065 30.0661C13.364 29.8152 13.0215 29.5644 12.6712 29.3133C12.169 28.9413 11.5537 29.5219 11.6509 30.0571C11.8439 30.8515 12.2502 31.5782 12.8259 32.1585C12.7466 32.2363 12.6883 32.333 12.6566 32.4395C12.625 32.546 12.621 32.6588 12.6451 32.7673C13.1426 34.7435 14.1774 36.5435 15.6347 37.968L15.5103 37.8361C14.3887 36.8839 13.3758 35.8107 12.49 34.636ZM17.2899 39.3216C16.9882 39.274 16.6275 38.8439 16.3999 38.6507C16.3057 38.5509 16.2114 38.451 16.0892 38.3775C16.3269 38.6079 16.6166 38.7779 16.9337 38.8729C17.2509 38.968 17.5862 38.9854 17.9115 38.9237C18.0291 38.8923 18.1435 38.8501 18.2533 38.7976C17.9181 39.0988 17.5759 39.3765 17.2779 39.3329L17.2899 39.3216ZM22.4634 34.7185C21.5924 35.5405 20.7175 36.3662 19.8425 37.192L19.9943 37.0487L20.5171 36.442C20.62 36.3975 20.7113 36.3298 20.7838 36.2443C20.8564 36.1588 20.9083 36.0577 20.9355 35.9489L28.1228 27.5568C28.2649 27.5153 28.392 27.4333 28.4884 27.3209C28.5848 27.2084 28.6464 27.0704 28.6657 26.9235L29.1725 26.3319C29.2437 26.2456 29.2956 26.1451 29.3248 26.0371C29.4497 26.0494 29.5757 26.0296 29.6908 25.9794C29.8059 25.9293 29.9062 25.8506 29.9823 25.7508C30.0584 25.651 30.1077 25.5334 30.1256 25.4091C30.1434 25.2849 30.1292 25.1581 30.0842 25.0409C30.2969 25.3463 30.5173 25.6519 30.7145 25.9568C30.7642 26.0417 30.8325 26.1141 30.9143 26.1686C28.1458 29.0886 25.3249 31.9423 22.4514 34.7298L22.4634 34.7185ZM35.8355 19.2731C35.7857 18.8442 35.7599 18.3927 35.6786 17.9784C35.5929 16.8205 35.5385 15.6556 35.5154 14.4839L35.5398 14.7178C35.7393 16.228 35.8381 17.7498 35.8355 19.2731ZM35.3795 13.5396C35.2992 13.4303 35.1906 13.345 35.0655 13.2928C34.9403 13.2406 34.8033 13.2234 34.6692 13.2431C34.5854 13.1627 34.4823 13.1053 34.3698 13.0764C34.2574 13.0475 34.1394 13.048 34.0272 13.078C33.915 13.1079 33.8125 13.1663 33.7294 13.2474C33.6463 13.3285 33.5856 13.4297 33.553 13.5411C33.3642 14.3862 33.2342 15.2433 33.164 16.1064C33.0388 15.7336 32.9175 15.357 32.7615 14.9755C32.5012 14.2996 31.5 14.6554 31.4665 15.2762C31.4123 16.6114 31.3932 17.9438 31.3934 19.2807C31.3331 19.0807 31.273 18.873 31.2241 18.6851C31.1689 18.5098 31.0482 18.3625 30.8872 18.2739C30.7262 18.1852 30.5372 18.1621 30.3596 18.2093C30.4384 17.9007 30.5291 17.5885 30.6113 17.2994C31.0684 15.5819 31.9252 13.9967 33.1118 12.6734C33.5792 12.2323 34.2501 11.7426 34.817 12.2953C35.1252 12.6442 35.3212 13.0777 35.3795 13.5396Z" fill="#C472C3"/>
  </g>
  <defs>
    <clipPath id="clip0_81_110">
      <rect width="34.4115" height="24.8912" fill="white" transform="translate(0 23.6189) rotate(-43.3431)"/>
    </clipPath>
  </defs>
</symbol>
<!---->
<symbol id="skillreversering" xmlns="http://www.w3.org/2000/svg"  viewBox="0 0 30 41" fill="none">
  <g opacity="0.2" clip-path="url(#clip0_81_114)">
    <path d="M26.6998 27.5179C26.1151 26.7279 25.3739 26.0685 24.5238 25.582C23.6737 25.0955 22.7336 24.7927 21.7638 24.693C21.2185 22.1553 19.7993 19.8864 17.7586 18.2895C17.2556 17.9062 16.7187 17.5705 16.155 17.2865C16.5714 14.4839 15.6062 11.3694 14.1266 9.03829C12.4078 6.32058 9.52098 4.18335 6.26609 3.93703C5.53309 3.87798 4.768 4.03906 4.38498 4.71949C4.33611 4.80527 4.31005 4.90244 4.30932 5.00171C4.30858 5.10098 4.33319 5.19901 4.38078 5.28639C4.42836 5.37377 4.49733 5.44757 4.58107 5.5007C4.6648 5.55383 4.76049 5.58452 4.85896 5.58982C6.00079 5.71073 7.12406 5.97718 8.20176 6.38281C9.27509 6.85325 10.2716 7.48673 11.1563 8.26096C12.9 9.73082 14.348 11.4591 14.7302 13.7701C14.9261 14.766 15.0144 15.7794 14.9935 16.7925C13.1678 16.0988 11.1795 15.9861 9.29864 16.4696C7.90206 16.8595 6.53825 17.8773 6.47245 19.4555C6.41805 20.9441 7.69723 21.9413 8.99972 22.2692C10.3456 22.5944 11.7579 22.4306 12.9868 21.8068C14.2158 21.183 15.1822 20.1395 15.7151 18.8608C17.2541 19.774 18.3579 21.3267 19.2114 22.9151C19.5189 23.4871 19.7767 24.0844 19.9819 24.7004C19.678 24.7374 19.3769 24.7946 19.0808 24.8717C17.6947 25.2383 16.2133 26.0856 15.7559 27.5402C15.3565 28.8062 16.0211 30.196 17.1232 30.8684C17.6999 31.1942 18.3608 31.3335 19.0155 31.2672C19.6702 31.2009 20.2867 30.9322 20.7808 30.498C21.9966 29.5034 22.1203 27.8574 22.0065 26.3797C22.0017 26.3016 21.9895 26.2233 21.9817 26.1465C23.3054 26.3384 24.5058 27.0462 25.3239 28.1173C26.6918 30.0484 26.0342 32.6262 25.4839 34.7103C25.4637 34.782 25.4583 34.8572 25.4679 34.9314C25.4774 35.0055 25.5018 35.0771 25.5394 35.1418C25.5771 35.2065 25.6273 35.2629 25.6871 35.3077C25.7468 35.3525 25.8149 35.3847 25.8871 35.4024C26.0135 35.4722 26.1603 35.494 26.3005 35.4639C26.4407 35.4338 26.5651 35.3537 26.6507 35.2383C27.4548 34.1236 27.8915 32.7809 27.9003 31.3972C27.9091 30.0134 27.4895 28.6574 26.6998 27.5179ZM13.0346 19.8536C12.1462 20.3917 11.0383 20.8411 9.97852 20.7335C9.19466 20.6512 8.23541 20.0056 8.37886 19.0887C8.54643 18.0031 10.3953 18.0149 11.1939 17.9767C12.2394 17.9041 13.2912 17.9971 14.311 18.2524C14.3984 18.2764 14.4813 18.3062 14.5672 18.3346C14.194 18.9651 13.6665 19.4879 13.0346 19.8536ZM19.8266 29.1223C19.6612 29.3032 19.4521 29.4378 19.2193 29.5135C18.9866 29.5891 18.7379 29.6033 18.4971 29.5545C18.2563 29.5057 18.0313 29.3956 17.8437 29.2348C17.6561 29.074 17.5121 28.8678 17.4255 28.6359C17.0268 27.4846 18.1917 26.5876 19.1368 26.2965C19.5286 26.1763 19.9324 26.0984 20.3413 26.0643C20.4996 27.0454 20.509 28.3499 19.8266 29.1223Z" fill="#C472C3"/>
  </g>
  <defs>
    <clipPath id="clip0_81_114">
      <rect width="37.478" height="15.1227" fill="white" transform="translate(13.6432) rotate(64.4448)"/>
    </clipPath>
  </defs>
</symbol>
<!---->
<symbol id="skillringup" xmlns="http://www.w3.org/2000/svg" viewBox="0 0 67 66" fill="none">
  <g opacity="0.3" clip-path="url(#clip0_81_116)">
    <path d="M52.7002 10.827C53.4738 9.74758 53.9973 8.30606 54.7773 7.20841C56.2732 11.9823 56.4808 17.481 53.3279 21.8011C52.4895 22.9542 51.4236 23.9256 50.1988 24.6528C48.974 25.38 47.6174 25.8468 46.2165 26.0233C46.5452 23.2063 46.3637 20.1011 44.8463 17.8622C43.3288 15.6233 39.8372 14.6169 37.7647 16.8853C35.3981 19.4781 36.9315 23.497 39.1492 25.4783C40.5541 26.7126 42.2954 27.5076 44.166 27.7689C43.2219 32.2479 40.4752 36.3703 36.015 38.0871C35.6233 38.2402 35.2233 38.3695 34.8172 38.4744C35.6835 35.4529 35.9694 31.9479 34.0708 29.3415C32.3758 27.0086 29.2583 25.9742 26.6691 27.7042C25.5787 28.4719 24.7313 29.5389 24.2336 30.7707C23.7359 32.0026 23.6104 33.3441 23.8727 34.6261C24.5781 37.6823 27.5078 39.6944 30.4606 40.2513C31.1289 40.3784 31.8094 40.442 32.4931 40.4413C30.8044 44.4677 27.7743 48.095 23.9179 50.0673C23.1266 50.4732 22.2937 50.788 21.4357 51.0057C21.7505 50.326 22.0102 49.6235 22.2124 48.905C23.0712 45.8594 22.6934 42.4221 20.1913 40.3413C17.9882 38.5114 14.9172 38.6231 12.8172 40.6818C7.86115 45.5495 12.5566 52.2757 18.362 52.738C18.5655 52.7552 18.7816 52.7522 18.975 52.7674C17.5865 54.7049 15.7743 56.305 13.6821 57.4406C11.5898 58.5763 9.27508 59.2164 6.92127 59.3102C6.82027 59.3198 6.72549 59.3668 6.65552 59.4418C6.58556 59.5168 6.54549 59.6145 6.54318 59.7157C6.54087 59.8169 6.57649 59.9142 6.64304 59.9886C6.70959 60.0629 6.80226 60.109 6.90284 60.1176C12.2645 60.1199 17.5972 57.2343 20.4929 52.6894C26.7352 51.9609 31.9399 46.0203 34.184 40.2999C39.9945 39.3878 44.6616 33.912 45.8563 28.1805L45.918 27.8674C46.952 27.8407 47.9797 27.6504 48.963 27.3037C57.4808 24.2614 58.9689 14.1651 56.69 6.72285C56.8153 6.80499 56.9425 6.89319 57.0798 6.97931C57.874 7.47396 58.733 7.96023 59.3981 8.62505C60.6061 9.83013 62.2662 7.50115 60.808 6.82201C59.4416 6.19086 58.2286 5.2078 56.8506 4.55249C56.2275 4.2568 55.5805 4.03591 54.8914 4.3339C53.9944 4.71767 53.6248 5.7871 53.237 6.59021C52.6116 7.82068 52.0498 9.08111 51.554 10.3664C51.3056 11.08 52.3102 11.3759 52.7002 10.827ZM15.4818 50.4169C13.218 49.2149 11.5749 46.7323 12.3784 44.0765C13.236 41.261 16.2852 39.45 18.899 41.1529C21.6878 42.9679 21.6475 46.7684 20.599 49.6333C20.396 50.1874 20.1557 50.728 19.8797 51.2513C18.3522 51.4044 16.8251 51.1147 15.4818 50.4169ZM28.3456 37.7468C26.1591 36.5162 24.7464 34.1113 25.6604 31.5679C26.5744 29.0246 29.2446 27.5464 31.6061 29.1577C34.0906 30.8611 34.1463 34.2595 33.5841 36.9546C33.4574 37.5526 33.2965 38.1447 33.1114 38.7369C31.4485 38.8882 29.7916 38.5451 28.3495 37.7508L28.3456 37.7468ZM44.5268 24.7822C44.5107 25.1927 44.4805 25.6025 44.4362 26.0118C42.6833 25.8138 41.0754 24.9967 39.9003 23.7067C39.0469 22.8356 38.5185 21.6955 38.3995 20.4686C38.2818 18.6387 39.4065 16.95 41.4178 17.4489C44.4089 18.1852 44.6182 22.2812 44.5308 24.7862L44.5268 24.7822Z" fill="#C472C3"/>
  </g>
  <defs>
    <clipPath id="clip0_81_116">
      <rect width="76" height="17" fill="white" transform="translate(0 53.2547) rotate(-44.4848)"/>
    </clipPath>
  </defs>
</symbol>
<!---->
<svg id="melonicon" xmlns="http://www.w3.org/2000/svg" viewBox="0 0 59 51" fill="none">
  <g opacity="0.2" clip-path="url(#clip0_81_112)">
    <path d="M0.812367 32.2437C1.48882 35.1288 2.42475 38.0385 3.87033 40.6376C5.24018 43.1224 7.20124 45.2347 9.5816 46.7892C11.9261 48.2749 14.5166 49.335 17.2327 49.9204C20.3188 50.5664 23.4603 50.9146 26.6135 50.96C29.7517 51.0554 32.9394 51.0031 36.019 50.3295C37.3823 50.0344 38.7122 49.6026 39.9882 49.0407C42.7342 48.1641 45.1991 46.6662 47.4446 44.8761C49.7154 43.072 51.8191 41.0688 53.7304 38.8905C55.7087 36.7242 57.1849 34.1517 58.0548 31.3548C58.8329 28.5314 59.1459 25.6011 58.9815 22.6779C58.8579 19.6021 58.3328 16.5017 57.1096 13.6504C56.149 11.4402 54.8206 9.40729 53.1806 7.63723C49.8334 4.01771 45.441 1.52128 40.609 0.492119C37.7086 -0.123043 34.7402 -0.0892087 31.8058 0.184538C28.7334 0.464504 25.6877 0.983852 22.6968 1.73782C21.313 2.09154 19.9416 2.50985 18.5948 2.9989C18.5382 2.92019 18.4607 2.8587 18.371 2.82128C18.2813 2.78386 18.1829 2.77198 18.0868 2.78697C17.9907 2.80196 17.9007 2.84323 17.8268 2.90617C17.7529 2.96912 17.698 3.05127 17.6682 3.14347C17.6466 3.22036 17.6311 3.29725 17.6095 3.37107C15.8601 4.05627 14.1682 4.87908 12.55 5.83172C12.4826 5.83824 12.4175 5.85991 12.3598 5.89507C12.302 5.93023 12.2529 5.97798 12.2164 6.03473C10.4843 7.07157 8.86884 8.29042 7.39778 9.67033C3.69117 13.1768 0.942094 17.7597 0.210038 22.841C-0.24711 25.9721 0.0895774 29.1802 0.812367 32.2437ZM40.2075 47.8104C40.1097 47.8015 40.0114 47.8196 39.9233 47.8627C39.7658 47.9365 39.6144 48.0011 39.4476 48.0687L39.3797 48.0995C36.9849 49.0898 34.4383 49.667 31.8491 49.8066C32.5471 48.1702 33.9649 47.0384 35.5958 46.3924C35.6632 46.3814 35.7274 46.3562 35.7843 46.3186C36.0967 46.1994 36.4153 46.0967 36.7387 46.011C36.8409 46.0658 36.9594 46.0823 37.0728 46.0575C37.1861 46.0326 37.2868 45.9681 37.3565 45.8757C38.5457 45.6419 40.0129 45.4851 41.2855 45.7834C41.3335 45.8052 41.3845 45.8197 41.4368 45.8265C41.9813 45.9644 42.4879 46.2219 42.9195 46.5801C42.0498 47.0614 41.1429 47.4728 40.2075 47.8104ZM36.4144 1.09805C46.2276 1.40564 55.2563 8.2893 57.3073 17.9781C57.9078 20.8982 58.066 23.8913 57.7768 26.858C57.5173 29.6446 56.7977 32.3944 55.3706 34.8274C53.9436 37.2603 52.0408 39.2319 50.0393 41.1266C48.1791 42.9631 46.1314 44.6012 43.9295 46.0141C43.5206 45.5952 43.0296 45.2644 42.487 45.0421C45.2917 42.3447 48.084 39.5703 50.1319 36.2484C52.2354 32.8312 53.3536 29.0479 53.0416 25.0248C52.4764 17.7536 48.6307 10.347 42.3511 6.40075C40.3526 5.14274 38.1318 4.30612 35.9325 3.46642L30.5363 1.40871C32.4847 1.15488 34.4499 1.05101 36.4144 1.09805ZM27.3919 1.87315L28.2907 1.72552L34.4684 4.08158C36.436 4.83208 38.4438 5.53029 40.3187 6.4961C43.4451 8.1409 46.0882 10.5672 47.9883 13.5366C49.9203 16.5329 51.2027 19.8979 51.7536 23.4161C52.1072 25.4175 52.1072 27.4649 51.7536 29.4662C51.3808 31.2754 50.7297 33.0163 49.823 34.6275C47.6856 38.5153 44.4732 41.6372 41.2948 44.6823C40.2329 44.5065 39.1499 44.4982 38.0854 44.6577C40.9519 39.2596 40.7635 32.8896 40.0314 26.9533C39.599 23.4284 39.2716 19.7498 37.9928 16.4064C36.7 13.179 34.7345 10.2615 32.2259 7.84638C30.8887 6.52106 29.4625 5.28789 27.9571 4.15541C26.8752 3.35205 25.6387 2.77932 24.3246 2.47294C25.3357 2.24533 26.3581 2.0454 27.3919 1.87315ZM18.5176 4.18924L18.845 4.06621C20.0806 3.61714 21.3161 3.23574 22.5702 2.90355C22.5828 3.02451 22.6377 3.13723 22.7251 3.22209C22.8126 3.30695 22.9272 3.35858 23.0489 3.368C26.2459 3.70327 28.6089 5.98859 30.8699 8.07707C33.2863 10.302 35.2349 12.9827 36.6028 15.9634C38.0051 19.0854 38.3325 22.5641 38.765 25.9168C39.2005 29.2048 39.5526 32.5267 39.3117 35.8485C39.0862 39.0197 38.2986 42.1755 36.646 44.916C36.2617 45.0048 35.8831 45.1168 35.5124 45.2513C29.8846 42.8491 25.7455 38.0601 22.7555 32.8681C21.9184 31.4132 21.1493 29.9153 20.4358 28.3959C19.6793 26.881 19.1109 25.2801 18.7431 23.6284C18.4342 22.0382 18.2551 20.4111 18.0728 18.8024C17.8906 17.1938 17.7454 15.6682 17.6713 14.0934C17.5323 10.7715 17.6991 7.42192 18.5176 4.18924ZM12.9948 6.83752C14.3676 6.01944 15.7972 5.29993 17.2728 4.68445C15.96 10.5992 16.5747 16.8616 17.4921 22.7856C18.0265 26.2213 19.5833 29.3647 21.242 32.3913C22.8014 35.3329 24.7378 38.0604 27.0027 40.5053C29.0579 42.7005 31.4925 44.5102 34.1904 45.848C33.4369 46.2511 32.752 46.7702 32.161 47.3859C30.3441 47.3267 28.5479 46.982 26.839 46.3647C25.1092 45.7865 23.3856 45.1498 21.7053 44.4485C19.9581 43.7149 18.3001 42.7862 16.7632 41.6803C15.2929 40.6284 13.7608 39.5611 12.4728 38.2969C11.1322 36.9681 10.3106 35.3441 9.69279 33.5817C9.05867 31.7546 8.52251 29.8952 8.08659 28.0114C7.24025 24.3789 7.10434 20.7586 8.15146 17.1538C9.20476 13.4659 11.1044 10.1256 12.9948 6.83752ZM1.14288 27.2209C0.803102 21.992 2.55757 17.0246 5.83792 12.9553C7.3253 11.1213 9.05773 9.49861 10.987 8.13243C9.60013 10.5931 8.29973 13.1152 7.40397 15.7974C6.2122 19.3661 5.97478 23.1824 6.71514 26.8703C7.12516 28.8676 7.64801 30.8402 8.28119 32.7789C8.84027 34.5598 9.48893 36.3284 10.6194 37.8355C11.75 39.3427 13.3407 40.4838 14.8481 41.6126C16.3913 42.8199 18.0461 43.8786 19.7902 44.7746C21.7543 45.6893 23.7707 46.4884 25.8289 47.1675C27.5961 47.8393 29.4468 48.2687 31.3301 48.444C31.0521 48.8847 30.8271 49.3565 30.6599 49.8496C30.6603 49.8568 30.6603 49.864 30.6599 49.8712C27.7558 49.9749 24.848 49.8722 21.9586 49.5636C16.55 49.0099 10.882 47.3921 7.10125 43.2674C5.17999 41.1728 3.93828 38.5676 3.0209 35.907C2.01292 33.1068 1.38142 30.1861 1.14288 27.2209Z" fill="#C472C3"/>
  </g>
  <defs>
    <clipPath id="clip0_81_112">
      <rect width="59" height="51" fill="white"/>
    </clipPath>
  </defs>
</svg>
</svg>