<svg width="350" height="331" viewBox="0 0 350 331" fill="none" xmlns="http://www.w3.org/2000/svg">
<path fill-rule="evenodd" clip-rule="evenodd" d="M326.046 65.1349C315.439 57.6875 308.097 53.6993 297.28 53.0236C263.449 50.0849 246.704 63.0531 210.711 70.2101C164.37 79.8745 152.878 74.7245 110.293 70.6127C104.969 69.8248 100.366 69.8104 95.4103 69.4107C55.6244 65.5634 0.315853 80.8147 0 127.825C0.172283 137.153 1.50461 146.099 4.66887 156.971C7.73264 167.199 9.89766 177.556 22.035 185.012C30.4625 190.156 41.2101 192.362 50.2521 195.467C59.9258 198.699 69.8665 201.67 79.1152 208.214C88.0022 214.376 99.3614 224.774 105.388 234.375C117.816 253.968 119.091 297.278 160.694 313.271C218.214 335.329 232.232 287.723 277.252 271.281C293.789 265.082 322.313 259.181 332.394 236.474C339.119 222.059 335.794 212.084 335.544 204.286C335.51 199.941 339.07 205.324 335.909 194.449C334.608 189.846 334.823 172.858 336.742 165.197C337.87 160.473 339.998 156.263 342.565 150.907C353.028 130.758 351.004 115.165 345.316 93.5587C341.97 81.4099 337.755 73.7268 326.051 65.1292L326.046 65.1349Z" fill="white"/>
<path fill-rule="evenodd" clip-rule="evenodd" d="M112.533 309.269C125.345 308.892 133.52 307.702 142.499 301.83C171.06 284.117 176.677 263.914 200.989 236.917C232.025 201.799 244.18 199.076 280.377 177.105C285.066 174.577 288.724 171.86 292.887 169.24C326.709 148.721 361.556 103.861 334.037 66.3944C328.389 59.1023 322.046 52.7964 313.113 46.0535C304.646 39.7563 296.81 32.8265 282.78 34.106C273.055 35.0176 263.232 39.6384 254.23 42.5311C244.648 45.6998 235.012 49.2338 223.808 49.5213C213.123 49.9009 197.974 48.3884 187.522 44.3455C166.09 36.1706 139.495 2.58256 97.056 14.5502C38.4166 31.1357 55.4239 77.1888 29.4378 116.902C19.9881 131.609 0.856075 153.19 6.27725 177.168C9.45874 192.58 17.9896 198.521 22.7934 204.557C25.3892 207.981 19.3851 205.822 28.3151 212.573C32.068 215.455 41.9341 229.05 44.9376 236.261C46.8327 240.675 47.6338 245.276 48.7622 251.044C52.3687 273.219 63.1852 284.385 80.4623 298.147C90.2911 305.798 98.1702 309.392 112.533 309.277V309.269Z" fill="#DDACC6"/>
<path fill-rule="evenodd" clip-rule="evenodd" d="M311.572 77.3268C302.139 70.7047 295.61 67.1593 285.99 66.5583C255.907 63.9474 241.019 75.4779 209.014 81.8413C167.804 90.436 157.588 85.8554 119.72 82.1978C114.985 81.4991 110.893 81.4847 106.486 81.1311C71.1075 77.7093 21.9264 91.2727 21.645 133.073C21.7972 141.369 22.9831 149.325 25.7999 158.989C28.522 168.084 30.4458 177.295 41.2393 183.925C48.7337 188.5 58.2925 190.458 66.3295 193.222C74.9322 196.097 83.7703 198.737 91.9968 204.557C99.8988 210.037 109.998 219.282 115.358 227.819C126.41 245.244 127.542 283.755 164.539 297.977C215.685 317.59 228.149 275.258 268.185 260.636C282.886 255.124 308.252 249.876 317.217 229.685C323.198 216.869 320.237 207.998 320.019 201.066C319.985 197.201 323.152 201.989 320.341 192.319C319.184 188.221 319.376 173.116 321.082 166.305C322.087 162.106 323.979 158.363 326.262 153.598C335.565 135.681 333.764 121.816 328.705 102.602C325.73 91.8018 321.983 84.9669 311.574 77.324L311.572 77.3268Z" fill="#AAD59F"/>
<path d="M192.633 44.6704C192.633 47.1375 192.412 49.9008 192.142 52.3967C192.127 52.5204 192.116 52.6469 192.101 52.7705C192.044 53.2507 191.984 53.7166 191.932 54.1766C191.926 54.1996 191.926 54.2341 191.918 54.26C191.906 54.3578 191.9 54.4584 191.886 54.5562C191.51 57.4719 191.122 59.6946 191.048 60.1144C191.039 60.1662 191.022 60.2093 190.999 60.2553L189.428 63.2458L189.233 63.6282L188.558 63.7058L187.711 63.8094L187.49 63.8381L186.847 63.9157L186.422 63.9675L186.132 64.002L179.146 64.8589C178.818 64.8992 178.548 64.6145 178.606 64.2896C178.973 62.2595 180.214 55.7524 182.238 48.6558C182.462 47.8679 182.723 47.0714 183.013 46.2663C183.019 46.2404 183.031 46.2203 183.039 46.1858C183.045 46.18 183.045 46.1685 183.054 46.1599C183.059 46.1484 183.065 46.1283 183.071 46.1168C183.071 46.1024 183.077 46.088 183.085 46.0736C183.169 45.8378 183.263 45.602 183.347 45.3663C183.367 45.3289 183.381 45.2944 183.392 45.2541C183.413 45.2024 183.433 45.1564 183.45 45.1046C185.724 39.2444 189.241 33.3958 190.726 31.0322C190.97 30.6469 191.559 30.7734 191.622 31.2248C191.961 33.623 192.633 39.0604 192.633 44.6704Z" fill="#3D826C"/>
<path d="M174.382 69.2037C174.405 69.3618 174.351 69.5228 174.233 69.6321L171.878 71.8405L166.997 76.4095C166.759 76.6338 166.371 76.5648 166.228 76.2686C165.326 74.414 162.489 68.4244 159.951 61.4946C157.487 54.7747 156.657 45.602 156.425 42.2493C156.393 41.7978 156.941 41.5505 157.257 41.8783C158.946 43.6122 162.687 47.6062 165.992 52.135C166.058 52.2328 166.124 52.3306 166.196 52.4226C166.302 52.5721 166.411 52.7245 166.518 52.8769C166.518 52.8827 166.523 52.8827 166.523 52.8827C166.635 53.0408 166.739 53.2018 166.851 53.36C167.218 53.8977 167.58 54.444 167.939 55.0076C168.123 55.2923 168.301 55.5712 168.476 55.8616C171.232 60.3128 173.515 64.9451 173.814 65.549C173.834 65.595 173.848 65.641 173.854 65.6899L174.382 69.2037Z" fill="#3D826C"/>
<path d="M210.309 34.8076C210.636 34.5517 211.113 34.8019 211.093 35.2188C210.875 39.4169 209.841 55.3785 206.128 67.7889C202.039 81.4559 196.228 89.743 195.633 90.5682C195.599 90.6171 195.576 90.6688 195.559 90.7235L193.767 97.3658C193.695 97.6303 193.42 97.7856 193.155 97.7079L188.044 96.1552C187.912 96.1149 187.803 96.0229 187.746 95.8964C187.229 94.7865 184.665 89.2944 184.148 88.6302C184.056 88.5123 184.016 87.8308 184.022 86.764C184.059 81.5364 185.133 67.1132 185.228 65.8394C185.233 65.7761 185.248 65.7215 185.276 65.6669C185.377 65.457 185.67 64.8704 186.132 64.002C186.5 63.3061 186.976 62.4205 187.548 61.417C187.706 61.1265 187.875 60.8246 188.053 60.517C188.191 60.2725 188.334 60.031 188.478 59.7751C188.498 59.7406 188.518 59.709 188.538 59.6773C188.82 59.1914 189.121 58.6853 189.428 58.1591C190.189 56.8939 191.028 55.5396 191.932 54.1766C191.978 54.1018 192.024 54.0386 192.076 53.9667C192.26 53.6763 192.449 53.3887 192.647 53.1041C192.647 53.1041 192.647 53.0983 192.653 53.0983C193.655 51.6232 194.717 50.1366 195.826 48.7334C200.673 42.5598 207.88 36.7083 210.309 34.8076Z" fill="#3D826C"/>
<path d="M194.47 87.4225L189.48 89.326C189.351 89.3749 189.21 89.3691 189.089 89.3059C188.001 88.7452 182.606 85.979 181.799 85.7748C181.19 85.6167 175.568 77.344 171.878 71.8404C170.242 69.3877 168.984 67.4928 168.717 67.0931C168.682 67.0384 168.659 66.9867 168.648 66.9206C168.496 66.1528 167.439 60.6492 166.916 54.1881C166.902 54.0328 166.891 53.866 166.876 53.7021C166.871 53.59 166.856 53.4721 166.85 53.36C166.825 52.9603 166.793 52.5606 166.779 52.1523C166.773 52.043 166.767 51.9366 166.759 51.8245C166.667 50.2487 166.615 48.65 166.629 47.0685C166.692 39.1265 168.858 29.9826 169.595 27.087C169.696 26.6988 170.196 26.5896 170.445 26.903C172.326 29.2379 178.21 36.8233 182.896 45.8464C182.947 45.9499 182.999 46.0563 183.054 46.1598C183.361 46.7522 183.662 47.3532 183.95 47.9656C184.119 48.2992 184.277 48.6356 184.435 48.972C185.11 50.4126 185.753 51.8849 186.316 53.3743C186.505 53.866 186.689 54.3577 186.867 54.8437C186.867 54.8523 186.873 54.8581 186.873 54.8638C187.542 56.6955 188.119 58.5013 188.624 60.2553V60.261C188.727 60.6233 188.825 60.9741 188.923 61.3307V61.3364C189.107 61.9863 189.27 62.616 189.428 63.2457C191.722 72.3379 192.038 79.4172 192.067 80.2597C192.07 80.3201 192.081 80.3747 192.104 80.4265L194.746 86.7812C194.852 87.0343 194.729 87.3247 194.47 87.4225Z" fill="#3D826C"/>
<path d="M188.754 89.1334C188.676 94.4587 188.447 99.7869 188.223 105.104C188.202 105.523 187.548 105.523 187.568 105.104C187.798 99.6777 188.019 94.2344 188.099 88.7999C188.177 83.2416 188.099 77.6805 187.7 72.128C187.502 69.3791 187.215 66.6388 186.847 63.9158C186.02 57.955 184.777 52.0689 183.117 46.2835C183.106 46.226 183.086 46.1743 183.071 46.1168C183.071 46.1024 183.077 46.088 183.086 46.0736C183.169 45.8379 183.264 45.6021 183.347 45.3663C183.367 45.3289 183.381 45.2944 183.393 45.2541C183.413 45.2024 183.433 45.1564 183.45 45.1046C183.884 46.5481 184.283 47.9973 184.659 49.4609C185.877 54.1881 186.821 58.993 187.49 63.8381C187.838 66.3714 188.111 68.9248 188.309 71.4839C188.76 77.3585 188.846 83.2474 188.754 89.1334Z" fill="#4F332E"/>
<path d="M195.998 125.306H174.466C173.53 125.306 172.771 124.547 172.771 123.61V91.0053C172.771 90.065 173.53 89.3059 174.466 89.3059H195.998C196.934 89.3059 197.692 90.065 197.692 91.0053V123.61C197.692 124.547 196.934 125.306 195.998 125.306Z" fill="#FFE3D1"/>
<path d="M171.884 68.9047C170.673 63.6858 169.001 58.6135 166.877 53.7022C166.759 53.4348 166.641 53.1559 166.523 52.8827C166.635 53.0409 166.739 53.2019 166.851 53.3601C166.825 52.9604 166.793 52.5607 166.779 52.1524C166.773 52.0431 166.768 51.9367 166.759 51.8246C167.37 53.1559 167.945 54.5045 168.476 55.8617C170.147 60.0369 171.491 64.3356 172.513 68.7351C172.614 69.1463 171.976 69.3188 171.884 68.9047Z" fill="#4F332E"/>
<path d="M131.811 114.708L130.456 105.055L116.822 103.933V109.773C116.822 109.773 121.072 112.416 121.583 112.416C122.097 112.416 131.811 114.708 131.811 114.708Z" fill="#4F332E"/>
<path d="M109.613 55.1485C108.955 56.4741 109.389 57.3885 109.883 58.6307C110.043 59.0303 110.072 59.361 110.009 59.6486C104.352 59.1195 98.6956 58.5961 93.0275 58.2597C89.1942 58.0354 85.447 57.5294 81.6425 57.0118C79.2334 56.6926 76.8099 56.5258 74.4209 56.1118C74.3348 55.436 74.7138 54.7028 75.2278 54.1795C75.535 53.866 76.0433 53.6561 76.2873 53.2996C76.9765 52.3162 76.718 51.4938 76.586 50.4759C76.5027 49.8462 76.6003 49.2107 76.8157 48.6184C77.143 47.7327 77.7575 47.0139 78.4954 46.4416C79.5406 45.6394 80.4997 45.6336 80.8557 44.2304C81.3927 42.0825 80.7035 40.1214 81.9698 38.1259C83.7529 35.3281 87.0148 34.5258 90.0183 35.2792C90.0671 35.2303 90.113 35.19 90.1619 35.1469C90.3313 34.9801 90.5036 34.8191 90.6931 34.6725C93.4927 32.3203 97.9864 30.8079 101.001 32.7114C103.488 34.2814 103.433 35.9492 104.303 36.7226C105.294 37.5939 107.083 38.2294 107.904 39.2847C108.665 40.2479 109.458 41.4412 109.515 42.7007C109.578 43.917 108.783 45.0183 108.915 46.2404C109.041 47.3647 109.926 48.0461 110.428 48.9893C111.074 50.1826 111.2 51.6059 110.781 52.9028C110.511 53.7194 109.989 54.3894 109.613 55.1485Z" fill="#FFE3D1"/>
<path d="M97.0013 71.4982L89.148 73.2896L83.4282 71.6822L84.9874 65.27L85.019 65.1492L86.8394 57.6673L87.1524 56.3935L88.0799 52.5864L95.3531 60.5715L96.9553 62.3256L96.9697 65.2643V65.2758L96.9754 66.4662L97.0013 71.4982Z" fill="#FFA694"/>
<path d="M106.069 68.9448C106.069 68.9448 104.63 76.0932 103.134 76.2542C101.647 76.4124 90.2534 76.6223 89.0761 76.4124C87.9075 76.2024 82.2652 72.8411 82.2652 72.8411L77.3638 68.9448L84.9873 65.27L85.5558 64.994L86.2019 64.6805L91.0832 64.8789L91.3445 64.8933L96.5159 65.1032H96.5475L96.9696 65.2758L98.4627 65.8767L98.8274 66.0262L99.0915 66.1326L106.069 68.9448Z" fill="#FFA694"/>
<path d="M99.0917 66.1327L96.9755 66.4663C95.0632 66.6388 93.0274 66.0637 91.3333 65.0343C91.25 64.9826 91.1667 64.9308 91.0834 64.8791C90.2019 64.3241 89.4238 63.6397 88.8294 62.8892C88.2408 62.1531 87.7871 61.3221 87.4655 60.4451C87.3765 60.195 87.141 58.7227 86.9688 58.024C87.3076 57.8515 87.6148 57.6416 87.8704 57.3483C90.38 58.4036 92.8723 59.4588 95.3532 60.5716L96.9554 62.3257L96.9698 65.2644V65.2759L98.4629 65.8768L98.8276 66.0264L99.0917 66.1327Z" fill="#4F332E"/>
<path d="M104.407 46.9046C104.499 46.3784 104.579 45.8781 104.651 45.4122C105.11 42.4649 101.986 38.2581 99.9504 37.8268C93.6189 36.4811 85.0565 36.3891 83.7127 42.7294C83.4456 44.0033 83.4026 45.2685 83.5404 46.4905C83.4112 48.9289 84.4879 52.8683 85.8432 55.9306C88.4993 61.923 91.8387 63.9215 94.9656 63.7231C102.474 63.2486 103.318 53.2018 104.407 46.9046Z" fill="#FFA694"/>
<path d="M105.231 46.8528C105.294 46.7982 105.329 46.7148 105.32 46.6027C105.125 43.7847 105.027 40.1272 103.009 37.9447C100.849 35.6012 98.2306 34.6581 95.0462 34.9859C93.8 35.121 92.5653 35.4114 91.3737 35.8312C91.1526 35.9089 90.9287 35.9894 90.7047 36.0757C88.9589 36.7514 87.2935 37.66 85.7401 38.6434C84.7006 39.3048 83.644 39.8827 83.1702 41.0789C82.55 42.6547 82.4868 44.6502 82.3547 46.3381C82.3461 46.3295 82.3403 46.3295 82.3317 46.3295C81.8953 46.2403 81.7144 46.9103 82.1537 47.0081C86.946 48.0174 92.4821 46.0448 93.6881 41.1393C93.7426 40.915 93.7914 40.6879 93.8259 40.4492C93.9178 40.455 94.0154 40.4693 94.1073 40.4837C95.2214 40.6189 96.3269 40.8546 97.2974 41.3981C98.2995 41.9617 98.9054 42.9738 99.9017 43.5317C101.016 44.1557 102.325 44.0924 103.336 44.9637C104.777 46.2202 105.013 48.3049 105.217 50.0848C105.271 50.5219 105.969 50.5305 105.912 50.0848C105.779 48.9059 105.584 47.8161 105.231 46.8528Z" fill="#FFE3D1"/>
<path d="M87.4226 48.742C87.8878 50.9935 86.9201 53.0983 85.2633 53.4376C83.6094 53.7798 81.8923 52.2299 81.4272 49.9785C80.9649 47.7241 81.9297 45.6193 83.5865 45.28C85.2432 44.9378 86.9603 46.4877 87.4226 48.742Z" fill="#FFA694"/>
<path d="M93.0015 51.465C92.7717 52.2874 92.1659 52.8337 91.6519 52.69C91.1379 52.5462 90.9082 51.7612 91.1379 50.9388C91.3676 50.1164 91.9706 49.5672 92.4875 49.7139C93.0015 49.8577 93.2312 50.6427 93.0015 51.465Z" fill="#4F332E"/>
<path d="M100.57 51.8417C100.34 52.6641 99.7375 53.2133 99.2206 53.0695C98.7095 52.9229 98.4769 52.1408 98.7095 51.3184C98.9392 50.4932 99.5422 49.9439 100.056 50.0906C100.57 50.2344 100.8 51.0194 100.57 51.8417Z" fill="#4F332E"/>
<path d="M96.5191 52.5951C96.2693 52.227 95.7381 52.6756 95.9851 53.0465C96.2665 53.4606 96.2406 53.3916 96.4531 53.8488C96.6886 54.3577 96.6598 55.2434 95.8903 55.1887C95.4452 55.16 95.3763 55.853 95.8243 55.8817C96.5881 55.9364 97.2169 55.3814 97.2973 54.6165C97.3834 53.7769 97.0159 53.3341 96.5191 52.5951Z" fill="#4F332E"/>
<path d="M96.4959 57.0405C95.9044 58.2051 94.0409 57.9722 93.5528 56.8306C93.3747 56.4194 92.7287 56.684 92.9067 57.0952C93.6446 58.8176 96.272 59.016 97.1362 57.3166C97.3401 56.914 96.6969 56.6408 96.4959 57.0405Z" fill="#4F332E"/>
<path d="M93.6389 47.2871C93.4637 47.0685 93.2197 46.9046 92.9584 46.8097C92.5248 46.6516 92.0482 46.6688 91.6002 46.7637C91.2241 46.8442 90.8537 46.9823 90.5522 47.2209C90.1014 47.5803 89.6247 48.5062 90.4631 48.7305C90.713 48.7967 90.98 48.7478 91.2298 48.6845C91.4796 48.6213 91.7323 48.5407 91.9907 48.5436C92.2779 48.5494 92.5506 48.6586 92.832 48.7161C93.1134 48.7737 93.4322 48.7765 93.6561 48.5954C93.8973 48.4027 93.9576 48.0519 93.8801 47.7558C93.837 47.5803 93.7509 47.4222 93.6389 47.2871Z" fill="#FFE3D1"/>
<path d="M98.3104 48.2072C98.2157 48.4976 98.253 48.8542 98.477 49.0612C98.6895 49.2568 99.0082 49.274 99.2924 49.2366C99.5767 49.1964 99.8581 49.1072 100.145 49.1216C100.404 49.136 100.648 49.2309 100.895 49.3114C101.142 49.3919 101.403 49.4552 101.656 49.4063C102.508 49.2395 102.095 48.282 101.667 47.8967C101.383 47.6379 101.021 47.474 100.651 47.3705C100.211 47.244 99.7346 47.1979 99.2953 47.3245C99.0254 47.4021 98.7727 47.5516 98.5832 47.7558C98.4626 47.8852 98.3679 48.0376 98.3104 48.2072Z" fill="#FFE3D1"/>
<path d="M94.1069 40.4838C94.015 40.4694 93.9174 40.455 93.8255 40.4493C93.7911 40.6879 93.7422 40.9151 93.6877 41.1394C92.6913 39.4515 91.7007 37.7636 90.7043 36.0757C90.5234 35.768 90.3425 35.4546 90.1616 35.1469C90.331 34.9802 90.5033 34.8191 90.6928 34.6725C90.9225 35.0549 91.1436 35.446 91.3733 35.8313C92.2864 37.3783 93.1938 38.9368 94.1069 40.4838Z" fill="#4F332E"/>
<path d="M129.285 98.5763L117.865 104.172L115.706 126.572H67.0645L64.7416 114.411L44.0562 112.255C44.0562 112.255 51.2404 86.0969 59.7138 78.6524C65.1005 73.9108 71.7593 70.8082 75.8797 69.1749C76.1295 69.0714 76.3678 68.9823 76.5889 68.8931C78.5415 68.1513 79.7676 67.7832 79.7676 67.7832C79.7676 67.7832 85.6137 71.4523 93.0333 71.3746C100.444 71.2941 103.947 68.0938 103.947 68.0938C103.947 68.0938 105.314 68.4331 107.149 68.9679C107.393 69.0398 107.64 69.1088 107.896 69.1922C110.939 70.1037 114.836 71.4465 116.185 72.6571C118.505 74.7303 129.285 98.5763 129.285 98.5763Z" fill="#FFD18D"/>
<path d="M115.706 112.761L117.368 109.293C117.368 109.293 125.77 107.985 130.404 112.255C135.036 116.522 127.289 123.187 127.289 123.187C127.289 123.187 118.864 123.446 118.204 123.409C117.543 123.374 115.706 112.761 115.706 112.761Z" fill="#4F332E"/>
<path d="M111.151 117.241C111.123 117.04 109.477 116.554 109.242 116.473C108.51 116.226 107.686 115.978 106.882 116.019C105.061 116.111 105.107 117.986 106.052 118.92C106.62 119.487 107.413 119.878 108.197 120.182C111.786 121.586 111.154 117.249 111.151 117.241Z" fill="#4F332E"/>
<path d="M89.076 116.416C89.1076 116.211 90.7529 115.725 90.9855 115.648C91.7206 115.398 92.5447 115.15 93.3458 115.194C95.1691 115.286 95.1232 117.16 94.1785 118.095C93.6071 118.658 92.8174 119.049 92.0335 119.357C88.4443 120.76 89.076 116.424 89.076 116.416Z" fill="#4F332E"/>
<path d="M122.531 123.774C122.479 123.725 121.503 123.642 120.076 123.538C119.872 123.524 119.653 123.506 119.43 123.495C118.447 123.423 117.302 123.354 116.139 123.282C115.924 123.271 115.711 123.256 115.493 123.245C114.339 123.173 113.176 123.104 112.139 123.046C111.915 123.032 111.705 123.021 111.493 123.006C111.381 123 111.269 122.995 111.157 122.989C109.667 122.903 108.587 121.54 108.843 120.067C109.196 118.037 109.733 115.452 110.33 114.334C111.105 112.887 112.452 113.31 113.118 113.638C113.354 113.753 113.506 113.859 113.506 113.859C113.506 113.859 113.578 113.31 113.916 112.761C114.229 112.24 114.784 111.737 115.748 111.711C116.957 111.671 117.431 112.485 117.609 113.123V113.132C117.724 113.534 117.724 113.859 117.724 113.859C117.724 113.859 117.89 113.624 118.203 113.394C118.6 113.1 119.22 112.824 120.032 113.06C120.997 113.35 121.078 114.823 121.035 115.76V115.774C121.009 116.24 120.951 116.574 120.951 116.574C120.951 116.574 121.207 116.384 121.583 116.28C122.031 116.154 122.651 116.154 123.194 116.758C124.179 117.868 122.729 123.961 122.531 123.774Z" fill="#FFA694"/>
<path d="M86.3114 111.723C87.8275 111.481 91.1841 114.693 92.1001 116.654C93.0189 118.615 92.9012 122.934 92.9012 122.934H82.0359L73.5308 124.895H47.0107L49.4055 112.335L64.7415 114.414L65.3474 117.583C65.3474 117.583 84.7924 111.962 86.3114 111.723Z" fill="#FFA694"/>
<path d="M90.3027 123.509C90.1419 123.509 90.0041 123.386 89.9868 123.222C89.984 123.199 89.7169 120.723 89.2001 118.957C88.7005 117.261 86.4924 115.455 86.4694 115.435C86.3316 115.326 86.3115 115.124 86.4206 114.986C86.5326 114.851 86.7336 114.828 86.8714 114.938C86.969 115.018 89.2575 116.89 89.8117 118.779C90.3458 120.596 90.6099 123.052 90.6214 123.156C90.6415 123.331 90.5123 123.486 90.3371 123.506C90.3257 123.506 90.3142 123.509 90.3027 123.509Z" fill="#4F332E"/>
<path d="M87.2504 125.002C87.0896 125.002 86.9518 124.881 86.9317 124.717C86.9317 124.691 86.6647 122.215 86.1449 120.453C85.6482 118.756 83.4372 116.948 83.4142 116.93C83.2793 116.818 83.2563 116.617 83.3683 116.479C83.4774 116.344 83.6784 116.321 83.8162 116.433C83.9139 116.51 86.2052 118.382 86.7594 120.272C87.2935 122.092 87.5577 124.544 87.5691 124.648C87.5864 124.823 87.46 124.982 87.2849 124.999C87.2734 125.002 87.2619 125.002 87.2504 125.002Z" fill="#4F332E"/>
<path d="M84.551 126.62C84.3902 126.62 84.2523 126.5 84.2351 126.336C84.2322 126.31 83.9652 123.837 83.4455 122.072C82.9487 120.378 80.7378 118.569 80.7177 118.552C80.5798 118.44 80.5569 118.236 80.6689 118.101C80.7808 117.963 80.9818 117.942 81.1197 118.052C81.2173 118.132 83.5058 120.004 84.06 121.89C84.594 123.711 84.8582 126.166 84.8697 126.267C84.8898 126.442 84.7606 126.6 84.5854 126.62C84.5739 126.62 84.5625 126.62 84.551 126.62Z" fill="#4F332E"/>
<path d="M137.347 126.368H72.3247V125.051C72.3247 123.673 73.4417 122.555 74.8171 122.555H134.855C136.23 122.555 137.347 123.673 137.347 125.051V126.368Z" fill="#4F332E"/>
<path d="M161.209 124.895H132.213V124.122C132.213 123.311 132.868 122.655 133.678 122.655H161.209V124.895Z" fill="#B4B2C2"/>
<path d="M190.723 62.987L182.741 103.511C182.371 105.394 180.722 106.748 178.807 106.748H110.333C109.509 106.748 108.754 106.507 108.122 106.09C107.924 105.958 107.74 105.808 107.565 105.636C106.615 104.738 106.115 103.378 106.391 101.955L114.373 61.4285C114.546 60.5602 114.985 59.8039 115.599 59.2461C115.76 59.0994 115.924 58.9643 116.105 58.8579C116.742 58.4352 117.503 58.1908 118.307 58.1908H186.787C188.309 58.1908 189.606 59.0362 190.281 60.2525C190.405 60.4509 190.499 60.6694 190.571 60.8908C190.801 61.5378 190.864 62.2567 190.723 62.987Z" fill="#B4B2C2"/>
<path d="M158.415 123.828H144.994L141.292 96.6901H154.71L158.415 123.828Z" fill="#B4B2C2"/>
<path d="M156.806 106.748H156.143L154.515 96.7332H141.011L142.404 106.748H141.746L140.308 96.4572C140.296 96.3623 140.328 96.2731 140.391 96.2012C140.448 96.1322 140.537 96.0948 140.635 96.0948H154.794C154.954 96.0948 155.095 96.2099 155.121 96.3623L156.806 106.748Z" fill="#4F332E"/>
<path d="M190.571 60.8908H119.088C118.097 60.8908 117.227 61.6039 117.029 62.5758L108.122 106.09C107.924 105.958 107.74 105.808 107.565 105.636L116.403 62.4493C116.667 61.1726 117.79 60.2524 119.088 60.2524H190.281C190.404 60.4508 190.499 60.6694 190.571 60.8908Z" fill="#4F332E"/>
<path d="M184.771 72.8584C184.751 72.8584 184.728 72.8556 184.708 72.8527C184.533 72.8182 184.424 72.6485 184.458 72.476L185.974 65.0344C186.011 64.8618 186.184 64.7497 186.353 64.7842C186.525 64.8216 186.637 64.9912 186.603 65.1638L185.084 72.6054C185.052 72.7549 184.92 72.8584 184.771 72.8584Z" fill="#4F332E"/>
<path d="M182.17 72.8584C182.147 72.8584 182.124 72.8556 182.104 72.8527C181.931 72.8182 181.819 72.6485 181.854 72.476L183.373 65.0344C183.407 64.8618 183.577 64.7497 183.749 64.7842C183.921 64.8216 184.033 64.9912 183.999 65.1638L182.48 72.6054C182.448 72.7549 182.316 72.8584 182.17 72.8584Z" fill="#4F332E"/>
<path d="M179.562 72.8584C179.542 72.8584 179.519 72.8556 179.499 72.8527C179.327 72.8182 179.215 72.6485 179.249 72.476L180.768 65.0344C180.803 64.8618 180.975 64.7497 181.145 64.7842C181.317 64.8216 181.429 64.9912 181.394 65.1638L179.875 72.6054C179.844 72.7549 179.712 72.8584 179.562 72.8584Z" fill="#4F332E"/>
<path d="M176.961 72.8584C176.938 72.8584 176.918 72.8556 176.895 72.8527C176.722 72.8182 176.61 72.6485 176.648 72.476L178.164 65.0344C178.198 64.8618 178.371 64.7497 178.54 64.7842C178.715 64.8216 178.824 64.9912 178.79 65.1638L177.271 72.6054C177.242 72.7549 177.107 72.8584 176.961 72.8584Z" fill="#4F332E"/>
<path d="M174.356 72.8584C174.336 72.8584 174.313 72.8556 174.293 72.8527C174.118 72.8182 174.009 72.6485 174.043 72.476L175.56 65.0344C175.597 64.8618 175.766 64.7497 175.939 64.7842C176.111 64.8216 176.223 64.9912 176.186 65.1638L174.669 72.6054C174.638 72.7549 174.506 72.8584 174.356 72.8584Z" fill="#4F332E"/>
<path d="M117.566 61.3853C117.517 61.4227 117.457 61.4428 117.402 61.4428C117.293 61.4486 117.19 61.4026 117.118 61.3163L115.599 59.246C115.76 59.0993 115.924 58.9642 116.104 58.8578L117.638 60.9367C117.738 61.0776 117.707 61.276 117.566 61.3853Z" fill="#4F332E"/>
<path d="M185.549 134.312H41.8994C41.6352 134.312 41.417 134.097 41.417 133.829V125.378C41.417 125.111 41.6352 124.895 41.8994 124.895H185.549V134.312Z" fill="#A64C38"/>
<path d="M80.6117 123.187C80.6117 123.187 78.4295 120.68 77.5767 120.68C76.7239 120.68 75.3398 123.187 75.3398 123.187H80.6117Z" fill="#4F332E"/>
<path d="M121.583 116.28L120.076 123.538L119.961 124.081C119.929 124.228 119.795 124.332 119.648 124.332C119.622 124.332 119.605 124.332 119.579 124.326C119.404 124.294 119.298 124.122 119.335 123.949L119.43 123.495L121.035 115.774C121.009 116.24 120.952 116.574 120.952 116.574C120.952 116.574 121.207 116.384 121.583 116.28Z" fill="#4F332E"/>
<path d="M118.204 113.394L116.139 123.282L116.07 123.621C116.039 123.768 115.91 123.872 115.757 123.872C115.737 123.872 115.717 123.872 115.694 123.866C115.519 123.834 115.413 123.659 115.445 123.486L115.493 123.245L117.61 113.132C117.724 113.534 117.724 113.859 117.724 113.859C117.724 113.859 117.891 113.624 118.204 113.394Z" fill="#4F332E"/>
<path d="M113.917 112.761L112.14 123.046L112.013 123.8C111.987 123.955 111.847 124.07 111.7 124.07C111.68 124.07 111.66 124.064 111.64 124.064C111.468 124.03 111.353 123.866 111.379 123.691L111.493 123.006L113.119 113.638C113.354 113.753 113.506 113.859 113.506 113.859C113.506 113.859 113.578 113.31 113.917 112.761Z" fill="#4F332E"/>
<path d="M64.6348 114.282C64.5085 114.282 64.3879 114.204 64.339 114.081L56.8849 95.4651C56.8189 95.3012 56.8993 95.1143 57.063 95.051C57.2266 94.9849 57.4104 95.0625 57.4764 95.2264L64.9334 113.842C64.9966 114.006 64.9191 114.193 64.7554 114.259C64.7152 114.273 64.675 114.282 64.6348 114.282Z" fill="#4F332E"/>
<path d="M62.6914 109.425C62.5162 109.425 62.3755 109.287 62.3726 109.112L62.1343 98.076C62.1315 97.8977 62.2693 97.751 62.4473 97.7482C62.6282 97.7597 62.7689 97.8833 62.7718 98.0616L63.0101 109.098C63.0158 109.276 62.8751 109.422 62.6971 109.425C62.6942 109.425 62.6942 109.425 62.6914 109.425Z" fill="#4F332E"/>
<path d="M107.895 69.1922C104.745 71.7025 100.234 73.9942 94.0983 74.3335C93.5039 74.3652 92.9239 74.3853 92.3554 74.3853C84.7836 74.3853 79.236 71.5731 75.8794 69.175C76.1292 69.0715 76.3675 68.9823 76.5886 68.8932C80.1549 71.3574 86.0355 74.1409 94.061 73.6923C99.8124 73.3731 104.102 71.2971 107.149 68.968C107.393 69.0398 107.64 69.1088 107.895 69.1922Z" fill="#4F332E"/>
<path d="M107.413 86.5772C107.344 86.2695 107.258 85.9676 107.152 85.6685C106.813 84.6966 106.21 83.7362 105.254 83.3596C104.369 83.0145 103.336 83.2474 102.555 83.7851C101.774 84.3228 101.214 85.128 100.777 85.9705C99.3904 88.6418 99.0746 91.8019 97.5068 94.3725C97.3029 94.7032 97.0588 95.0396 96.6942 95.169C96.0137 95.4105 95.3303 94.8182 94.9168 94.2287C94.2592 93.2913 93.8084 92.2274 93.2514 91.2268C92.6972 90.2261 92.0052 89.2571 91.0232 88.6705C90.0412 88.0868 88.7117 87.9689 87.7843 88.636C87.121 89.1133 86.7477 89.9156 86.6185 90.7207C86.4893 91.5287 86.5754 92.354 86.6587 93.1648C86.7764 94.2805 87.813 98.0358 86.6472 98.8151C86.205 99.1141 85.6078 98.9502 85.134 98.7087C84.1778 98.217 83.3939 97.4521 82.5756 96.7534C81.7572 96.0546 80.8528 95.3904 79.799 95.1719C78.7452 94.9534 77.5105 95.2898 76.962 96.2185C75.8221 98.1451 77.2693 101.386 78.0905 103.186C80.3273 108.094 87.9738 108.764 92.5508 107.651C100.347 105.756 106.198 99.879 107.393 91.8939C107.657 90.1312 107.798 88.3025 107.413 86.5772Z" fill="white"/>
<path d="M226.575 112.813L224.979 111.775C224.979 111.775 213.93 104.281 211.693 102.358C209.956 100.868 209.476 99.2895 209.341 98.6454C209.304 98.4614 209.298 98.3607 209.298 98.3607C209.298 98.3607 209.117 98.3406 208.85 98.2371C208.365 98.0502 207.59 97.5987 207.139 96.4917C206.99 96.1265 206.958 95.7613 206.99 95.4364C207.067 94.5767 207.564 93.9297 207.564 93.9297C207.564 93.9297 207.501 93.9124 207.4 93.8722C207.004 93.7198 205.988 93.2511 205.436 92.2792C205.143 91.753 205.164 91.1261 205.258 90.6402C205.342 90.1858 205.488 89.8552 205.488 89.8552C205.488 89.8552 205.405 89.7574 205.299 89.5791C204.983 89.0673 204.466 87.8424 205.034 86.0136C205.81 83.5378 211.081 80.5732 211.081 80.5732L214.372 87.4139L214.645 87.9919L216.193 91.2095L216.474 91.7932L226.575 112.813Z" fill="#FFA694"/>
<path d="M236.823 106.173C236.823 106.173 237.866 98.2256 234.457 94.3868C230.5 89.927 225.832 90.4388 222.317 87.0257C218.802 83.6125 218.837 79.4547 216.353 80.5732C214.257 81.5192 215.248 84.5154 216.218 87.6669C217.189 90.8155 222.317 101.854 222.317 102.493C222.317 103.134 226.389 106.754 226.389 106.754L236.823 106.173Z" fill="#FFA694"/>
<path d="M228.175 123.187L222.958 109.96L222.317 103.134L229.665 101.854L236.801 104.948L249.975 125.427L228.387 126.281L228.175 123.187Z" fill="#FFA694"/>
<path d="M253.276 56.0744C252.403 54.0444 251.433 52.0431 250.807 49.9152C250.072 47.405 250.376 45.0759 250.238 42.5225C250.155 41.0502 249.773 39.647 248.722 38.5716C248.039 37.87 246.976 37.3208 246.684 36.323C246.549 35.8658 249.885 32.3146 249.38 32.5418C241.486 36.093 237.412 42.4908 237.53 49.5817C237.547 50.7865 238.107 51.7613 237.217 52.8396C236.628 53.5527 235.772 54.0846 235.146 54.7776C234.187 55.8329 233.409 57.0722 233.228 58.5099C233.067 59.7636 233.406 60.7988 234.13 61.8052C234.868 62.8289 235.577 63.5132 235.152 64.8963C234.586 66.7308 233.897 68.6775 235.764 70.029C236.97 70.9002 238.693 71.1705 240.151 71.0929C241.136 71.0382 242.138 70.7018 242.822 69.9916C243.215 69.5804 243.605 68.8759 244.22 68.7666C244.981 68.6315 245.159 69.221 245.759 69.5114C246.408 69.8306 246.979 70.121 247.706 70.2274C250.836 70.6874 252.834 68.2893 254.132 65.7647C255.843 62.432 254.663 59.2921 253.276 56.0744Z" fill="#4F332E"/>
<path d="M264.833 72.5191L270.427 92.2792L293.111 84.1215L276.735 58.0384L273.316 58.7946L261.827 55.5051L264.833 72.5191Z" fill="#FFA694"/>
<path d="M271.863 72.9993C271.863 72.9993 262.588 80.2684 257.084 80.0413C255.171 79.9493 253.492 78.6841 252.133 76.9157C251.286 75.8086 250.434 74.4974 249.612 73.0769C249.503 72.8843 249.394 72.6916 249.279 72.5019C247.37 69.1146 245.592 65.25 244.148 62.363C242.276 58.6106 239.037 50.1194 239.037 50.1194L255.651 39.8771L260.142 54.9128L271.863 72.9993Z" fill="#FFA694"/>
<path d="M244.507 70.1727C245.133 71.6018 247.474 71.6996 248.786 71.159C249.194 71.8031 250.216 71.1734 249.891 70.4459C250.138 70.0117 249.811 69.4251 249.36 69.4194C248.74 68.2289 248.091 67.0529 247.393 65.9027C247.494 65.3276 245.478 64.1228 245.478 64.1228C245.478 64.1228 243.683 68.2922 244.507 70.1727Z" fill="#FFA694"/>
<path d="M249.05 60.4164C249.811 61.5148 249.871 62.7944 249.185 63.2717C248.499 63.749 247.321 63.2458 246.56 62.1474C245.797 61.049 245.739 59.7694 246.425 59.2921C247.112 58.8148 248.286 59.318 249.05 60.4164Z" fill="#4F332E"/>
<path d="M249.159 56.2498C247.976 54.6683 244.584 55.0018 243.307 56.6782C242.913 57.1901 242.689 57.9204 243.132 58.4783C243.473 58.9038 244.065 58.9987 244.564 58.8291C244.992 58.6853 245.36 58.4121 245.759 58.1965C246.376 57.86 247.074 57.6674 247.775 57.6358C248.248 57.6127 248.78 57.6559 249.153 57.2993C249.273 57.1843 249.362 57.0319 249.38 56.8651C249.403 56.6351 249.291 56.4281 249.159 56.2498Z" fill="#4F332E"/>
<path d="M253.523 70.2733C252.731 72.0647 251.266 72.8382 249.612 73.0768C249.503 72.8842 249.394 72.6915 249.279 72.5017C250.838 72.3148 252.225 71.6305 252.972 69.9455C253.138 69.5774 253.69 69.9023 253.523 70.2733Z" fill="#4F332E"/>
<path d="M281.537 65.6871C279.3 57.6358 282.691 48.7507 280.13 40.7541C278.817 36.6595 276.001 33.2751 272.182 31.3025C268.426 29.3616 264.053 28.8181 259.881 29.2868C256.86 29.6233 253.914 30.5031 251.137 31.7281C248.814 32.7517 246.532 33.9939 244.835 35.9291C244.243 36.602 243.732 37.3438 243.273 38.1144C240.72 42.4046 238.225 47.175 239.155 52.3191C239.164 52.3536 239.178 52.3795 239.192 52.4083C238.928 52.6584 239.227 53.1559 239.548 52.9258C241.377 51.6204 243.327 50.5306 245.357 49.5702C247.422 48.5926 249.644 47.3849 251.869 46.8587C252.567 46.6948 253.36 46.62 254.055 46.8615C255.2 47.2612 255.433 48.0922 255.841 49.0929C256.191 49.9526 256.535 50.7808 257.024 51.5801C258.132 53.383 259.622 54.9214 261.112 56.4109C264.13 59.4186 267.852 58.9355 270.585 62.9985C272.696 66.1385 281.565 65.7906 281.537 65.6871Z" fill="#4F332E"/>
<path d="M257.305 56.4856C257.268 53.1271 258.482 48.8427 262.227 48.0577C264.038 47.6781 266.023 48.3539 267.453 49.4868C271.329 52.552 270.071 58.323 269.012 62.409C268.96 62.6074 268.908 62.8087 268.796 62.9784C268.684 63.1538 268.518 63.286 268.354 63.4154C267.619 63.9963 266.884 64.5742 266.152 65.158C266.152 65.158 257.357 61.3279 257.305 56.4856Z" fill="#FFA694"/>
<path d="M302.854 53.8258C302.242 52.345 301.01 51.1718 299.563 50.5133C299.193 50.3465 298.794 50.2488 298.383 50.1769C298.165 48.9059 297.464 47.8248 295.908 47.2497C294.935 46.8931 293.915 46.8069 292.956 46.9679C292.6 46.4762 292.181 46.0449 291.567 45.743C289.979 44.9666 287.923 45.2743 286.312 45.8263C283.811 46.6832 281.764 48.4459 280.477 50.6973C279.627 51.4335 279.076 52.4514 278.881 53.6102C278.528 55.6719 279.533 57.0521 280.21 58.855C280.661 60.0627 279.857 61.1985 279.607 62.3573C279.415 63.263 279.337 64.2033 279.449 65.1292C279.636 66.6819 280.331 68.1283 281.554 69.1232C282.846 70.1727 284.543 70.6328 286.186 70.374C287.239 70.2072 288.305 70.0548 289.364 70.2619C290.587 70.4977 291.707 71.1619 292.985 71.1015C294.547 71.0267 296.026 70.2791 297.169 69.2353C297.714 68.7408 297.993 68.1829 298.119 67.5848C299.664 67.4267 301.214 66.5842 301.964 65.3794C303.046 63.6397 303.339 61.0144 302.248 59.2604C303.305 57.699 303.612 55.6546 302.854 53.8258Z" fill="#4F332E"/>
<path d="M281.422 52.3219C281.416 52.3018 281.408 52.2817 281.402 52.2615C281.287 51.9769 281.014 51.7353 280.71 51.7554C280.271 51.7871 280.05 52.2903 279.935 52.7158C279.3 55.1111 279.26 57.5293 279.2 59.9878C279.194 60.3013 279.188 60.6262 279.323 60.908C279.452 61.1927 279.768 61.4169 280.07 61.3393C280.429 61.2473 280.569 60.8217 280.647 60.4594C281.155 58.0642 281.379 55.6143 281.491 53.1644C281.502 52.8826 281.514 52.5893 281.422 52.3219Z" fill="white"/>
<path d="M268.799 63.4528C268.799 61.5263 267.24 59.962 265.313 59.962C263.386 59.962 261.827 61.5263 261.827 63.4528C261.827 65.3822 263.386 66.9465 265.313 66.9465C267.24 66.9465 268.799 65.3822 268.799 63.4528Z" fill="#A64C38"/>
<path d="M268.799 78.0946C268.093 78.0946 267.521 77.5223 267.521 76.815V69.4366C267.521 68.3238 266.62 67.4209 265.508 67.4209C264.4 67.4209 263.495 68.3238 263.495 69.4366V76.815C263.495 77.5223 262.924 78.0946 262.218 78.0946C261.511 78.0946 260.94 77.5223 260.94 76.815V69.4366C260.94 66.912 262.99 64.8589 265.508 64.8589C268.027 64.8589 270.077 66.912 270.077 69.4366V76.815C270.077 77.5223 269.505 78.0946 268.799 78.0946Z" fill="#FFE3D1"/>
<path d="M310.291 120.625H250.405C250.405 120.625 250.54 118.604 253.308 108.146C255.051 101.572 258.101 95.2091 261.104 90.8385C261.296 90.5509 261.495 90.2749 261.693 90.0075C263.258 87.8509 264.791 86.2751 266.089 85.5333C269.285 83.7217 283.375 78.615 288.615 76.7402C289.795 76.3175 291.104 76.6942 291.885 77.6804L299.081 86.7295L299.319 87.0256C299.319 87.0256 299.426 87.1579 299.618 87.4138C300.798 88.9953 305.197 95.2235 307.307 103.025C309.76 112.097 310.291 120.625 310.291 120.625Z" fill="#6458B8"/>
<path d="M291.983 126.382L291.374 126.181C291.397 126.112 291.94 124.245 292.792 112.312C293.622 100.696 287.627 93.484 281.565 92.5983C275.099 91.6495 268.276 94.4731 263.32 100.146C257.845 106.415 254.241 120.433 254.204 120.574L253.586 120.415C253.733 119.835 257.262 106.107 262.841 99.7237C267.94 93.8865 274.975 90.9881 281.66 91.9629C288.003 92.8916 294.285 100.356 293.43 112.358C292.563 124.499 292.006 126.31 291.983 126.382Z" fill="#4F332E"/>
<path d="M223.56 107.309C222.845 107.309 222.162 106.906 221.832 106.219L206.926 75.2909C206.467 74.3363 206.869 73.189 207.822 72.7289C208.776 72.2717 209.921 72.6714 210.381 73.6261L225.289 104.554C225.745 105.509 225.346 106.656 224.39 107.116C224.123 107.246 223.839 107.309 223.56 107.309Z" fill="#4F332E"/>
<path d="M208.141 72.6111L210.432 71.3804C211.661 70.7449 213.169 71.251 213.769 72.4961L228.12 102.214C228.674 103.361 228.258 104.741 227.167 105.394L224.927 106.731L208.141 72.6111Z" fill="#FFE3D1"/>
<path d="M212.063 84.7599C212.032 84.7714 208.945 86.1717 205.738 90.0593C205.571 90.2577 205.413 90.4561 205.258 90.6401C205.342 90.1858 205.488 89.8551 205.488 89.8551C205.488 89.8551 205.405 89.7574 205.299 89.5791C208.595 85.6167 211.676 84.2337 211.802 84.1761L212.063 84.7599Z" fill="#4F332E"/>
<path d="M215.291 87.6526C215.285 87.6583 215.05 87.7618 214.645 87.9919C213.574 88.613 211.297 90.1226 208.965 92.952C208.153 93.9297 207.509 94.7492 206.99 95.4364C207.067 94.5766 207.564 93.9297 207.564 93.9297C207.564 93.9297 207.501 93.9124 207.4 93.8721C207.719 93.4638 208.078 93.021 208.474 92.5408C210.926 89.5791 213.267 88.035 214.372 87.4139C214.763 87.1925 215.004 87.0803 215.035 87.0688L215.291 87.6526Z" fill="#4F332E"/>
<path d="M216.661 91.0714C216.641 91.0369 216.632 91.0053 216.623 90.9736C216.503 91.0369 216.365 91.1088 216.193 91.2094C215.036 91.8823 212.787 93.4178 210.436 96.2673C209.821 97.0092 209.299 97.6619 208.851 98.237C209.118 98.3405 209.299 98.3606 209.299 98.3606C209.299 98.3606 209.304 98.4613 209.342 98.6453C209.79 98.0731 210.315 97.4204 210.927 96.6699C213.169 93.9497 215.354 92.4545 216.474 91.7931C216.687 91.6666 216.856 91.5746 216.988 91.5085C216.876 91.3647 216.761 91.2238 216.661 91.0714Z" fill="#4F332E"/>
<path d="M214.754 98.9214C214.679 98.9214 214.605 98.8926 214.544 98.8408C214.412 98.723 214.398 98.5217 214.513 98.3894L217.441 95.028C217.559 94.8986 217.76 94.8842 217.892 94.9993C218.027 95.1143 218.042 95.3184 217.924 95.4507L214.995 98.8092C214.932 98.8811 214.843 98.9214 214.754 98.9214Z" fill="#4F332E"/>
<path d="M217.749 80.5732C217.749 80.5732 217.031 79.8141 215.914 80.855C214.794 81.893 215.834 86.6519 219.747 91.2526C223.661 95.8533 228.175 96.6901 228.175 96.6901C228.175 96.6901 224.339 90.9996 223.983 90.3037C223.621 89.6136 218.854 82.8879 218.989 82.6522C219.124 82.4192 217.749 80.5732 217.749 80.5732Z" fill="#FFA694"/>
<path d="M299.618 87.4139C294.92 87.0056 288.933 86.8647 282.045 87.5318C270.071 88.6935 263.794 90.0967 261.104 90.8386C261.296 90.551 261.495 90.275 261.693 90.0076C264.733 89.2254 270.901 87.9718 281.979 86.8963C288.629 86.2494 294.444 86.3529 299.081 86.7296L299.319 87.0257C299.319 87.0257 299.425 87.158 299.618 87.4139Z" fill="#4F332E"/>
<path d="M317.098 216.34H164.516C160.806 216.34 157.8 213.33 157.8 209.612V125.971C157.8 122.253 160.806 119.242 164.516 119.242H317.098C320.808 119.242 323.815 122.253 323.815 125.971V209.612C323.815 213.33 320.808 216.34 317.098 216.34Z" fill="#4F332E"/>
<path d="M315.769 206.817H165.846C163.285 206.817 161.208 204.738 161.208 202.17V127.664C161.208 124.898 163.448 122.655 166.21 122.655H315.405C318.167 122.655 320.407 124.898 320.407 127.664V202.17C320.407 204.738 318.331 206.817 315.769 206.817Z" fill="white"/>
<path d="M201.548 188.578H188.98C188.917 188.578 188.854 188.558 188.802 188.523L167.554 174.229C167.408 174.131 167.37 173.933 167.468 173.784C167.568 173.637 167.766 173.6 167.91 173.697L189.078 187.936H201.327L206.895 173.137C206.941 173.01 207.061 172.93 207.193 172.93H232.938L240.533 160.14C240.613 160.007 240.771 159.95 240.915 160.002L266.858 169.304L289.694 149.219C289.826 149.104 290.027 149.115 290.145 149.247C290.26 149.383 290.245 149.584 290.113 149.699L267.136 169.907C267.05 169.985 266.93 170.008 266.818 169.968L240.947 160.695L233.395 173.413C233.337 173.51 233.234 173.568 233.119 173.568H207.415L201.847 188.371C201.801 188.494 201.68 188.578 201.548 188.578Z" fill="#E6694D"/>
<path d="M313.805 200.344H168.39C167.821 200.344 167.359 199.884 167.359 199.315V132.147C167.359 131.969 167.502 131.825 167.678 131.825C167.856 131.825 167.999 131.969 167.999 132.147V199.315C167.999 199.53 168.174 199.706 168.39 199.706H313.805C313.98 199.706 314.124 199.849 314.124 200.025C314.124 200.203 313.98 200.344 313.805 200.344Z" fill="#4F332E"/>
<path d="M202.654 202.532C202.476 202.532 202.335 202.388 202.335 202.213V197.84C202.335 197.661 202.476 197.517 202.654 197.517C202.829 197.517 202.972 197.661 202.972 197.84V202.213C202.972 202.388 202.829 202.532 202.654 202.532Z" fill="#4F332E"/>
<path d="M219.759 202.532C219.583 202.532 219.437 202.388 219.437 202.213V197.84C219.437 197.661 219.583 197.517 219.759 197.517C219.934 197.517 220.08 197.661 220.08 197.84V202.213C220.08 202.388 219.934 202.532 219.759 202.532Z" fill="#4F332E"/>
<path d="M217.843 259.515C217.843 259.515 214.86 270.715 215.713 275.195C216.566 279.675 219.44 287.249 219.549 286.714C219.655 286.182 227.109 255.567 227.109 255.567L222.636 250.446L217.312 254.874L217.843 259.515Z" fill="#FFA694"/>
<path d="M188.449 213.005C188.449 213.005 182.91 218.445 180.033 221.433C177.159 224.417 176.102 232.1 187.174 240.313C198.247 248.525 218.59 261.433 218.59 261.433L221.04 255.993L222.636 250.446L203.679 227.94L188.449 213.005Z" fill="#FFA694"/>
<path d="M306.788 224.843L297.668 217.137L289.361 196.577L289.904 189.429L290.358 183.457L290.639 179.77L295.911 176.34L302.303 178.496L302.779 183.457L303.362 189.429L306.788 224.843Z" fill="#FFA694"/>
<path d="M303.362 189.429H289.904L290.357 183.457H302.779L303.362 189.429Z" fill="#4F332E"/>
<mask id="mask0_710_11336" style="mask-type:luminance" maskUnits="userSpaceOnUse" x="215" y="236" width="73" height="76">
<path d="M215.193 236.319H287.03V311.851H215.193V236.319Z" fill="white"/>
</mask>
<g mask="url(#mask0_710_11336)">
<path d="M286.967 311.851H256.613L249.874 292.83L249.263 290.662L249.116 291.895L246.228 311.851H215.234C215.234 311.851 219.708 269.7 221.623 261.542C223.541 253.382 227.538 244.741 227.538 244.741L236.947 242.57L263.64 236.419L277.061 242.737C277.061 242.737 277.79 244.663 278.588 247.289C279.251 249.494 286.967 311.851 286.967 311.851Z" fill="#A64C38"/>
</g>
<path d="M278.588 247.288L229.619 248.151L236.947 242.57L263.639 236.419L277.06 242.737C277.06 242.737 277.789 244.663 278.588 247.288Z" fill="#4F332E"/>
<path d="M258.316 168.524V178.657H242.021L243.45 164.947L243.939 161.327L252.63 160.677L258.316 168.524Z" fill="#FFA694"/>
<path d="M263.188 144.411C259.553 138.183 251.565 136.084 245.348 139.721C239.129 143.361 237.033 151.361 240.665 157.589C244.3 163.817 252.288 165.916 258.505 162.279C264.724 158.639 266.821 150.639 263.188 144.411Z" fill="#FFA694"/>
<path d="M266.427 152.784C266.568 154.642 266.872 158.423 266.528 161.917C266.499 162.227 266.464 162.546 266.416 162.86C266.068 165.442 265.29 167.722 263.745 168.749C259.975 171.227 251.487 168.769 251.487 168.769L251.565 153.046L254.072 145.253C254.072 145.253 262.419 141.955 264.107 143.87C265.79 145.791 266.166 149.362 266.427 152.784Z" fill="#FFA694"/>
<path d="M265.443 153.897C265.388 154.892 264.843 155.671 264.219 155.637C263.599 155.605 263.14 154.771 263.191 153.779C263.243 152.784 263.792 152.008 264.412 152.039C265.032 152.074 265.494 152.905 265.443 153.897Z" fill="#4F332E"/>
<path d="M265.942 154.625C265.942 154.625 265.152 156.1 265.422 156.416C265.419 157.373 265.451 158.328 265.508 159.283C265.233 159.452 265.247 159.93 265.557 160.105C265.626 160.669 266.479 160.68 266.49 160.134C267.493 159.984 268.411 159.369 268.532 158.268C268.698 156.732 265.942 154.625 265.942 154.625Z" fill="#FFA694"/>
<path d="M266.528 161.917C266.499 162.227 266.465 162.546 266.416 162.86C264.897 162.923 263.401 162.434 262.273 161.137C261.871 160.677 262.531 159.996 262.927 160.456C263.927 161.6 265.216 162 266.528 161.917Z" fill="#4F332E"/>
<path d="M265.196 149.477C264.966 149.374 264.699 149.334 264.446 149.334C263.858 149.328 263.263 149.498 262.781 149.837C262.456 150.067 261.296 151.326 262.106 151.599C262.25 151.645 262.405 151.628 262.551 151.594C262.996 151.493 263.412 151.263 263.866 151.223C264.334 151.183 264.834 151.338 265.259 151.139C265.503 151.024 265.687 150.797 265.75 150.533C265.81 150.274 265.747 149.983 265.583 149.774C265.48 149.641 265.345 149.546 265.196 149.477Z" fill="#D46B4E"/>
<path d="M259.772 132.325C258.853 130.177 256.398 128.205 253.828 128.973C252.05 129.502 251.12 130.666 250.709 132.199C249.162 130.738 247.106 129.913 244.858 130.269C242.202 130.692 240.278 132.788 240.042 135.324C238.681 135.046 236.878 135.854 236.071 136.731C234.664 138.252 234.658 140.38 235.5 142.148C234.222 144.491 233.628 147.209 234.03 150.058C234.716 154.906 237.593 158.639 240.737 162.075C241.82 163.257 243.451 164.947 243.451 164.947C243.451 164.947 250.069 158.926 251.548 156.632C252.88 154.558 254.804 150.786 255.479 148.229C256.541 148.514 257.856 148.261 258.614 147.626C259.588 146.803 260.062 145.667 260.079 144.514C263.685 144.443 267.467 143.111 267.788 139.195C268.15 134.81 264.185 130.603 259.772 132.325Z" fill="#D46B4E"/>
<path d="M254.701 152.773C253.865 151.338 252.386 149.779 250.646 149.498C248.866 149.207 247.201 150.659 246.595 152.258C245.578 154.944 247.68 157.73 249.486 159.516C249.794 159.82 250.109 160.119 250.448 160.393C250.448 160.393 249.877 162.288 252.63 160.677C255.381 159.067 256.309 155.527 254.701 152.773Z" fill="#FFA694"/>
<path d="M267.22 181.429L250.919 186.447C250.919 186.447 233.332 179.693 233.134 179.618C233.076 179.586 233.211 179.201 233.435 178.657C233.453 178.611 233.473 178.568 233.49 178.522C233.544 178.407 233.593 178.286 233.651 178.157C233.682 178.082 233.714 178.01 233.748 177.933C234.354 176.576 235.198 174.868 235.325 174.643C235.537 174.287 235.767 173.913 236.111 173.677C236.579 173.358 237.174 173.326 237.734 173.3C244.95 172.998 252.177 173.039 259.384 173.41C260.745 173.479 262.522 173.203 263.556 174.137C264.306 174.819 264.805 176.032 265.25 176.915C265.322 177.056 265.391 177.197 265.46 177.346C265.506 177.441 265.557 177.545 265.601 177.639C265.647 177.734 265.692 177.832 265.736 177.927C265.787 178.025 265.833 178.125 265.876 178.229C266.364 179.278 266.809 180.354 267.22 181.429Z" fill="#FFE3D1"/>
<path d="M303.655 237.328C299.856 240.879 294.777 240.33 290.228 239.358C289.048 239.102 287.911 238.648 286.857 237.969C286.74 237.892 286.628 237.814 286.504 237.731C285.66 237.141 284.684 236.325 283.627 235.37C283.584 235.332 283.547 235.292 283.506 235.255C283.501 235.249 283.501 235.24 283.501 235.24C278.011 230.206 270.671 221.43 270.671 221.43L261.724 182.177L263.321 178.657C263.321 178.657 272.587 176.627 277.91 178.657C283.239 180.688 289.631 186.447 295.483 197.428C299.822 205.563 301.938 210.25 303.566 214.557C303.799 215.158 304.02 215.759 304.232 216.355C304.551 217.257 304.864 218.155 305.177 219.089C307.204 225.059 308.45 232.848 303.655 237.328Z" fill="#FFE3D1"/>
<path d="M234.457 178.657C234.457 178.657 224.979 219.727 224.769 220.047C224.66 220.213 220.939 222.945 216.615 225.513C216.416 225.636 216.218 225.749 216.02 225.867C212.098 228.158 207.765 229.653 205.278 230.07C199.527 231.031 195.61 228.733 192.716 227.189C184.38 222.755 182.482 214.819 186.528 210.23C187.921 208.643 208.193 188.238 217.028 182.255C217.709 181.795 218.314 181.415 218.846 181.148C218.94 181.096 219.029 181.05 219.118 181.007C226.257 177.588 234.457 178.657 234.457 178.657Z" fill="#FFE3D1"/>
<path d="M280.095 243.778C275.647 244.853 265.204 243.421 264.389 243.312C264.357 243.3 264.337 243.3 264.337 243.3C264.337 243.3 264.056 243.372 263.539 243.499C258.189 244.824 227.612 252.113 221.786 247.3C215.394 242.021 216.991 221.378 216.991 221.378L226.417 182.255L236.238 178.496L247.666 179.77L265.718 182.499L282.013 215.457C282.013 215.457 282.49 221.059 282.969 226.818C283.449 232.578 284.729 242.659 280.095 243.778Z" fill="#FFE3D1"/>
<path d="M249.874 292.83L249.262 290.662L249.116 291.895C248.297 285.003 247.025 273.386 246.629 264.837C246.106 253.796 247.818 247.358 247.835 247.294L248.449 247.467C248.438 247.524 246.752 253.879 247.261 264.806C247.686 273.771 249.07 286.116 249.874 292.83Z" fill="#4F332E"/>
<path d="M257.09 255.193V264.167C257.09 267.241 259.588 269.743 262.654 269.743H264.455C267.521 269.743 270.019 267.241 270.019 264.167V255.193H257.09ZM264.455 270.381H262.654C259.235 270.381 256.452 267.595 256.452 264.167V254.874C256.452 254.696 256.593 254.555 256.771 254.555H270.338C270.516 254.555 270.657 254.696 270.657 254.874V264.167C270.657 267.595 267.875 270.381 264.455 270.381Z" fill="#4F332E"/>
<path d="M225.708 254.791V263.765C225.708 266.839 228.206 269.337 231.273 269.337H233.073C236.143 269.337 238.638 266.839 238.638 263.765V254.791H225.708ZM233.073 269.979H231.273C227.853 269.979 225.071 267.192 225.071 263.765V254.468C225.071 254.293 225.211 254.149 225.39 254.149H238.957C239.135 254.149 239.278 254.293 239.278 254.468V263.765C239.278 267.192 236.493 269.979 233.073 269.979Z" fill="#4F332E"/>
<path d="M302.57 182.286L291.598 181.378C291.598 181.378 288.773 181.231 286.536 177.755C285.468 176.09 284.951 174.272 284.658 172.334C284.497 171.253 284.345 170.152 283.923 169.134C283.438 167.975 282.645 167.322 281.801 166.466C280.897 165.537 280.65 163.886 282.551 163.987C284.377 164.085 285.649 165.862 286.76 167.271C287.061 167.65 287.449 168.237 287.776 168.763C288.155 169.358 288.445 169.864 288.445 169.864C288.445 169.864 288.552 151.646 288.988 149.641C289.361 147.936 291.598 148.428 291.917 150.073C292.239 151.723 292.718 162.868 292.718 162.868C292.718 162.868 292.741 162.842 292.793 162.805C292.902 162.713 293.137 162.535 293.433 162.382C293.789 162.184 294.246 162.023 294.685 162.066C295.406 162.15 296.129 162.926 296.442 163.297C296.546 163.418 296.603 163.501 296.603 163.501C296.603 163.501 296.793 163.4 297.083 163.291C297.585 163.093 298.392 162.868 298.998 163.11C299.638 163.36 300.161 163.955 300.436 164.32C300.577 164.507 300.655 164.628 300.655 164.628C300.655 164.628 300.792 164.588 301.074 164.686C301.395 164.801 301.892 165.082 302.57 165.807C305.019 168.415 302.57 182.286 302.57 182.286Z" fill="#FFA694"/>
<path d="M297.082 163.291V166.178C297.082 166.356 296.942 166.497 296.761 166.497C296.588 166.497 296.442 166.356 296.442 166.178V163.297C296.545 163.418 296.603 163.501 296.603 163.501C296.603 163.501 296.792 163.4 297.082 163.291Z" fill="#4F332E"/>
<path d="M293.433 162.382V165.376C293.433 165.548 293.292 165.698 293.114 165.698C292.939 165.698 292.792 165.548 292.792 165.376V162.805C292.902 162.713 293.137 162.535 293.433 162.382Z" fill="#4F332E"/>
<path d="M301.073 164.686V167.029C301.073 167.208 300.933 167.348 300.755 167.348C300.582 167.348 300.436 167.208 300.436 167.029V164.321C300.577 164.507 300.654 164.628 300.654 164.628C300.654 164.628 300.792 164.588 301.073 164.686Z" fill="#4F332E"/>
<path d="M288.523 172.924C288.523 173.102 288.391 173.249 288.213 173.249H288.204C288.035 173.249 287.885 173.114 287.885 172.941L287.776 168.763C288.155 169.358 288.445 169.864 288.445 169.864L288.523 172.924Z" fill="#4F332E"/>
<path d="M300.221 186.444C300.221 184.351 298.529 182.657 296.442 182.657C294.354 182.657 292.663 184.351 292.663 186.444C292.663 188.535 294.354 190.228 296.442 190.228C298.529 190.228 300.221 188.535 300.221 186.444Z" fill="white"/>
<path d="M265.735 177.927C262.72 178.977 257.423 180.354 250.213 180.455C249.888 180.463 249.561 180.463 249.242 180.463C242.207 180.463 236.654 179.356 233.49 178.522C233.544 178.407 233.593 178.286 233.651 178.157C233.682 178.082 233.714 178.01 233.748 177.933C237.019 178.787 242.839 179.925 250.201 179.816C257.288 179.713 262.491 178.376 265.46 177.346C265.506 177.441 265.557 177.545 265.6 177.639C265.646 177.734 265.692 177.832 265.735 177.927Z" fill="#4F332E"/>
<path d="M286.648 208.68L286.504 237.731C285.66 237.141 284.683 236.324 283.627 235.37C283.584 235.332 283.546 235.292 283.506 235.255C283.5 235.249 283.5 235.24 283.5 235.24C283.5 235.24 284.012 219.138 284.804 215.857C285.608 212.579 286.648 208.68 286.648 208.68Z" fill="#4F332E"/>
<path d="M286.487 211.619C286.475 211.619 286.464 211.619 286.455 211.616C286.28 211.601 286.151 211.443 286.168 211.268L287.285 199.588C287.305 199.412 287.46 199.277 287.635 199.3C287.81 199.318 287.94 199.473 287.922 199.648L286.803 211.328C286.788 211.495 286.648 211.619 286.487 211.619Z" fill="#4F332E"/>
<path d="M216.615 225.513C216.417 225.636 216.218 225.748 216.02 225.866L213.399 207.182C213.376 207.009 213.496 206.845 213.674 206.819C213.841 206.799 214.008 206.92 214.033 207.093L216.615 225.513Z" fill="#4F332E"/>
<path d="M264.389 243.312C264.357 243.3 264.337 243.3 264.337 243.3C264.337 243.3 264.056 243.372 263.539 243.499C261.603 242.167 259.723 240.753 257.888 239.26C257.569 238.999 258.023 238.55 258.342 238.806C260.3 240.393 262.31 241.9 264.389 243.312Z" fill="#4F332E"/>
<path d="M239.227 208.85C239.146 208.519 238.902 208.266 238.572 208.168C237.866 207.961 237.297 207.984 236.608 208.246C236.255 208.381 235.965 208.571 235.686 208.752C235.56 208.835 235.431 208.919 235.296 208.996C234.644 209.364 234.282 209.252 233.421 208.835C231.925 208.111 230.845 207.584 229.022 208.671C228.726 208.85 228.551 209.154 228.557 209.494C228.563 209.842 228.761 210.175 229.062 210.345C229.352 210.509 229.702 210.5 229.998 210.325C230.926 209.773 231.589 209.98 232.729 210.655L232.867 210.739C233.165 210.92 233.501 211.124 233.918 211.213C234.09 211.248 234.254 211.265 234.412 211.265C235.193 211.265 235.833 210.874 236.41 210.52C237.082 210.106 237.521 209.862 238.041 210.014C238.374 210.112 238.71 210.029 238.951 209.799C239.201 209.56 239.31 209.186 239.227 208.85Z" fill="#6458B8"/>
<path d="M263.636 182.419C263.556 182.091 263.312 181.835 262.982 181.737H262.979C262.272 181.533 261.704 181.553 261.021 181.815C260.662 181.953 260.375 182.14 260.096 182.324C259.967 182.407 259.84 182.49 259.705 182.565C259.054 182.936 258.695 182.824 257.833 182.407C256.337 181.68 255.255 181.156 253.432 182.243C253.136 182.419 252.963 182.726 252.966 183.063C252.969 183.411 253.167 183.744 253.469 183.914C253.762 184.078 254.112 184.072 254.408 183.896C255.335 183.344 256.001 183.551 257.136 184.224L257.276 184.308C257.572 184.489 257.911 184.696 258.33 184.782C258.5 184.82 258.663 184.834 258.821 184.834C259.602 184.834 260.242 184.443 260.817 184.092C261.491 183.678 261.931 183.434 262.453 183.583C262.781 183.681 263.12 183.6 263.361 183.37C263.611 183.132 263.72 182.758 263.636 182.419Z" fill="#6458B8"/>
<path d="M304.232 216.354C303.721 216.656 303.158 216.944 302.489 216.944C302.334 216.944 302.168 216.932 301.995 216.892C301.579 216.809 301.24 216.599 300.939 216.418L300.807 216.337C299.669 215.664 299.003 215.452 298.07 216.009C297.777 216.182 297.433 216.188 297.14 216.027C296.838 215.857 296.64 215.523 296.634 215.176C296.629 214.836 296.807 214.531 297.1 214.35C298.923 213.269 300 213.79 301.504 214.517C302.36 214.934 302.722 215.043 303.374 214.678C303.44 214.641 303.503 214.6 303.566 214.557C303.799 215.158 304.02 215.759 304.232 216.354Z" fill="#6458B8"/>
<path d="M275.662 231.12C275.581 230.789 275.337 230.533 275.004 230.436C274.298 230.231 273.729 230.254 273.043 230.516C272.687 230.651 272.4 230.838 272.121 231.022C271.992 231.106 271.863 231.189 271.731 231.267C271.076 231.635 270.72 231.522 269.856 231.106C268.36 230.378 267.277 229.855 265.457 230.942C265.161 231.12 264.986 231.425 264.989 231.761C264.995 232.109 265.193 232.443 265.497 232.615C265.787 232.776 266.137 232.77 266.433 232.595C267.361 232.043 268.024 232.25 269.161 232.923L269.302 233.009C269.597 233.19 269.936 233.394 270.353 233.484C270.525 233.518 270.689 233.535 270.846 233.535C271.627 233.535 272.265 233.141 272.842 232.791C273.517 232.376 273.956 232.132 274.476 232.282C274.806 232.379 275.145 232.299 275.386 232.069C275.636 231.83 275.745 231.459 275.662 231.12Z" fill="#6458B8"/>
<path d="M268.498 208.413C268.713 208.151 268.77 207.803 268.65 207.478C268.394 206.788 268.038 206.342 267.418 205.948C267.099 205.741 266.775 205.623 266.465 205.508C266.321 205.454 266.177 205.402 266.037 205.339C265.351 205.034 265.227 204.68 265.049 203.737C264.736 202.101 264.512 200.919 262.554 200.103C262.235 199.967 261.888 200.011 261.618 200.218C261.342 200.427 261.193 200.787 261.236 201.129C261.279 201.463 261.494 201.739 261.81 201.871C262.806 202.288 263.036 202.946 263.174 204.263L263.188 204.424C263.223 204.772 263.26 205.163 263.438 205.552C263.51 205.713 263.596 205.853 263.688 205.98C264.156 206.61 264.848 206.891 265.477 207.142C266.209 207.438 266.666 207.645 266.855 208.154C266.976 208.479 267.243 208.7 267.57 208.758C267.909 208.818 268.274 208.68 268.498 208.413Z" fill="#6458B8"/>
<path d="M222.269 185.737C222.053 185.998 221.689 186.139 221.341 186.076C221.017 186.024 220.747 185.8 220.632 185.472C220.442 184.966 219.983 184.756 219.254 184.463C218.628 184.213 217.93 183.931 217.465 183.304C217.37 183.175 217.287 183.028 217.215 182.876C217.12 182.663 217.063 182.459 217.028 182.255C217.709 181.795 218.315 181.415 218.846 181.148C219.012 182.025 219.15 182.37 219.811 182.657C219.951 182.72 220.098 182.772 220.239 182.83C220.552 182.945 220.876 183.06 221.198 183.264C221.815 183.661 222.174 184.109 222.429 184.802C222.544 185.121 222.487 185.472 222.269 185.737Z" fill="#6458B8"/>
<path d="M201.893 213.183C202.111 212.921 202.169 212.573 202.048 212.248C201.793 211.558 201.437 211.113 200.816 210.719C200.495 210.512 200.173 210.394 199.86 210.279C199.72 210.224 199.576 210.172 199.435 210.109C198.749 209.804 198.626 209.448 198.445 208.507C198.134 206.871 197.911 205.689 195.952 204.873C195.634 204.738 195.286 204.781 195.016 204.985C194.741 205.198 194.591 205.557 194.634 205.899C194.677 206.23 194.893 206.509 195.209 206.641C196.205 207.058 196.435 207.717 196.572 209.034L196.587 209.195C196.618 209.543 196.656 209.934 196.834 210.322C196.908 210.483 196.995 210.624 197.089 210.75C197.552 211.38 198.249 211.662 198.875 211.912C199.608 212.208 200.067 212.415 200.254 212.924C200.374 213.249 200.641 213.47 200.969 213.528C201.307 213.585 201.672 213.45 201.893 213.183Z" fill="#6458B8"/>
<path d="M241.17 241.236C241.389 240.974 241.446 240.626 241.328 240.301C241.07 239.608 240.714 239.165 240.097 238.771C239.772 238.564 239.453 238.446 239.138 238.329C238.997 238.274 238.853 238.222 238.71 238.162C238.026 237.854 237.903 237.5 237.722 236.557C237.412 234.924 237.188 233.739 235.23 232.923C234.911 232.79 234.563 232.834 234.294 233.038C234.018 233.248 233.869 233.607 233.912 233.949C233.955 234.283 234.17 234.559 234.486 234.691C235.482 235.111 235.712 235.767 235.85 237.084L235.867 237.245C235.899 237.592 235.933 237.986 236.114 238.375C236.186 238.533 236.272 238.674 236.367 238.803C236.832 239.43 237.527 239.712 238.153 239.965C238.885 240.258 239.344 240.465 239.531 240.977C239.652 241.299 239.916 241.523 240.246 241.581C240.588 241.638 240.949 241.503 241.17 241.236Z" fill="#6458B8"/>
<path d="M344.391 248.053C344.233 247.884 344.07 247.72 343.892 247.567C342.777 246.636 341.284 246.202 339.306 246.59C335.366 247.363 332.567 250.638 330.542 254.336C330.537 254.342 330.531 254.356 330.531 254.362C329.618 256.036 328.863 257.795 328.242 259.44C328.323 259.015 328.392 258.589 328.466 258.163C329.087 254.454 329.469 250.633 328.84 246.918C328.421 244.439 327.186 241.607 324.579 241.011C324.375 240.96 324.159 240.925 323.935 240.914C323.889 240.905 323.844 240.899 323.8 240.899C320.363 240.721 317.684 243.884 316.105 246.552C314.087 249.957 313.033 253.856 312.088 257.669C310.994 262.126 310.156 266.643 309.584 271.192C309.113 274.922 308.812 278.688 308.706 282.47C308.68 283.229 308.66 283.991 308.654 284.753C308.516 284.339 308.373 283.933 308.226 283.525C307.893 282.553 307.546 281.59 307.207 280.626C304.984 274.344 302.63 267.911 298.392 262.672C297.036 260.984 294.857 258.477 292.402 259.153C292.336 259.173 292.261 259.193 292.192 259.219C292.046 259.265 291.908 259.325 291.77 259.383C289.496 260.429 288.141 263.184 287.923 265.332C287.294 271.511 289.235 278.51 291.549 284.261C293.906 290.136 297.596 295.418 302.429 299.501C300.999 301.511 300.453 304.444 302.506 306.137C304.014 307.38 306.044 308.297 307.821 309.099C308.803 309.536 309.825 309.933 310.876 310.209C311.092 310.261 311.316 310.313 311.537 310.359C311.982 310.451 312.436 310.522 312.889 310.568C314.311 310.712 315.706 310.543 317.067 310.195C317.305 310.143 317.532 310.077 317.765 310.005C317.816 309.99 317.862 309.97 317.914 309.956C318.129 309.893 318.348 309.827 318.557 309.746C320.504 309.085 322.391 308.133 324.205 307.302C324.975 306.945 325.733 306.583 326.488 306.209C326.735 306.086 326.991 305.953 327.238 305.824C328.131 305.364 329.003 304.872 329.856 304.34C330.956 303.659 332.116 302.805 333.348 302.227C332.845 303.808 332.337 305.39 331.835 306.971C331.682 307.457 332.417 307.641 332.59 307.181C333.23 305.395 333.847 303.604 334.442 301.798C335.22 301.574 336.035 301.499 336.874 301.686C337.115 301.747 337.221 301.378 336.98 301.307C336.162 301.071 335.392 301.051 334.657 301.169C336.65 295.11 338.416 288.968 340.185 282.849C341.396 278.668 342.582 274.479 343.757 270.286C344.836 266.433 346.082 262.574 346.588 258.589C346.984 255.426 346.671 250.561 344.391 248.053Z" fill="#3D826C"/>
<path d="M311.537 310.359C311.316 310.313 311.092 310.261 310.876 310.209C310.704 301.252 309.82 292.33 308.226 283.525C308.373 283.933 308.516 284.339 308.654 284.753C308.66 283.991 308.68 283.229 308.706 282.47C310.417 291.665 311.362 300.999 311.537 310.359Z" fill="#4F332E"/>
<path d="M330.531 254.362C330.123 255.432 329.73 256.501 329.342 257.58C323.289 274.487 319.396 292.137 317.765 310.005C317.532 310.077 317.305 310.143 317.067 310.195C317.09 310.005 317.101 309.806 317.121 309.617C318.758 292.065 322.586 274.758 328.466 258.163C328.392 258.589 328.323 259.015 328.242 259.44C328.863 257.795 329.618 256.036 330.531 254.362Z" fill="#4F332E"/>
<path d="M345.276 311.851H292.664V299.098C292.664 298.152 293.43 297.382 294.378 297.382H343.559C344.509 297.382 345.276 298.152 345.276 299.098V311.851Z" fill="#B4B2C2"/>
<path d="M84.0342 161.244C84.0342 161.244 85.0478 164.326 88.3872 163.883C92.2406 163.377 92.0999 155.999 92.0999 155.999L85.5129 156.284L84.0342 161.244Z" fill="#4F332E"/>
<path d="M130.192 188.115C130.192 188.115 116.452 199.956 115.815 199.956C115.174 199.956 108.995 197.817 108.995 197.817L107.577 190.585L106.029 182.68L105.799 181.496L113.469 163.475L119.111 163.044L130.192 188.115Z" fill="#FFA694"/>
<path d="M118.261 176.486C118.261 176.486 113.388 183.919 112.352 186.804C111.312 189.685 110.672 194.498 110.672 194.498L109.905 192.675L108.783 191.847L109.509 189.567C109.509 189.567 109.047 188.56 108.955 188.167C108.866 187.773 107.583 185.981 107.583 185.981L118.261 176.486Z" fill="#4F332E"/>
<path d="M107.967 192.566L113.868 194.087L126.849 180.406L132.003 187.517L140.747 191.847L130.192 214.566L121.695 224.728L113.549 225.128L103.617 216.648L101.535 205.687L107.967 192.566Z" fill="white"/>
<path d="M118.528 204.007C118.517 204.007 118.505 204.005 118.494 204.005C118.387 203.993 118.293 203.927 118.244 203.832C115.476 198.452 114.367 196.203 113.925 195.243L111.108 200.741C111.028 200.896 110.833 200.959 110.678 200.876C110.52 200.796 110.46 200.603 110.54 200.448L113.664 194.352C113.733 194.219 113.879 194.153 114.023 194.188C114.166 194.222 114.267 194.349 114.267 194.498C114.376 194.843 116.837 199.691 118.591 203.11L131.757 187.313C131.871 187.175 132.072 187.16 132.207 187.272C132.342 187.384 132.36 187.586 132.248 187.721L118.772 203.892C118.712 203.964 118.623 204.007 118.528 204.007Z" fill="#4F332E"/>
<mask id="mask1_710_11336" style="mask-type:luminance" maskUnits="userSpaceOnUse" x="26" y="188" width="173" height="124">
<path d="M26.9771 188.736H198.551V311.851H26.9771V188.736Z" fill="white"/>
</mask>
<g mask="url(#mask1_710_11336)">
<path d="M193.985 294.173C186.528 306.974 172.789 307.529 172.789 307.529V311.851H65.063C65.063 311.851 64.6724 292.381 64.9481 287.605C64.9739 287.07 65.0113 286.742 65.063 286.676C65.1204 286.604 64.9538 286.705 64.5949 286.929C61.9389 288.574 48.5496 296.893 35.3987 288.81C20.4905 279.637 29.2252 260.648 32.6307 253.18C36.039 245.718 55.4266 205.606 66.7111 197.733C78.0014 189.863 90.6499 191.749 90.6499 191.749L112.607 216.216C113.322 217.013 114.589 216.944 115.212 216.073L134.717 188.857C134.717 188.857 148.457 189.765 159.799 194.495C165.076 196.698 171.557 201.831 176.969 208.539C177.116 208.712 177.257 208.89 177.391 209.068C179.264 211.423 180.989 213.971 182.482 216.648C188.395 227.206 192.176 250.408 194.944 259.797C195.877 262.96 196.92 266.442 197.609 270.166C197.718 270.755 197.821 271.35 197.91 271.951C198.918 278.8 198.531 286.372 193.985 294.173Z" fill="#E6694D"/>
</g>
<path d="M33.469 259.348C33.4145 259.348 33.3599 259.337 33.3082 259.308C33.1561 259.219 33.1044 259.023 33.1905 258.871L43.4586 241.046C43.5447 240.896 43.74 240.842 43.895 240.931C44.0472 241.02 44.0989 241.216 44.0099 241.368L33.7447 259.19C33.6873 259.291 33.5782 259.348 33.469 259.348Z" fill="#4F332E"/>
<path d="M65.0628 286.676C65.1202 286.604 64.9536 286.705 64.5947 286.929C67.5494 281.342 68.8444 275.845 68.8645 275.778L69.4847 275.919C69.4646 275.991 68.0978 281.814 64.9479 287.605C64.9737 287.07 65.0111 286.743 65.0628 286.676Z" fill="#4F332E"/>
<path d="M177.392 209.068C171.755 218.137 166.756 228.578 163.147 238.892C160.898 245.316 159.288 252.047 157.734 258.555C157.358 260.13 156.982 261.712 156.597 263.288C156.56 263.434 156.431 263.529 156.284 263.529C156.258 263.529 156.232 263.529 156.207 263.52C156.034 263.477 155.934 263.305 155.971 263.132C156.362 261.559 156.738 259.984 157.114 258.402C158.667 251.881 160.284 245.135 162.541 238.682C166.202 228.25 171.261 217.692 176.97 208.539C177.116 208.712 177.257 208.89 177.392 209.068Z" fill="#4F332E"/>
<path d="M197.91 271.951C195.2 266.637 191.272 262.114 185.5 260.176C180.619 258.529 175.243 258.517 170.164 258.857C164.533 259.242 159.517 261.309 156.246 266.077C156.091 266.295 155.793 266.241 155.658 266.039C155.534 265.852 155.83 265.645 155.887 265.499C156.071 265.033 156.623 264.533 156.956 264.165C157.708 263.305 158.558 262.531 159.471 261.853C161.263 260.516 163.313 259.541 165.478 259.009C167.204 258.583 168.829 257.525 170.494 256.884C172.318 256.182 174.184 255.604 176.088 255.202C179.958 254.391 183.993 254.351 187.814 255.446C188.211 255.561 188.036 256.174 187.642 256.067C181.147 254.204 174.56 255.702 168.553 258.385C169.173 258.307 169.805 258.244 170.451 258.198C175.826 257.864 181.563 257.922 186.652 259.915C191.378 261.769 194.861 265.384 197.368 269.737C197.451 269.878 197.525 270.019 197.609 270.166C197.718 270.755 197.821 271.35 197.91 271.951Z" fill="#4F332E"/>
<path d="M162.627 263.561C163.388 262.523 164.692 261.818 165.857 261.49C167.463 261.039 169.165 261.105 170.825 261.249C177.079 261.789 183.674 263.673 187.625 268.561C190.066 271.583 191.226 275.436 191.981 279.252C192.929 284.04 193.271 289.236 191.088 293.6C188.829 298.109 184.237 300.979 179.56 302.848C176.479 304.079 173.174 304.987 169.872 304.662C164.169 304.099 159.092 299.472 158.044 293.828C157.462 290.688 158.027 287.461 158.59 284.316C159.385 279.882 160.181 275.448 160.976 271.017C161.349 268.926 161.479 266.56 162.119 264.544C162.231 264.188 162.406 263.86 162.627 263.561Z" fill="white"/>
<path d="M119.476 159.639C118.063 156.312 115.413 148.011 115.413 148.011L114.376 146.904C113.828 146.878 113.282 146.832 112.74 146.737C111.086 146.455 112.234 142.801 110.767 142.033C109.679 141.464 105.685 140.44 104.344 140.9C103.577 141.162 102.914 141.855 102.293 142.361C99.9418 144.273 97.3604 145.265 94.3885 145.797C92.6054 146.122 91.1151 149.452 89.3894 150.041C89.243 150.09 89.0966 150.168 88.9444 150.225L85.0508 156.356C85.0508 156.356 89.9005 169.965 92.3297 174.885C93.8889 178.054 96.1114 180.992 99.1091 182.899C99.3015 183.028 99.5053 183.149 99.7121 183.264C99.7925 183.321 99.8815 183.367 99.9734 183.416C102.575 184.845 105.423 185.291 108.119 184.774C108.188 184.759 108.257 184.742 108.326 184.728C109.549 182.89 111.447 181.642 113.32 180.458C114.373 179.023 115.795 177.907 117.394 177.131C117.48 176.958 117.566 176.783 117.647 176.607C118.224 175.339 118.663 173.991 118.965 172.619C119.011 172.409 119.059 172.185 119.105 171.94C119.148 171.736 119.194 171.518 119.235 171.293C119.892 167.987 120.708 162.532 119.476 159.639Z" fill="#FFA694"/>
<path d="M96.5675 164.269C97.1848 165.528 97.0498 166.862 96.2602 167.251C95.4735 167.639 94.3335 166.931 93.7162 165.672C93.0988 164.413 93.2367 163.078 94.0234 162.69C94.8102 162.302 95.9501 163.009 96.5675 164.269Z" fill="#4F332E"/>
<path d="M107.979 160.772C108.625 162.083 108.481 163.475 107.66 163.88C106.839 164.286 105.65 163.547 105.007 162.236C104.361 160.922 104.505 159.53 105.326 159.127C106.147 158.722 107.333 159.458 107.979 160.772Z" fill="#4F332E"/>
<path d="M102.804 169.082C102.371 169.252 101.934 169.321 101.469 169.301C100.774 169.272 100.631 168.659 100.582 168.079C100.507 167.196 100.507 166.305 100.536 165.419C100.55 165.008 99.9099 165.008 99.8984 165.419C99.8726 166.253 99.8726 167.089 99.93 167.923C99.9616 168.386 99.9788 168.89 100.217 169.304C100.743 170.221 102.147 170.022 102.974 169.7C103.353 169.551 103.189 168.933 102.804 169.082Z" fill="#4F332E"/>
<path d="M107.548 168.996C107.212 170.934 105.67 172.142 103.844 172.613C103.448 172.717 103.614 173.332 104.014 173.231C106.038 172.708 107.792 171.311 108.163 169.166C108.235 168.763 107.617 168.59 107.548 168.996Z" fill="#4F332E"/>
<path d="M107.183 155.013C105.638 154.239 102.681 153.805 101.974 155.967C101.759 156.629 101.831 157.575 102.709 157.615C103.177 157.635 103.763 157.302 104.223 157.181C105.228 156.919 106.324 156.931 107.289 156.534C107.556 156.425 107.835 156.232 107.875 155.944C107.935 155.516 107.602 155.223 107.183 155.013Z" fill="#4F332E"/>
<path d="M93.688 157.747C92.9414 157.854 92.571 158.498 92.1949 159.073C91.701 159.832 90.9544 160.315 90.3055 160.939C90.1677 161.074 90.0241 161.218 89.9753 161.405C89.8633 161.819 90.3055 161.997 90.6185 162.075C92.103 162.446 93.7023 161.759 94.6729 160.617C95.4539 159.697 95.3534 157.514 93.688 157.747Z" fill="#4F332E"/>
<path d="M122.867 158.049C122.697 153.696 122.011 148.526 121.216 144.244C120.607 140.946 119.636 137.7 117.402 135.054C115.459 132.754 113.026 132.918 110.566 133.867C108.645 130.454 104.576 129.045 100.769 129.384C95.7523 129.83 91.2528 132.291 87.5114 135.529C85.309 137.438 83.1555 139.103 80.3817 140.095C78.8743 140.633 75.8708 140.86 75.0467 142.536C74.3691 143.908 75.0984 145.949 75.8421 147.157C76.3159 147.928 76.9217 148.577 77.6195 149.098C75.7358 150.662 74.1451 152.781 75.3338 155.254C76.0316 156.703 77.5649 157.146 79.0322 157.405C79.1872 157.434 79.3394 157.454 79.4945 157.477C79.4514 158.938 79.8735 160.373 81.1427 161.293C82.6932 162.42 84.6515 162.032 85.8632 160.709C85.8489 160.764 85.8316 160.818 85.8173 160.873C85.7168 161.273 86.3341 161.442 86.4346 161.043C87.2616 157.71 89.1768 154.193 91.0949 151.352C91.6031 150.599 92.1487 149.88 92.7287 149.187C98.147 147.2 103.591 145.294 109.061 143.459C110.801 148.115 113.538 152.359 115.278 157.034C116.067 159.148 122.758 171.293 122.758 171.293C122.758 171.293 123.096 163.964 122.867 158.049Z" fill="#4F332E"/>
<path d="M123.134 156.102C123.134 160.795 120.596 164.599 117.463 164.599C114.33 164.599 111.792 160.795 111.792 156.102C111.792 151.407 114.33 147.603 117.463 147.603C120.596 147.603 123.134 151.407 123.134 156.102Z" fill="#FFA694"/>
<path d="M80.8268 201.057C80.8268 201.057 78.9087 193.27 81.9954 188.098C85.085 182.925 86.7877 180.897 87.2156 177.536C87.6405 174.178 85.7253 171.722 87.2156 170.391C88.7058 169.056 91.4767 170.977 92.4874 175.032C93.4982 179.083 91.6892 182.232 91.6892 185.11C91.6892 187.991 92.7947 190.142 92.7947 190.142L91.0489 196.525L80.8268 201.057Z" fill="#FFA694"/>
<path d="M118.261 176.487C114.637 179.635 107.398 185.817 107.398 185.817C107.398 185.817 108.625 187.315 109.207 188.756C109.793 190.194 108.785 191.847 108.785 191.847C108.785 191.847 110.23 192.647 110.517 194.136C110.721 195.2 110.637 196.198 110.568 196.698C110.543 196.902 110.517 197.017 110.517 197.017C110.517 197.017 110.637 197.075 110.824 197.204C111.315 197.543 112.228 198.395 112.191 199.956C112.139 202.087 109.902 204.117 106.549 205.977C103.192 207.846 90.3022 211.846 90.3022 211.846L81.4096 206.886L80.8267 201.057L91.4738 189.018C91.4738 189.018 115.863 172.007 117.781 171.685C119.699 171.365 121.885 173.335 118.261 176.487Z" fill="#FFA694"/>
<path d="M119.809 171.647C119.622 171.486 119.43 171.371 119.234 171.293C117.974 170.796 116.42 171.805 115.355 172.51C115.1 172.677 114.87 172.832 114.663 172.947C112.989 173.913 111.212 174.988 109.251 176.231C106.727 177.829 104.203 179.512 101.762 181.139C100.881 181.72 99.9904 182.315 99.1089 182.899C99.3013 183.028 99.5051 183.149 99.7119 183.264C100.51 182.738 101.314 182.209 102.112 181.671C104.556 180.043 107.08 178.367 109.589 176.774C111.551 175.532 113.316 174.462 114.985 173.502C115.194 173.381 115.438 173.22 115.705 173.048C116.742 172.369 118.126 171.46 119.105 171.94C119.206 171.986 119.303 172.05 119.392 172.127C119.654 172.363 119.82 172.766 119.835 173.22C119.892 174.681 118.761 175.658 117.647 176.607C117.635 176.613 117.615 176.627 117.603 176.639L117.253 176.932C116.013 178.008 110.37 182.847 108.119 184.774C107.545 185.265 107.186 185.573 107.186 185.573C107.117 185.639 107.08 185.734 107.08 185.829C107.08 185.927 107.129 186.016 107.2 186.073C107.212 186.079 108.464 187.077 108.9 188.831C109.322 190.542 108.561 191.609 108.53 191.655C108.464 191.738 108.447 191.847 108.478 191.948C108.51 192.046 108.593 192.12 108.696 192.155C108.696 192.155 109.139 192.31 109.512 192.566C109.839 192.79 110.106 193.115 110.106 193.115C110.106 193.115 110.402 193.015 110.706 193.138C110.299 192.235 109.624 191.913 109.239 191.698C109.495 191.186 109.871 190.119 109.521 188.678C109.162 187.226 108.332 186.26 107.884 185.823C108.208 185.541 108.803 185.035 109.538 184.408C111.711 182.539 115.169 179.578 116.883 178.1C117.219 177.809 117.494 177.573 117.672 177.421L118.011 177.125C119.194 176.127 120.538 174.988 120.472 173.203C120.452 172.567 120.211 171.998 119.809 171.647Z" fill="#4F332E"/>
<path d="M92.6482 174.807C92.0882 173.864 91.6346 172.881 91.2843 171.843C91.155 171.455 90.5377 171.621 90.6698 172.012C91.0344 173.102 91.5082 174.143 92.0969 175.132C92.3065 175.486 92.8606 175.164 92.6482 174.807Z" fill="#4F332E"/>
<path d="M106.56 193.607C106.454 193.607 106.35 193.555 106.29 193.46C106.195 193.311 106.238 193.112 106.385 193.017L108.61 191.577C108.757 191.482 108.955 191.522 109.05 191.672C109.147 191.821 109.104 192.02 108.955 192.114L106.732 193.555C106.678 193.59 106.62 193.607 106.56 193.607Z" fill="#4F332E"/>
<path d="M104.162 188.563C104.062 188.563 103.967 188.517 103.904 188.434C103.801 188.29 103.829 188.089 103.973 187.985L108.409 184.725C108.55 184.621 108.751 184.65 108.857 184.794C108.961 184.935 108.932 185.136 108.788 185.239L104.352 188.5C104.295 188.543 104.228 188.563 104.162 188.563Z" fill="#4F332E"/>
<path d="M110.824 197.204C110.804 197.236 110.773 197.262 110.741 197.287L108.516 198.728C108.458 198.76 108.401 198.777 108.344 198.777C108.234 198.777 108.134 198.728 108.077 198.63C107.979 198.484 108.019 198.285 108.171 198.187L110.388 196.75C110.445 196.709 110.511 196.698 110.569 196.698C110.543 196.902 110.517 197.017 110.517 197.017C110.517 197.017 110.638 197.075 110.824 197.204Z" fill="#4F332E"/>
<path d="M82.076 197.736L61.8672 219.368L74.0878 225.688C74.0878 225.688 75.1272 230.887 75.9255 230.887C76.7237 230.887 81.1658 232.008 81.4385 231.686C81.7113 231.367 94.1387 209.767 94.1387 209.767L82.076 197.736Z" fill="#FFA694"/>
<path d="M103.723 279.12C103.52 279.177 103.307 279.209 103.083 279.209H54.3069C53.2157 279.209 52.2567 278.473 51.9696 277.412L33.5525 208.335C33.4951 208.116 33.4692 207.904 33.4692 207.694C33.4692 207.475 33.5008 207.26 33.564 207.053C33.8396 206.055 34.7527 205.287 35.8898 205.287H84.6545C85.18 205.287 85.671 205.454 86.0673 205.741C86.2453 205.868 86.4003 206.017 86.5324 206.184C86.7449 206.446 86.9057 206.745 86.9947 207.084L105.418 276.164C105.768 277.481 104.964 278.78 103.723 279.12Z" fill="#4F332E"/>
<path d="M78.3459 212.268C78.0789 212.268 77.8089 212.303 77.539 212.375C76.7379 212.591 76.066 213.105 75.6497 213.827C75.2304 214.549 75.1213 215.388 75.3367 216.193L78.2081 226.939C78.4205 227.744 78.9374 228.417 79.6581 228.834C80.376 229.251 81.2173 229.363 82.0213 229.147C82.8252 228.935 83.4972 228.417 83.9135 227.695C84.3299 226.973 84.439 226.134 84.2265 225.329L81.3551 214.583C80.9818 213.189 79.7213 212.268 78.3459 212.268ZM81.2087 229.895C80.5597 229.895 79.9165 229.725 79.3365 229.392C78.4694 228.889 77.8491 228.078 77.5878 227.106L74.7193 216.36C74.4609 215.391 74.593 214.376 75.0955 213.508C75.598 212.637 76.4077 212.015 77.3754 211.757C79.3738 211.219 81.4384 212.412 81.9724 214.416L84.8438 225.162C85.1023 226.134 84.9673 227.146 84.4677 228.014C83.9652 228.886 83.1555 229.507 82.1849 229.766C81.8633 229.852 81.536 229.895 81.2087 229.895Z" fill="#B4B2C2"/>
<path d="M103.723 279.12C103.52 279.177 103.307 279.209 103.083 279.209L84.175 208.085L33.4692 207.694C33.4692 207.475 33.5008 207.26 33.564 207.052L84.2899 207.449H84.6689L84.7263 207.688L84.7751 207.872L103.723 279.12Z" fill="#B4B2C2"/>
<path d="M86.5322 206.184L84.775 207.872L84.6429 208.001L84.2007 207.533L84.2897 207.449L86.0671 205.741C86.2451 205.868 86.4002 206.017 86.5322 206.184Z" fill="#B4B2C2"/>
<path d="M117.302 243.131L117.021 258.408C117.021 258.408 100.662 263.811 99.2496 264.167C97.8369 264.527 91.2126 264.13 88.1747 263.529C85.1397 262.925 79.5031 262.324 76.514 261.45C74.2772 260.797 74.6275 259.029 74.9491 258.172C75.0554 257.876 75.1645 257.692 75.1645 257.692C75.1645 257.692 74.2916 257.68 73.3239 257.442C72.3218 257.194 71.2221 256.706 70.8976 255.728C70.5387 254.652 70.5846 253.965 70.6908 253.568C70.7741 253.258 70.8976 253.128 70.8976 253.128C70.8976 253.128 70.3807 253.031 69.9242 252.576C69.5538 252.194 69.2236 251.547 69.2982 250.486C69.4131 248.752 70.8258 248.467 71.535 248.444C71.7734 248.43 71.9313 248.45 71.9313 248.45C71.9313 248.45 71.9255 248.263 71.983 247.981C72.0921 247.355 72.4883 246.262 73.8494 245.928C77.7344 244.968 92.5909 245.903 94.1903 244.488C95.7867 243.073 96.0308 240.954 96.0308 240.954L94.1386 233.869C94.1386 233.869 98.2533 233.909 103.003 235.048C111.154 237.006 117.302 243.131 117.302 243.131Z" fill="#FFA694"/>
<path d="M177.902 299.159C170.451 302.572 161.716 300.01 148.936 290.728C142.653 286.167 132.325 277.992 123.449 270.864C121.336 269.168 119.303 267.529 117.431 266.013C111.168 260.944 106.649 257.238 106.649 257.238L117.302 243.131C117.302 243.131 121.54 244.778 127.481 247.087C129.445 247.855 131.598 248.695 133.847 249.572C143.931 253.505 155.919 258.224 161.504 260.539C173.696 265.608 183.013 268.176 186.1 277.668C189.187 287.159 185.359 295.743 177.902 299.159Z" fill="#FFA694"/>
<path d="M90.7447 249.787L90.7189 250.428C90.7189 250.428 80.5456 249.997 76.0231 249.787C73.4475 249.666 72.1697 249.019 71.5352 248.444C71.7735 248.43 71.9314 248.45 71.9314 248.45C71.9314 248.45 71.9257 248.263 71.9831 247.981C72.4999 248.456 73.6255 249.031 76.049 249.149C80.5771 249.359 90.7447 249.787 90.7447 249.787Z" fill="#4F332E"/>
<path d="M90.4116 254.589C90.4002 254.756 90.2595 254.888 90.0929 254.888H90.0728C89.9522 254.883 77.8493 254.184 73.3757 253.974C72.253 253.922 71.3744 253.767 70.691 253.569C70.7742 253.258 70.8977 253.129 70.8977 253.129C70.8977 253.129 70.3809 253.031 69.9243 252.577C70.5761 252.924 71.65 253.249 73.4016 253.341C77.8809 253.551 89.9838 254.241 90.113 254.247C90.2853 254.262 90.4203 254.408 90.4116 254.589Z" fill="#4F332E"/>
<path d="M90.8478 258.73C90.8334 258.894 90.6927 259.029 90.5262 259.029H90.509C90.3941 259.023 80.0399 258.428 74.9489 258.172C75.0552 257.876 75.1643 257.692 75.1643 257.692C75.1643 257.692 74.2914 257.68 73.3237 257.442C73.4903 257.456 73.6626 257.468 73.8435 257.473C78.3171 257.683 90.4257 258.385 90.5463 258.391C90.7272 258.396 90.8593 258.549 90.8478 258.73Z" fill="#4F332E"/>
<path d="M134.31 188.98C134.264 188.98 134.215 188.969 134.169 188.946L131.86 187.804C131.814 187.778 131.774 187.744 131.743 187.701L126.884 180.803C126.784 180.659 126.818 180.458 126.962 180.357C127.105 180.256 127.306 180.288 127.407 180.435L132.216 187.267L134.453 188.374C134.611 188.451 134.674 188.644 134.597 188.802C134.542 188.914 134.43 188.98 134.31 188.98Z" fill="#4F332E"/>
<path d="M133.847 249.572C131.599 248.695 129.445 247.855 127.481 247.087C127.935 249.379 128.127 251.708 127.739 254.02C127.177 257.358 125.368 260.303 122.881 262.569C121.239 264.067 119.392 265.185 117.431 266.013C119.303 267.529 121.336 269.168 123.45 270.864C125.744 269.944 127.886 268.636 129.764 266.844C132.225 264.489 133.982 261.436 134.487 258.037C134.909 255.19 134.524 252.341 133.847 249.572Z" fill="#4F332E"/>
<path d="M128.411 261.013C131.036 262.528 132.107 265.599 130.8 267.862C129.494 270.128 126.307 270.735 123.682 269.219C121.058 267.701 119.987 264.633 121.293 262.367C122.6 260.101 125.787 259.492 128.411 261.013Z" fill="white"/>
</svg>
