<svg width="350" height="331" viewBox="0 0 350 331" fill="none" xmlns="http://www.w3.org/2000/svg">
<path d="M319.575 256.197C321.726 254.267 323.932 252.475 325.935 250.478C328.398 248.034 330.843 245.528 333.046 242.849C335.024 240.449 336.718 237.804 338.449 235.214C339.456 233.684 340.373 232.07 341.176 230.426C342.314 228.041 343.43 225.641 344.37 223.158C345.318 220.629 346.137 218.029 346.848 215.414C347.496 213.056 348.025 210.643 348.405 208.249C349.037 204.252 349.711 200.245 349.949 196.226C350.148 193.083 349.711 189.919 349.56 186.765C349.311 181.994 347.941 177.466 346.61 172.927C346.135 171.35 345.379 169.851 344.703 168.329C344.261 167.348 343.78 166.38 343.276 165.415C342.532 163.955 341.811 162.512 341.011 161.089C339.845 159.033 338.64 157.009 337.398 154.995C336.785 154.019 336.042 153.121 335.359 152.207C333.259 149.346 330.999 146.619 328.356 144.231C326.287 142.357 324.318 140.369 322.201 138.554C320 136.671 317.724 134.831 315.361 133.148C312.911 131.377 310.366 129.655 307.748 128.147C306.263 127.303 304.879 126.343 303.492 125.384C301.758 124.173 299.741 123.365 297.915 122.288C295.286 120.742 292.61 119.251 290.138 117.486C287.35 115.506 284.629 113.381 282.131 111.04C280.065 109.102 278.289 106.801 276.552 104.555C275.089 102.689 273.82 100.659 272.516 98.6623C271.988 97.8345 271.61 96.9228 271.174 96.0502C270.64 94.9651 270.12 93.8549 269.605 92.7642C269.085 91.6539 268.604 90.5325 268.07 89.4474C267.471 88.2084 266.856 86.9947 266.238 85.7586C266.202 85.7055 266.185 85.6439 266.168 85.5852C265.511 83.7338 264.912 81.8685 264.194 80.0339C263.363 77.8637 262.449 75.7159 261.576 73.5568C261.123 72.4522 260.743 71.3028 260.209 70.2177C259.168 68.0838 258.215 65.8605 256.917 63.8833C255.331 61.4865 253.586 59.1374 251.595 57.0678C249.663 55.071 247.417 53.3315 245.14 51.7319C241.874 49.4274 238.146 47.8809 234.482 46.3343C231.968 45.2744 229.286 44.5613 226.672 43.767C224.907 43.2357 223.114 42.8413 221.31 42.4051C219.37 41.9436 217.437 41.2864 215.457 41.0711C211.83 40.6851 208.152 40.5033 204.494 40.3188C202.461 40.2265 200.417 40.1817 198.398 40.3048C195.85 40.4614 193.291 40.8166 190.738 41.0431C189.577 41.1438 188.391 41.1466 187.22 41.2081C187.113 41.2137 187.027 41.2165 186.926 41.2445C184.739 41.6919 182.549 42.1422 180.348 42.6148C178.058 43.0902 175.712 43.4314 173.477 44.1082C171.128 44.8381 168.874 45.9092 166.595 46.8154C166.242 46.9552 165.856 47.0391 165.49 47.1174C163.029 47.6851 160.873 48.8793 158.75 50.1965C157.162 51.1725 155.344 51.799 153.624 52.5317C151.434 53.4546 149.256 54.3327 147.052 55.1941C146.465 55.4206 145.847 55.5269 145.243 55.6919C143.173 56.2568 141.106 56.9112 139.009 57.3783C137.502 57.7055 135.935 57.7446 134.403 57.9068C134.277 57.918 134.134 57.8705 134.02 57.9236C132.297 58.5025 130.479 58.3319 128.712 58.578C126.444 58.8969 124.234 58.8773 121.991 58.6507C119.723 58.4074 117.453 58.1641 115.201 57.8313C112.701 57.4594 110.179 57.0063 107.706 56.4945C105.503 56.0191 103.346 55.2472 101.109 54.8893C97.9909 54.3831 94.8028 54.1761 91.6594 53.7426C89.727 53.4714 87.8113 53.0239 85.8788 52.6687C85.0818 52.5205 84.3015 52.431 83.4961 52.3275C80.2576 51.9416 77.0107 51.4494 73.7471 51.1977C70.7491 50.9824 67.7372 50.7922 64.7616 51.0467C61.2574 51.3375 57.7169 51.5081 54.2575 52.5205C51.9783 53.1889 49.8668 54.1565 47.8085 55.2388C45.6076 56.4246 43.5744 57.9124 41.4714 59.308C39.0439 60.9244 36.9716 62.9827 35.028 65.1138C32.8718 67.4965 31.0568 70.089 29.2362 72.7486C26.2997 77.0107 24.6162 81.7482 23.2822 86.6507C22.5243 89.4054 21.9175 92.23 21.4784 95.049C20.9442 98.6092 20.5583 102.172 20.3094 105.76C20.136 108.355 20.2758 110.995 20.2591 113.616C20.2423 116.234 20.1808 118.843 20.2087 121.469C20.2311 123.365 20.4464 125.25 20.508 127.135C20.6058 130.564 20.6618 134.003 20.7401 137.438C20.7932 139.518 20.9107 141.605 20.9163 143.677C20.9358 147.299 20.9582 150.923 20.8659 154.534C20.7457 159.059 20.5639 163.603 20.273 168.131C19.9486 173.254 19.4732 178.375 19.1069 183.507C18.6426 189.855 18.1141 196.201 17.8036 202.549C17.6638 205.2 17.9686 207.882 18.1141 210.542C18.2315 212.628 18.3294 214.717 18.5531 216.795C18.7181 218.261 18.967 219.726 19.3166 221.164C20.4464 225.909 21.5119 230.672 22.8208 235.368C23.3605 237.337 24.4036 239.168 25.1979 241.045C25.2622 241.202 25.2706 241.392 25.3349 241.548C26.0425 243.103 26.7556 244.681 27.4631 246.235C28.1595 247.751 28.8614 249.287 29.597 250.791C31.2721 254.307 33.3584 257.581 35.5537 260.781C37.3072 263.323 39.2173 265.717 41.1498 268.125C44.24 271.987 47.747 275.41 51.5196 278.612C54.4505 281.112 57.6078 283.249 61.0169 284.972C63.8806 286.434 66.8507 287.738 69.8262 288.974C72.2174 289.981 74.6504 290.979 77.1478 291.656C80.2101 292.5 83.3423 293.132 86.5025 293.627C88.9411 294.019 91.4217 294.159 93.8995 294.215C97.8735 294.293 101.845 294.285 105.835 294.184C107.936 294.125 110.092 294.033 112.103 293.482C113.708 293.04 115.389 293.337 116.916 292.682C118.076 292.19 119.365 292.4 120.484 292.07C123.205 291.281 125.988 290.951 128.703 290.294C131.536 289.603 134.403 288.946 137.13 287.939C139.702 286.999 142.443 286.44 144.843 285.028C144.882 285.016 144.904 285.011 144.943 285C146.993 284.287 149.063 283.635 151.096 282.86C152.989 282.125 154.81 281.28 156.689 280.486C157.85 279.994 159.052 279.577 160.23 279.062C161.829 278.363 163.415 277.605 164.998 276.912C165.999 276.464 167.003 276.039 168.041 275.645C169.705 275.018 171.447 274.518 173.088 273.81C176.251 272.423 179.563 271.581 182.877 270.74C185.237 270.136 187.636 269.585 190.064 269.224C192.592 268.832 195.17 268.709 197.715 268.379C203.258 267.638 208.821 267.518 214.406 267.951C217.342 268.184 220.284 268.522 223.201 268.997C227.773 269.755 232.304 270.608 236.854 271.52C239.139 271.976 241.362 272.683 243.622 273.209C246.234 273.833 248.821 274.44 251.447 274.954C256.056 275.849 260.656 276.641 265.318 277.178C269.555 277.659 273.761 277.563 277.989 277.466C279.488 277.421 281.007 277.049 282.486 276.685C284.712 276.14 286.899 275.455 289.12 274.89C291.603 274.252 293.922 273.251 296.226 272.121C299.892 270.295 303.525 268.416 306.909 266.106C309.096 264.621 311.23 263.108 313.316 261.497C315.324 259.847 317.397 258.026 319.575 256.197Z" fill="white"/>
<path fill-rule="evenodd" clip-rule="evenodd" d="M311.429 91.4387C302.619 83.0963 296.36 78.4035 286.432 76.2948C255.491 68.9481 238.205 78.6524 203.885 80.3472C159.628 82.9453 149.686 76.6081 110.794 66.9764C105.97 65.5166 101.708 64.8734 97.1717 63.8274C60.8381 54.8222 7.51221 61.3608 0.79195 104.809C-0.321103 113.462 -0.309916 121.922 1.13873 132.412C2.57619 142.293 3.16627 152.171 13.3907 160.731C20.4969 166.646 30.1536 170.156 38.1044 174.267C46.6257 178.579 55.4294 182.687 63.1033 190.012C70.492 196.928 79.5949 208.101 83.8682 217.808C92.7055 237.639 87.9652 277.88 124.324 298.371C174.599 326.65 194.091 284.527 238.048 275.474C254.215 272.004 281.449 270.449 293.891 250.822C302.091 238.408 300.374 228.723 301.21 221.477C301.769 217.45 304.334 222.917 302.891 212.424C302.314 207.986 304.837 192.3 307.662 185.473C309.351 181.258 311.898 177.656 315.008 173.053C327.459 155.843 327.713 141.141 325.395 120.373C323.957 108.674 321.102 100.989 311.434 91.4331L311.429 91.4387Z" fill="#DE937B"/>
<path d="M284.478 284.208C286.939 282.978 289.422 281.884 291.766 280.553C294.646 278.925 297.527 277.236 300.228 275.329C302.653 273.623 304.876 271.615 307.122 269.669C308.434 268.516 309.684 267.266 310.836 265.955C312.486 264.047 314.113 262.12 315.604 260.076C317.111 257.99 318.524 255.803 319.835 253.579C321.027 251.574 322.117 249.488 323.071 247.382C324.659 243.867 326.29 240.351 327.52 236.716C328.494 233.874 328.891 230.854 329.548 227.915C330.521 223.465 330.401 218.957 330.323 214.449C330.283 212.877 329.965 211.308 329.727 209.739C329.568 208.727 329.369 207.715 329.151 206.702C328.832 205.172 328.536 203.662 328.158 202.152C327.602 199.968 327.006 197.803 326.368 195.636C326.052 194.584 325.594 193.572 325.196 192.557C323.985 189.399 322.596 186.32 320.767 183.459C319.338 181.216 318.026 178.892 316.535 176.686C314.986 174.404 313.358 172.139 311.61 169.993C309.804 167.748 307.897 165.524 305.869 163.477C304.717 162.325 303.685 161.095 302.653 159.861C301.361 158.312 299.711 157.062 298.301 155.61C296.277 153.527 294.19 151.48 292.361 149.234C290.297 146.711 288.331 144.071 286.623 141.289C285.213 138.984 284.159 136.423 283.127 133.92C282.252 131.833 281.597 129.649 280.901 127.485C280.624 126.59 280.504 125.658 280.325 124.744C280.107 123.611 279.908 122.459 279.71 121.326C279.511 120.174 279.352 119.022 279.133 117.889C278.896 116.6 278.638 115.328 278.378 114.035C278.359 113.977 278.359 113.918 278.359 113.859C278.219 111.991 278.141 110.123 277.942 108.258C277.724 106.051 277.425 103.847 277.167 101.641C277.028 100.511 276.969 99.3587 276.751 98.2261C276.334 95.9999 276.015 93.7151 275.319 91.5701C274.466 88.9692 273.453 86.3655 272.142 83.9632C270.869 81.6392 269.242 79.4746 267.553 77.4275C265.131 74.4882 262.091 72.125 259.112 69.7814C257.065 68.1706 254.78 66.8394 252.577 65.4494C251.086 64.5154 249.537 63.7015 247.988 62.8486C246.318 61.9341 244.71 60.8406 242.942 60.147C239.704 58.8745 236.368 57.7838 233.051 56.6904C231.202 56.0947 229.337 55.5381 227.449 55.141C225.066 54.6432 222.622 54.3272 220.217 53.8881C219.126 53.6896 218.033 53.3931 216.942 53.1554C216.842 53.1358 216.763 53.1135 216.663 53.1135C214.537 52.9764 212.412 52.8366 210.267 52.7163C208.043 52.5793 205.798 52.2996 203.572 52.3612C201.228 52.4395 198.885 52.8562 196.561 53.1135C196.203 53.1554 195.825 53.1358 195.467 53.1135C193.065 53.0156 190.78 53.5721 188.495 54.2461C186.789 54.7439 184.96 54.8614 183.193 55.1019C180.947 55.3983 178.724 55.6584 176.478 55.8961C175.882 55.9548 175.287 55.8961 174.691 55.8961C172.644 55.8961 170.58 55.9744 168.533 55.8765C167.065 55.7954 165.613 55.4375 164.165 55.1997C164.044 55.1802 163.924 55.1019 163.807 55.1214C162.078 55.2193 160.448 54.6041 158.762 54.3859C156.597 54.1091 154.569 53.5329 152.564 52.7583C150.537 51.964 148.512 51.167 146.524 50.2944C144.32 49.3212 142.116 48.2669 139.971 47.1762C138.064 46.1834 136.274 44.9305 134.308 44.0383C131.567 42.7855 128.687 41.7926 125.907 40.6013C124.198 39.8658 122.548 38.9708 120.862 38.157C120.165 37.8186 119.472 37.5418 118.756 37.2425C115.875 36.0707 113.015 34.801 110.075 33.7467C107.374 32.7931 104.653 31.8618 101.85 31.3444C98.5532 30.7291 95.256 29.9936 91.8218 30.0523C89.5565 30.0915 87.3724 30.4495 85.205 30.9277C82.881 31.4647 80.6381 32.3176 78.3533 33.0727C75.7105 33.9453 73.2886 35.3156 70.9646 36.7867C68.3806 38.4367 66.0566 40.3636 63.713 42.3492C59.9404 45.5262 57.1997 49.461 54.7359 53.6308C53.346 55.9744 52.0735 58.4187 50.9605 60.9021C49.5706 64.0399 48.3205 67.2169 47.1878 70.4554C46.374 72.799 45.8371 75.2628 45.1603 77.6652C44.4863 80.0703 43.7704 82.453 43.1355 84.8777C42.6797 86.6256 42.4 88.4127 41.9833 90.1606C41.2087 93.3375 40.3949 96.5173 39.6006 99.6943C39.1224 101.621 38.7057 103.568 38.1883 105.475C37.2962 108.811 36.4013 112.151 35.4085 115.448C34.1556 119.578 32.8468 123.709 31.4345 127.803C29.846 132.432 28.1177 137.018 26.4901 141.647C24.4626 147.369 22.3791 153.068 20.4914 158.829C19.6971 161.232 19.3 163.777 18.7631 166.257C18.3464 168.206 17.9073 170.153 17.5913 172.119C17.3731 173.509 17.2333 174.918 17.1942 176.331C17.0348 180.979 16.8166 185.627 16.8362 190.275C16.8362 192.221 17.3312 194.168 17.5913 196.095C17.6109 196.254 17.5717 196.43 17.5913 196.59C17.8486 198.2 18.1059 199.828 18.3659 201.436C18.6232 203.005 18.8805 204.596 19.1798 206.165C19.8342 209.82 20.9276 213.355 22.1386 216.851C23.1118 219.631 24.264 222.313 25.4358 225.015C27.3039 229.347 29.6671 233.377 32.3294 237.272C34.3961 240.309 36.7593 243.073 39.4608 245.514C41.7261 247.581 44.1283 249.527 46.553 251.415C48.4995 252.945 50.4851 254.474 52.6105 255.725C55.2113 257.274 57.9324 258.644 60.7151 259.897C62.8601 260.87 65.1029 261.625 67.3682 262.299C71.0038 263.373 74.659 264.366 78.3533 265.278C80.2997 265.756 82.3049 266.212 84.2933 266.212C85.8818 266.212 87.3528 266.908 88.9217 266.69C90.1131 266.531 91.2457 267.048 92.3559 267.026C95.0575 266.987 97.7003 267.384 100.363 267.465C103.142 267.543 105.945 267.663 108.705 267.426C111.306 267.205 113.968 267.384 116.53 266.69C116.572 266.69 116.591 266.69 116.631 266.69C118.697 266.55 120.761 266.472 122.828 266.273C124.755 266.075 126.642 265.756 128.569 265.499C129.761 265.339 130.972 265.258 132.183 265.079C133.833 264.842 135.48 264.545 137.11 264.305C138.142 264.148 139.174 264.008 140.228 263.907C141.918 263.751 143.646 263.729 145.332 263.491C148.59 263.015 151.848 263.074 155.106 263.133C157.43 263.175 159.774 263.273 162.098 263.55C164.523 263.829 166.925 264.366 169.347 264.702C174.632 265.418 179.775 266.71 184.801 268.516C187.444 269.47 190.067 270.524 192.629 271.696C196.642 273.542 200.593 275.469 204.545 277.454C206.533 278.45 208.399 279.661 210.345 280.713C212.591 281.946 214.817 283.157 217.099 284.289C221.112 286.275 225.145 288.163 229.295 289.83C233.07 291.34 236.963 292.313 240.876 293.286C242.266 293.625 243.756 293.664 245.208 293.703C247.392 293.764 249.576 293.683 251.763 293.722C254.204 293.764 256.59 293.426 258.992 292.97C262.826 292.215 266.641 291.398 270.335 290.129C272.718 289.315 275.062 288.459 277.385 287.506C279.651 286.493 282.014 285.341 284.478 284.208Z" fill="#D69BA9"/>
<path d="M190.478 95.8294C194.34 149.184 178.668 182.041 178.668 182.041L185.419 211.566L178.332 234.512C178.332 234.512 99.2609 272.753 72.6036 265.667C45.9491 258.583 46.9614 221.578 61.3584 181.085C79.8636 129.039 67.318 139.695 67.9948 91.4414C68.6688 43.1882 100.024 29.2833 108.146 26.6544C142.564 15.521 185.531 27.4431 190.478 95.8294ZM190.478 95.8294C194.34 149.184 184.183 181.795 184.183 181.795L185.419 211.566L178.332 234.512C178.332 234.512 99.2609 272.753 72.6036 265.667C45.9491 258.583 46.9614 221.578 61.3584 181.085C79.8636 129.039 67.318 139.695 67.9948 91.4414C68.6688 43.1882 100.024 29.2833 108.146 26.6544C142.564 15.521 185.531 27.4431 190.478 95.8294Z" fill="#7B3939"/>
<path d="M162.061 156.715L196.13 145.475L209.573 153.121C209.573 153.121 215.6 145.822 222.088 140.145C301.352 180.47 295.905 213.034 278.87 222.419C261.836 231.808 225.76 211.065 225.76 211.065C225.76 211.065 217.879 298.555 215.446 302.728C212.269 308.173 108.873 303.771 106.554 303.771C104.239 303.771 105.164 295.89 105.164 295.89C105.164 295.89 82.7244 302.842 74.4184 284.301C64.222 258.806 72.8215 187.397 85.5433 168.651C94.3499 155.672 119.88 150.574 119.88 150.574L162.061 156.715ZM162.061 156.715L196.13 145.475L209.573 153.121C209.573 153.121 214.78 145.403 221.271 139.725C300.533 180.05 295.905 213.034 278.87 222.419C261.836 231.808 225.76 211.065 225.76 211.065C225.76 211.065 217.879 298.555 215.446 302.728C212.269 308.173 108.873 303.771 106.554 303.771C104.239 303.771 105.164 295.89 105.164 295.89C105.164 295.89 82.7244 302.842 74.4184 284.301C60.7877 254.276 66.9403 188.829 82.5677 169.577C92.4538 157.4 119.88 150.574 119.88 150.574L162.061 156.715Z" fill="#8DAA53"/>
<path d="M194.527 145.319C194.527 145.319 185.08 159.489 165.059 163.089C135.524 168.399 120.518 150.266 120.518 150.266C120.518 150.266 140.539 144.642 140.989 141.719C141.325 139.532 138.019 132.449 136.327 129.009C119.293 128.581 107.978 116.242 107.978 116.242C102.58 124.509 85.37 115.4 86.0468 105.109C86.7207 94.8169 97.8569 97.5157 97.8569 97.5157C113.207 94.0283 134.241 60.2868 134.467 52.4115C139.247 54.0531 143.391 56.0555 147.005 58.2788C152.841 56.5058 162.749 55.0487 171.808 61.1845C185.223 70.2736 188.428 92.6775 170.032 104.583C169.226 108.221 167.795 111.93 165.462 115.341L174.962 134.733C175.832 136.515 177.295 137.938 179.098 138.761L194.527 145.319ZM194.527 145.319C194.527 145.319 185.08 159.489 165.059 163.089C135.524 168.399 120.518 150.266 120.518 150.266C120.518 150.266 140.539 144.642 140.989 141.719C141.325 139.532 138.019 132.449 136.327 129.009C119.293 128.581 107.978 116.242 107.978 116.242C102.58 124.509 85.37 115.4 86.0468 105.109C86.7207 94.8169 97.8569 97.5157 97.8569 97.5157C113.207 94.0283 134.241 60.2868 134.467 52.4115C139.247 54.0531 143.391 56.0555 147.005 58.2788C152.841 56.5058 162.749 55.0487 171.808 61.1845C185.223 70.2736 188.428 92.6775 170.032 104.583C169.226 108.221 167.795 111.93 165.462 115.341L174.962 134.733C175.832 136.515 177.295 137.938 179.098 138.761L194.527 145.319Z" fill="#FEAC7C"/>
<path d="M192.237 162.143L171.581 106.98C183.945 100.533 189.849 85.7363 184.837 72.3459C179.412 57.8593 163.273 50.5154 148.786 55.938C134.302 61.3635 126.956 77.5029 132.381 91.9867C137.395 105.377 151.566 112.66 165.121 109.399L185.715 164.395C186.353 166.098 188.171 167.166 189.921 166.679C191.899 166.129 192.942 164.023 192.237 162.143ZM137.653 90.1941C133.405 78.8481 140.008 64.63 151.353 60.3819C162.696 56.1338 175.455 62.9241 179.7 74.2672C183.948 85.6132 177.938 99.2496 166.595 103.498C155.252 107.743 141.901 101.537 137.653 90.1941Z" fill="#AD3654"/>
<path d="M169.987 215.727C172.026 213.484 169.579 209.809 167.336 209.2C168.762 207.566 164.682 204.915 162.031 204.915C163.256 203.486 158.563 200.835 153.666 202.057C148.769 203.282 141.425 204.915 140.813 207.158C140.2 209.404 135.916 233.273 135.916 233.273C135.916 233.273 142.113 243.173 146.389 251.946C148.224 253.168 157.142 247.491 158.762 240.698C159.838 236.176 159.673 226.505 160.398 226.13C164.486 224.027 167.607 224.279 167.607 224.279C167.607 224.279 166.184 229.705 168.704 230.776C169.763 231.226 174.856 228.385 173.427 218.798C173.427 218.798 172.843 216.544 169.987 215.727ZM219.856 140.338L208.701 154.092C208.701 154.092 203.924 155.132 198.831 151.166C194.388 147.707 187.105 140.536 187.105 140.536C187.105 140.536 182.522 142.519 178.416 144.67L179.345 147.539C179.345 147.539 177.113 148.003 175.041 147.285C172.395 146.367 171.564 143.059 171.564 143.059H171.573C171.29 142.237 171.346 141.328 171.836 140.536C169.811 140.651 166.69 138.344 167.702 135.645C164.777 136.657 162.724 133.198 163.317 130.751C161.966 131.428 159.547 127.546 161.572 124.509C163.784 121.189 170.572 114.472 177.572 114.472C186.121 114.472 200.94 124.959 203.412 126.984C205.887 129.009 219.856 140.338 219.856 140.338Z" fill="#FEAC7C"/>
<path d="M80.8761 80.2828C80.6048 79.4103 81.9695 79.0411 82.238 79.9081C83.9132 85.2916 86.0246 90.5241 88.5668 95.5581C88.9779 96.3691 87.7557 97.085 87.3446 96.2712C84.7494 91.131 82.5848 85.781 80.8761 80.2828ZM94.3418 92.6887C93.4049 81.6671 94.9179 70.4974 98.7352 60.1134C99.8259 57.1546 101.107 54.2713 102.564 51.4746C102.983 50.6664 101.761 49.9504 101.342 50.7587C96.1512 60.7343 93.1952 71.823 92.7169 83.0571C92.5827 86.2676 92.6526 89.4866 92.9267 92.6887C93.0022 93.5892 94.4173 93.5976 94.3418 92.6887ZM90.5831 125.742C90.7313 124.853 89.3666 124.47 89.2184 125.367C87.5012 135.726 84.3467 145.844 79.8301 155.328C78.5521 158.015 77.1622 160.65 75.6744 163.228C75.2185 164.02 76.4406 164.733 76.8965 163.942C82.2045 154.743 86.2232 144.799 88.7793 134.487C89.498 131.598 90.0965 128.679 90.5831 125.742ZM94.8004 106.361C93.8971 106.412 93.8915 107.827 94.8004 107.774C97.0545 107.645 99.2862 108.532 100.858 110.123C99.8259 110.226 98.8359 110.677 98.0864 111.418C97.4404 112.061 98.4388 113.059 99.0876 112.419C99.9294 111.586 101.154 111.312 102.276 111.67C102.857 111.857 103.403 111.147 103.076 110.632C101.317 107.869 98.0808 106.171 94.8004 106.361ZM157.825 219.111C161.995 218.367 165.988 216.737 170.228 216.356C171.126 216.275 171.134 214.86 170.228 214.941C165.854 215.333 161.749 216.98 157.447 217.746C156.552 217.906 156.933 219.267 157.825 219.111ZM152.464 213.512C157.629 212.821 162.568 211.098 167.694 210.212C168.592 210.055 168.212 208.693 167.319 208.847C162.319 209.711 157.5 211.423 152.464 212.097C152.081 212.147 151.759 212.385 151.756 212.804C151.751 213.146 152.083 213.562 152.464 213.512ZM162.621 204.023C157.66 204.94 152.763 206.381 147.738 206.923C146.843 207.018 146.834 208.436 147.738 208.338C152.894 207.782 157.909 206.327 162.999 205.388C163.894 205.223 163.513 203.858 162.621 204.023ZM167.493 224.939C168.544 224.715 169.593 224.492 170.645 224.271C171.005 224.192 171.251 223.748 171.137 223.401C171.014 223.018 170.656 222.822 170.267 222.906C169.218 223.127 168.167 223.351 167.118 223.574C166.754 223.65 166.511 224.094 166.623 224.444C166.746 224.827 167.104 225.02 167.493 224.939ZM93.1085 241.4C93.9978 241.568 94.3781 240.206 93.4832 240.035C90.2335 239.42 86.9363 239.09 83.6279 239.065C82.7162 239.057 82.7162 240.472 83.6279 240.48C86.8105 240.505 89.9818 240.807 93.1085 241.4ZM87.3586 172.849C92.3114 176.297 95.2115 181.826 97.8403 187.095C98.2458 187.909 99.468 187.193 99.0625 186.382C96.3106 180.867 93.2483 175.229 88.0718 171.627C87.3223 171.107 86.6147 172.331 87.3586 172.849ZM99.8175 194.772C101.666 200.477 102.472 206.504 102.992 212.458C103.565 218.963 103.736 225.498 103.736 232.026C103.736 235.292 103.688 238.559 103.615 241.822C103.596 242.734 105.011 242.734 105.03 241.822C105.167 235.709 105.212 229.59 105.03 223.476C104.835 216.943 104.407 210.397 103.378 203.939C102.863 200.715 102.189 197.504 101.179 194.394C100.903 193.533 99.5351 193.902 99.8175 194.772ZM89.0897 202.812C92.0346 208.926 95.3458 214.86 99.0009 220.576C99.4875 221.343 100.712 220.632 100.22 219.863C96.5651 214.144 93.2567 208.212 90.3118 202.099C89.9175 201.279 88.6954 201.995 89.0897 202.812ZM198.023 199.386C193.907 211.35 188.697 222.928 182.488 233.95C176.311 244.915 169.16 255.33 161.122 265.015C156.6 270.466 151.798 275.687 146.748 280.651C146.096 281.289 147.097 282.29 147.746 281.652C156.81 272.745 165.051 263.015 172.367 252.626C179.683 242.233 186.065 231.178 191.398 219.642C194.396 213.157 197.064 206.52 199.388 199.764C199.685 198.9 198.32 198.53 198.023 199.386ZM151.214 261.972C151.317 261.858 151.359 261.737 151.382 261.617C151.421 261.463 151.418 261.293 151.326 261.114C146.991 252.847 142.86 244.446 137.941 236.503C136.699 234.498 135.404 232.524 133.981 230.647C133.841 230.462 133.659 230.376 133.472 230.353C133.341 230.295 133.184 230.275 132.999 230.348C126.232 233.027 119.567 235.969 112.942 238.984C106.49 241.917 100.075 244.935 93.623 247.869C90.337 249.362 87.0426 250.83 83.7202 252.234C83.3651 252.385 83.2951 252.9 83.4657 253.202C83.6755 253.568 84.0838 253.605 84.4334 253.456C90.4852 250.9 96.4476 248.137 102.407 245.383C108.971 242.348 115.529 239.303 122.157 236.405C125.778 234.822 129.42 233.287 133.094 231.827C135.628 235.242 137.81 238.919 139.904 242.611C142.312 246.865 144.586 251.194 146.834 255.532C147.841 257.47 148.842 259.41 149.852 261.346C148.893 262.344 147.81 263.245 146.77 264.145C144.541 266.078 142.262 267.957 139.969 269.814C133.388 275.144 126.654 280.29 119.794 285.254C115.406 288.428 110.959 291.524 106.44 294.506C105.682 295.006 106.39 296.231 107.153 295.728C115.062 290.512 122.747 284.958 130.275 279.213C135.981 274.856 141.63 270.41 147.08 265.739C148.484 264.537 149.972 263.348 151.214 261.972ZM247.073 211.968C239.609 207.401 232.595 202.082 225.808 196.57C218.808 190.882 212.001 184.905 205.661 178.484C203.046 175.833 200.473 173.098 198.2 170.144C203.519 162.339 209.221 154.794 215.295 147.559C217.035 145.489 218.802 143.445 220.598 141.426C221.202 140.749 220.206 139.745 219.599 140.427C213.161 147.665 207.093 155.227 201.424 163.08C199.822 165.301 198.25 167.546 196.712 169.812C196.583 169.999 196.572 170.34 196.712 170.525C201.363 176.663 207.062 182.041 212.742 187.207C219.418 193.281 226.398 199.042 233.636 204.44C233.691 207.024 234.667 209.513 236.365 211.462C236.617 211.75 237.109 211.719 237.366 211.462C237.651 211.177 237.618 210.752 237.366 210.461C236.166 209.085 235.409 207.371 235.148 205.572C238.79 208.249 242.506 210.83 246.36 213.19C247.138 213.666 247.851 212.444 247.073 211.968ZM226.16 201.537C225.525 202.7 224.798 203.816 224.203 205.002C223.584 206.23 223.173 207.499 223.028 208.867C222.986 209.247 223.383 209.574 223.736 209.574C224.152 209.574 224.401 209.247 224.443 208.867C224.706 206.392 226.224 204.373 227.382 202.25C227.819 201.45 226.596 200.737 226.16 201.537ZM157.59 123.083C153.868 125.474 149.678 127.096 145.36 128.019C142.592 128.609 139.77 128.888 136.94 128.88C136.028 128.88 136.028 130.292 136.94 130.295C146.076 130.318 155.881 127.361 162.604 120.957C164.047 119.584 165.339 118.018 166.29 116.262C166.724 115.462 165.502 114.746 165.068 115.548C163.362 118.697 160.568 121.17 157.59 123.083ZM124.562 96.3188C125.706 95.7958 125.977 93.9444 125.172 92.1881C124.366 90.429 122.786 89.4306 121.642 89.9564C120.498 90.4794 120.224 92.3307 121.033 94.087C121.838 95.8433 123.418 96.8445 124.562 96.3188ZM160.174 89.137C162.904 87.8841 163.558 83.4626 161.631 79.2648C159.704 75.0671 155.929 72.6815 153.197 73.9344C150.467 75.1873 149.813 79.606 151.739 83.8038C153.666 88.0015 157.442 90.3899 160.174 89.137ZM143.794 112.556C143.794 112.872 144.091 113.247 144.44 113.202C146.694 112.92 148.775 112.055 150.562 110.654C150.839 110.439 150.789 109.966 150.562 109.74C150.291 109.469 149.924 109.524 149.648 109.74C148.16 110.906 146.317 111.675 144.44 111.91C144.094 111.952 143.794 112.176 143.794 112.556ZM134.798 108.736C138.71 109.524 142.824 109.032 146.426 107.377C145.923 107.131 145.425 106.87 144.933 106.596C141.842 107.807 138.43 108.151 135.142 107.489C134.328 107.324 133.981 108.571 134.798 108.736ZM162.437 122.308C161.841 122.993 161.273 123.701 160.714 124.414C160.113 125.183 159.511 125.952 159.134 126.861C158.843 127.56 158.653 128.329 158.918 129.062C159.153 129.705 159.606 130.27 160.096 130.74C160.868 131.481 161.958 132.23 163.08 132.312C162.959 133.522 163.404 134.761 164.224 135.665C165.082 136.61 166.324 137.133 167.585 137.276C167.554 138.467 167.923 139.633 168.665 140.592C169.425 141.58 170.636 142.371 171.883 142.315C172.032 144.189 172.619 146.063 173.995 147.408C174.619 148.017 175.5 148.381 176.33 148.599C177.317 148.862 178.366 148.935 179.364 148.7C180.248 148.49 179.873 147.125 178.987 147.335C178.221 147.517 177.41 147.427 176.657 147.223C176.311 147.128 175.969 147.008 175.653 146.846C175.335 146.683 175.15 146.569 174.951 146.365C173.796 145.182 173.352 143.571 173.271 141.96C177.11 138.766 181.202 135.905 185.352 133.134C186.107 132.63 185.4 131.405 184.639 131.912C180.452 134.705 176.336 137.603 172.457 140.813C172.345 140.819 172.233 140.838 172.127 140.886C172.202 140.852 172.018 140.911 171.998 140.917C171.959 140.925 171.939 140.928 171.928 140.931C171.911 140.934 171.895 140.934 171.878 140.934C171.724 140.936 171.598 140.931 171.517 140.911C171.196 140.833 171.019 140.76 170.742 140.598C170.633 140.531 170.527 140.458 170.424 140.383C170.401 140.366 170.343 140.316 170.331 140.307C170.289 140.271 170.245 140.234 170.206 140.195C170.105 140.1 170.007 140.002 169.917 139.902C169.873 139.851 169.828 139.798 169.783 139.745C169.778 139.739 169.78 139.739 169.778 139.737C169.761 139.714 169.744 139.692 169.727 139.669C169.576 139.457 169.442 139.228 169.327 138.993C169.327 138.987 169.28 138.889 169.274 138.875C169.252 138.822 169.232 138.769 169.213 138.716C169.168 138.587 169.126 138.456 169.092 138.324C169.059 138.19 169.034 138.056 169.009 137.922C169.003 137.894 169.003 137.891 169 137.885C169 137.877 169 137.868 169 137.838C168.995 137.771 168.986 137.703 168.983 137.634C168.978 137.508 168.978 137.382 168.983 137.259C168.986 137.194 168.989 137.13 168.995 137.066C169.129 137.052 169.26 137.01 169.383 136.904C173.248 133.57 177.082 130.206 180.942 126.866C181.63 126.268 180.626 125.272 179.941 125.865C176.081 129.204 172.247 132.569 168.385 135.902C168.374 135.911 168.374 135.922 168.363 135.93C168.321 135.922 168.279 135.902 168.234 135.902C167.14 135.894 166.044 135.53 165.275 134.717C164.57 133.973 164.291 132.888 164.587 131.934C164.587 131.931 164.587 131.931 164.587 131.928C168.575 128.522 172.345 124.853 176.579 121.746C177.306 121.212 176.601 119.984 175.866 120.524C171.545 123.695 167.689 127.42 163.622 130.896C163.572 130.896 163.524 130.888 163.468 130.902C162.551 131.115 161.413 130.099 160.854 129.493C160.585 129.204 160.238 128.796 160.194 128.396C160.115 127.68 160.697 126.822 161.077 126.268C162.895 123.631 165.191 121.315 167.571 119.19C168.251 118.58 167.247 117.584 166.57 118.188C165.118 119.486 163.712 120.834 162.437 122.308ZM179.026 145.534C181.904 144.144 184.633 142.472 187.497 141.048C188.311 140.643 187.595 139.421 186.781 139.826C183.92 141.25 181.191 142.922 178.313 144.312C177.493 144.709 178.209 145.928 179.026 145.534Z" fill="black"/>
<mask id="mask0_706_6443" style="mask-type:luminance" maskUnits="userSpaceOnUse" x="234" y="106" width="18" height="18">
<path d="M234.978 106.907H251.262V123.373H234.978V106.907Z" fill="white"/>
</mask>
<g mask="url(#mask0_706_6443)">
<path d="M240.921 113.02L243.06 106.921L245.197 113.02L251.134 114.891L245.09 116.978L243.273 122.753L240.921 117.084C240.921 117.084 234.983 114.679 235.196 114.838C235.411 114.998 240.921 113.02 240.921 113.02Z" fill="white"/>
</g>
<path d="M245.395 111.516L245.996 108.974L245.395 111.516Z" fill="white"/>
<path d="M245.283 111.488L245.887 108.948L246.108 108.999L245.507 111.541L245.283 111.488Z" fill="white"/>
<path d="M245.856 111.944L248.138 110.677L245.856 111.944Z" fill="white"/>
<path d="M245.801 111.848L248.083 110.579L248.194 110.777L245.91 112.047L245.801 111.848Z" fill="white"/>
<path d="M246.301 112.682L248.91 112.671L246.301 112.682Z" fill="white"/>
<path d="M246.301 112.57L248.913 112.559V112.785L246.301 112.799V112.57Z" fill="white"/>
<path d="M246.357 117.341L248.958 117.109L246.357 117.341Z" fill="white"/>
<path d="M246.346 117.229L248.947 116.994L248.966 117.221L246.366 117.456L246.346 117.229Z" fill="white"/>
<path d="M246.097 117.917L248.024 119.679L246.097 117.917Z" fill="white"/>
<path d="M246.021 117.998L246.173 117.831L248.099 119.595L247.948 119.763L246.021 117.998Z" fill="white"/>
<path d="M245.538 118.569L246.374 121.044L245.538 118.569Z" fill="white"/>
<path d="M245.428 118.608L245.644 118.535L246.483 121.01L246.267 121.083L245.428 118.608Z" fill="white"/>
<path d="M239.547 112.682L236.941 112.567L239.547 112.682Z" fill="white"/>
<path d="M236.936 112.679L236.944 112.453L239.553 112.567L239.545 112.794L236.936 112.679Z" fill="white"/>
<path d="M239.886 112.151L238.211 110.145L239.886 112.151Z" fill="white"/>
<path d="M238.124 110.215L238.3 110.07L239.972 112.075L239.799 112.22L238.124 110.215Z" fill="white"/>
<path d="M240.526 111.577L240.025 109.013L240.526 111.577Z" fill="white"/>
<path d="M239.917 109.032L240.137 108.99L240.641 111.552L240.417 111.597L239.917 109.032Z" fill="white"/>
<path d="M240.758 118.337L240.722 120.946L240.758 118.337Z" fill="white"/>
<path d="M240.61 120.949L240.646 118.337L240.873 118.34L240.837 120.952L240.61 120.949Z" fill="white"/>
<path d="M240.216 118.018L238.261 119.752L240.216 118.018Z" fill="white"/>
<path d="M238.188 119.665L240.14 117.931L240.291 118.102L238.339 119.836L238.188 119.665Z" fill="white"/>
<path d="M239.623 117.394L237.075 117.973L239.623 117.394Z" fill="white"/>
<path d="M237.05 117.861L239.598 117.282L239.648 117.503L237.1 118.082L237.05 117.861Z" fill="white"/>
<path d="M283.214 108.602L287.07 97.6108L290.927 108.602L301.629 111.977L290.734 115.739L287.453 126.151L283.211 115.929C283.211 115.929 272.508 111.591 272.894 111.879C273.283 112.17 283.214 108.602 283.214 108.602Z" fill="white"/>
<path d="M291.279 105.894L292.364 101.311L291.279 105.894Z" fill="white"/>
<path d="M291.17 105.864L292.255 101.283L292.476 101.336L291.391 105.917L291.17 105.864Z" fill="white"/>
<path d="M292.113 106.666L296.229 104.379L292.113 106.666Z" fill="white"/>
<path d="M292.057 106.568L296.173 104.278L296.282 104.479L292.169 106.767L292.057 106.568Z" fill="white"/>
<path d="M292.912 107.998L297.622 107.972L292.912 107.998Z" fill="white"/>
<path d="M292.912 107.883L297.622 107.86V108.087L292.915 108.109L292.912 107.883Z" fill="white"/>
<path d="M293.016 116.396L297.706 115.974L293.016 116.396Z" fill="white"/>
<path d="M293.002 116.284L297.692 115.862L297.711 116.088L293.024 116.511L293.002 116.284Z" fill="white"/>
<path d="M292.546 117.431L296.019 120.61L292.546 117.431Z" fill="white"/>
<path d="M292.468 117.512L292.622 117.344L296.095 120.524L295.941 120.691L292.468 117.512Z" fill="white"/>
<path d="M291.534 118.611L293.049 123.069L291.534 118.611Z" fill="white"/>
<path d="M291.43 118.647L291.646 118.574L293.156 123.035L292.94 123.108L291.43 118.647Z" fill="white"/>
<path d="M280.742 107.998L276.038 107.788L280.742 107.998Z" fill="white"/>
<path d="M276.029 107.9L276.038 107.673L280.742 107.883L280.733 108.109L276.029 107.9Z" fill="white"/>
<path d="M281.343 107.036L278.328 103.419L281.343 107.036Z" fill="white"/>
<path d="M278.241 103.489L278.415 103.344L281.432 106.957L281.256 107.103L278.241 103.489Z" fill="white"/>
<path d="M282.503 106.001L281.6 101.378L282.503 106.001Z" fill="white"/>
<path d="M281.488 101.4L281.712 101.356L282.615 105.978L282.391 106.02L281.488 101.4Z" fill="white"/>
<path d="M282.923 118.188L282.856 122.898L282.923 118.188Z" fill="white"/>
<path d="M282.747 122.898L282.811 118.188L283.04 118.194L282.973 122.901L282.747 122.898Z" fill="white"/>
<path d="M281.944 117.615L278.42 120.739L281.944 117.615Z" fill="white"/>
<path d="M278.345 120.652L281.866 117.526L282.017 117.696L278.496 120.823L278.345 120.652Z" fill="white"/>
<path d="M280.873 116.488L276.284 117.531L280.873 116.488Z" fill="white"/>
<path d="M276.256 117.419L280.848 116.376L280.898 116.597L276.306 117.64L276.256 117.419Z" fill="white"/>
<mask id="mask1_706_6443" style="mask-type:luminance" maskUnits="userSpaceOnUse" x="244" y="117" width="36" height="36">
<path d="M244.819 117.646H279.9V152.914H244.819V117.646Z" fill="white"/>
</mask>
<g mask="url(#mask1_706_6443)">
<path d="M257.437 131.584L262.085 118.337L266.736 131.584L279.634 135.651L266.501 140.184L262.552 152.733L257.437 140.416C257.437 140.416 244.539 135.186 245.004 135.533C245.468 135.883 257.437 131.584 257.437 131.584Z" fill="white"/>
</g>
<path d="M267.158 128.318L268.467 122.797L267.158 128.318Z" fill="white"/>
<path d="M267.049 128.29L268.358 122.767L268.579 122.82L267.27 128.343L267.049 128.29Z" fill="white"/>
<path d="M268.162 129.252L273.121 126.492L268.162 129.252Z" fill="white"/>
<path d="M268.106 129.154L273.067 126.394L273.176 126.592L268.218 129.353L268.106 129.154Z" fill="white"/>
<path d="M269.127 130.854L274.802 130.827L269.127 130.854Z" fill="white"/>
<path d="M269.127 130.743L274.802 130.715L274.804 130.941L269.127 130.969V130.743Z" fill="white"/>
<path d="M269.25 140.976L274.902 140.469L269.25 140.976Z" fill="white"/>
<path d="M269.239 140.864L274.891 140.355L274.911 140.581L269.259 141.09L269.239 140.864Z" fill="white"/>
<path d="M268.683 142.223L272.869 146.054L268.683 142.223Z" fill="white"/>
<path d="M268.607 142.307L268.761 142.139L272.947 145.97L272.793 146.138L268.607 142.307Z" fill="white"/>
<path d="M267.466 143.643L269.292 149.019L267.466 143.643Z" fill="white"/>
<path d="M267.36 143.683L267.575 143.61L269.398 148.985L269.183 149.058L267.36 143.683Z" fill="white"/>
<path d="M254.459 130.855L248.787 130.603L254.459 130.855Z" fill="white"/>
<path d="M248.782 130.717L248.793 130.491L254.464 130.743L254.453 130.972L248.782 130.717Z" fill="white"/>
<path d="M255.183 129.697L251.548 125.34L255.183 129.697Z" fill="white"/>
<path d="M251.464 125.409L251.637 125.264L255.276 129.621L255.099 129.767L251.464 125.409Z" fill="white"/>
<path d="M256.582 128.449L255.491 122.878L256.582 128.449Z" fill="white"/>
<path d="M255.382 122.901L255.603 122.859L256.693 128.427L256.47 128.472L255.382 122.901Z" fill="white"/>
<path d="M257.088 143.137L257.007 148.812L257.088 143.137Z" fill="white"/>
<path d="M256.895 148.815L256.976 143.137L257.202 143.143L257.121 148.817L256.895 148.815Z" fill="white"/>
<path d="M255.905 142.447L251.66 146.214L255.905 142.447Z" fill="white"/>
<path d="M251.587 146.127L255.832 142.357L255.983 142.528L251.738 146.295L251.587 146.127Z" fill="white"/>
<path d="M254.618 141.087L249.084 142.346L254.618 141.087Z" fill="white"/>
<path d="M249.059 142.234L254.593 140.975L254.644 141.196L249.109 142.458L249.059 142.234Z" fill="white"/>
<mask id="mask2_706_6443" style="mask-type:luminance" maskUnits="userSpaceOnUse" x="235" y="249" width="7" height="8">
<path d="M235.512 249.379H241.955V256.538H235.512V249.379Z" fill="white"/>
</mask>
<g mask="url(#mask2_706_6443)">
<mask id="mask3_706_6443" style="mask-type:luminance" maskUnits="userSpaceOnUse" x="229" y="224" width="44" height="45">
<path d="M229.558 250.324L251.366 224.466L272.709 242.468L250.901 268.326L229.558 250.324Z" fill="white"/>
</mask>
<g mask="url(#mask3_706_6443)">
<mask id="mask4_706_6443" style="mask-type:luminance" maskUnits="userSpaceOnUse" x="229" y="224" width="44" height="45">
<path d="M229.558 250.324L251.366 224.466L272.709 242.468L250.901 268.326L229.558 250.324Z" fill="white"/>
</mask>
<g mask="url(#mask4_706_6443)">
<path d="M237.436 253.048L235.78 250.24L238.826 251.398L241.48 249.717L240.319 252.727L241.955 255.308L239.005 254.371C239.005 254.371 236.144 255.878 236.275 255.848C236.406 255.817 237.436 253.048 237.436 253.048Z" fill="white"/>
</g>
</g>
</g>
<mask id="mask5_706_6443" style="mask-type:luminance" maskUnits="userSpaceOnUse" x="236" y="249" width="3" height="3">
<path d="M236.944 249.379H238.376V251.527H236.944V249.379Z" fill="white"/>
</mask>
<g mask="url(#mask5_706_6443)">
<mask id="mask6_706_6443" style="mask-type:luminance" maskUnits="userSpaceOnUse" x="229" y="224" width="44" height="45">
<path d="M229.558 250.324L251.366 224.466L272.71 242.468L250.902 268.326L229.558 250.324Z" fill="white"/>
</mask>
<g mask="url(#mask6_706_6443)">
<mask id="mask7_706_6443" style="mask-type:luminance" maskUnits="userSpaceOnUse" x="229" y="224" width="44" height="45">
<path d="M229.558 250.324L251.366 224.466L272.71 242.468L250.902 268.326L229.558 250.324Z" fill="white"/>
</mask>
<g mask="url(#mask7_706_6443)">
<path d="M238.312 250.833L237.529 249.773L238.312 250.833Z" fill="white"/>
<path d="M238.267 250.867L237.481 249.807L237.573 249.74L238.359 250.797L238.267 250.867Z" fill="white"/>
</g>
</g>
</g>
<mask id="mask8_706_6443" style="mask-type:luminance" maskUnits="userSpaceOnUse" x="238" y="249" width="2" height="2">
<path d="M238.375 249.379H239.091V250.811H238.375V249.379Z" fill="white"/>
</mask>
<g mask="url(#mask8_706_6443)">
<mask id="mask9_706_6443" style="mask-type:luminance" maskUnits="userSpaceOnUse" x="229" y="224" width="44" height="45">
<path d="M229.558 250.324L251.366 224.466L272.71 242.468L250.902 268.326L229.558 250.324Z" fill="white"/>
</mask>
<g mask="url(#mask9_706_6443)">
<mask id="mask10_706_6443" style="mask-type:luminance" maskUnits="userSpaceOnUse" x="229" y="224" width="44" height="45">
<path d="M229.558 250.324L251.366 224.466L272.71 242.468L250.902 268.326L229.558 250.324Z" fill="white"/>
</mask>
<g mask="url(#mask10_706_6443)">
<path d="M238.627 250.794L238.882 249.502L238.627 250.794Z" fill="white"/>
<path d="M238.571 250.783L238.823 249.491L238.938 249.513L238.683 250.805L238.571 250.783Z" fill="white"/>
</g>
</g>
</g>
<mask id="mask11_706_6443" style="mask-type:luminance" maskUnits="userSpaceOnUse" x="238" y="249" width="3" height="3">
<path d="M238.375 249.379H240.523V251.527H238.375V249.379Z" fill="white"/>
</mask>
<g mask="url(#mask11_706_6443)">
<mask id="mask12_706_6443" style="mask-type:luminance" maskUnits="userSpaceOnUse" x="229" y="224" width="44" height="45">
<path d="M229.558 250.324L251.366 224.466L272.71 242.468L250.902 268.326L229.558 250.324Z" fill="white"/>
</mask>
<g mask="url(#mask12_706_6443)">
<mask id="mask13_706_6443" style="mask-type:luminance" maskUnits="userSpaceOnUse" x="229" y="224" width="44" height="45">
<path d="M229.558 250.324L251.366 224.466L272.71 242.468L250.902 268.326L229.558 250.324Z" fill="white"/>
</mask>
<g mask="url(#mask13_706_6443)">
<path d="M239.055 250.864L239.9 249.852L239.055 250.864Z" fill="white"/>
<path d="M239.013 250.828L239.858 249.815L239.947 249.888L239.1 250.9L239.013 250.828Z" fill="white"/>
</g>
</g>
</g>
<mask id="mask14_706_6443" style="mask-type:luminance" maskUnits="userSpaceOnUse" x="240" y="250" width="2" height="3">
<path d="M240.523 250.811H241.955V252.959H240.523V250.811Z" fill="white"/>
</mask>
<g mask="url(#mask14_706_6443)">
<mask id="mask15_706_6443" style="mask-type:luminance" maskUnits="userSpaceOnUse" x="229" y="224" width="44" height="45">
<path d="M229.558 250.324L251.366 224.466L272.71 242.468L250.902 268.326L229.558 250.324Z" fill="white"/>
</mask>
<g mask="url(#mask15_706_6443)">
<mask id="mask16_706_6443" style="mask-type:luminance" maskUnits="userSpaceOnUse" x="229" y="224" width="44" height="45">
<path d="M229.558 250.324L251.366 224.466L272.71 242.468L250.902 268.326L229.558 250.324Z" fill="white"/>
</mask>
<g mask="url(#mask16_706_6443)">
<path d="M240.873 252.357L241.628 251.278L240.873 252.357Z" fill="white"/>
<path d="M240.825 252.324L241.581 251.244L241.676 251.311L240.918 252.391L240.825 252.324Z" fill="white"/>
</g>
</g>
</g>
<mask id="mask17_706_6443" style="mask-type:luminance" maskUnits="userSpaceOnUse" x="240" y="252" width="3" height="1">
<path d="M240.523 252.243H242.671V252.959H240.523V252.243Z" fill="white"/>
</mask>
<g mask="url(#mask17_706_6443)">
<mask id="mask18_706_6443" style="mask-type:luminance" maskUnits="userSpaceOnUse" x="229" y="224" width="44" height="45">
<path d="M229.558 250.324L251.366 224.466L272.71 242.468L250.902 268.326L229.558 250.324Z" fill="white"/>
</mask>
<g mask="url(#mask18_706_6443)">
<mask id="mask19_706_6443" style="mask-type:luminance" maskUnits="userSpaceOnUse" x="229" y="224" width="44" height="45">
<path d="M229.558 250.324L251.366 224.466L272.71 242.468L250.902 268.326L229.558 250.324Z" fill="white"/>
</mask>
<g mask="url(#mask19_706_6443)">
<path d="M241.007 252.643L242.316 252.475L241.007 252.643Z" fill="white"/>
<path d="M241.016 252.701L241.002 252.587L242.308 252.419L242.325 252.531L241.016 252.701Z" fill="white"/>
</g>
</g>
</g>
<mask id="mask20_706_6443" style="mask-type:luminance" maskUnits="userSpaceOnUse" x="240" y="252" width="3" height="2">
<path d="M240.523 252.959H242.671V253.675H240.523V252.959Z" fill="white"/>
</mask>
<g mask="url(#mask20_706_6443)">
<mask id="mask21_706_6443" style="mask-type:luminance" maskUnits="userSpaceOnUse" x="229" y="224" width="44" height="45">
<path d="M229.558 250.324L251.366 224.466L272.71 242.468L250.902 268.326L229.558 250.324Z" fill="white"/>
</mask>
<g mask="url(#mask21_706_6443)">
<mask id="mask22_706_6443" style="mask-type:luminance" maskUnits="userSpaceOnUse" x="229" y="224" width="44" height="45">
<path d="M229.558 250.324L251.366 224.466L272.71 242.468L250.902 268.326L229.558 250.324Z" fill="white"/>
</mask>
<g mask="url(#mask22_706_6443)">
<path d="M241.077 253.073L242.305 253.554L241.077 253.073Z" fill="white"/>
<path d="M241.058 253.126L241.1 253.02L242.327 253.501L242.285 253.607L241.058 253.126Z" fill="white"/>
</g>
</g>
</g>
<mask id="mask23_706_6443" style="mask-type:luminance" maskUnits="userSpaceOnUse" x="235" y="252" width="2" height="4">
<path d="M235.512 252.959H236.944V255.106H235.512V252.959Z" fill="white"/>
</mask>
<g mask="url(#mask23_706_6443)">
<mask id="mask24_706_6443" style="mask-type:luminance" maskUnits="userSpaceOnUse" x="229" y="224" width="44" height="45">
<path d="M229.558 250.324L251.366 224.466L272.709 242.468L250.901 268.326L229.558 250.324Z" fill="white"/>
</mask>
<g mask="url(#mask24_706_6443)">
<mask id="mask25_706_6443" style="mask-type:luminance" maskUnits="userSpaceOnUse" x="229" y="224" width="44" height="45">
<path d="M229.558 250.324L251.366 224.466L272.709 242.468L250.901 268.326L229.558 250.324Z" fill="white"/>
</mask>
<g mask="url(#mask25_706_6443)">
<path d="M236.859 253.468L235.967 254.435L236.859 253.468Z" fill="white"/>
<path d="M236.007 254.474L235.923 254.396L236.818 253.428L236.901 253.507L236.007 254.474Z" fill="white"/>
</g>
</g>
</g>
<mask id="mask26_706_6443" style="mask-type:luminance" maskUnits="userSpaceOnUse" x="234" y="252" width="3" height="2">
<path d="M234.796 252.959H236.944V253.675H234.796V252.959Z" fill="white"/>
</mask>
<g mask="url(#mask26_706_6443)">
<mask id="mask27_706_6443" style="mask-type:luminance" maskUnits="userSpaceOnUse" x="229" y="224" width="44" height="45">
<path d="M229.558 250.324L251.366 224.466L272.71 242.468L250.902 268.326L229.558 250.324Z" fill="white"/>
</mask>
<g mask="url(#mask27_706_6443)">
<mask id="mask28_706_6443" style="mask-type:luminance" maskUnits="userSpaceOnUse" x="229" y="224" width="44" height="45">
<path d="M229.558 250.324L251.366 224.466L272.71 242.468L250.902 268.326L229.558 250.324Z" fill="white"/>
</mask>
<g mask="url(#mask28_706_6443)">
<path d="M236.765 253.166L235.445 253.157L236.765 253.166Z" fill="white"/>
<path d="M235.445 253.213V253.099L236.765 253.107L236.762 253.222L235.445 253.213Z" fill="white"/>
</g>
</g>
</g>
<mask id="mask29_706_6443" style="mask-type:luminance" maskUnits="userSpaceOnUse" x="235" y="251" width="2" height="2">
<path d="M235.512 251.527H236.944V252.959H235.512V251.527Z" fill="white"/>
</mask>
<g mask="url(#mask29_706_6443)">
<mask id="mask30_706_6443" style="mask-type:luminance" maskUnits="userSpaceOnUse" x="229" y="224" width="44" height="45">
<path d="M229.558 250.324L251.366 224.466L272.709 242.468L250.901 268.326L229.558 250.324Z" fill="white"/>
</mask>
<g mask="url(#mask30_706_6443)">
<mask id="mask31_706_6443" style="mask-type:luminance" maskUnits="userSpaceOnUse" x="229" y="224" width="44" height="45">
<path d="M229.558 250.324L251.366 224.466L272.709 242.468L250.901 268.326L229.558 250.324Z" fill="white"/>
</mask>
<g mask="url(#mask31_706_6443)">
<path d="M236.751 252.729L235.598 252.089L236.751 252.729Z" fill="white"/>
<path d="M235.57 252.139L235.626 252.039L236.778 252.679L236.723 252.78L235.57 252.139Z" fill="white"/>
</g>
</g>
</g>
<mask id="mask32_706_6443" style="mask-type:luminance" maskUnits="userSpaceOnUse" x="239" y="254" width="2" height="2">
<path d="M239.092 254.39H240.523V255.822H239.092V254.39Z" fill="white"/>
</mask>
<g mask="url(#mask32_706_6443)">
<mask id="mask33_706_6443" style="mask-type:luminance" maskUnits="userSpaceOnUse" x="229" y="224" width="44" height="45">
<path d="M229.558 250.324L251.366 224.466L272.71 242.468L250.902 268.326L229.558 250.324Z" fill="white"/>
</mask>
<g mask="url(#mask33_706_6443)">
<mask id="mask34_706_6443" style="mask-type:luminance" maskUnits="userSpaceOnUse" x="229" y="224" width="44" height="45">
<path d="M229.558 250.324L251.366 224.466L272.71 242.468L250.902 268.326L229.558 250.324Z" fill="white"/>
</mask>
<g mask="url(#mask34_706_6443)">
<path d="M239.435 254.841L240.428 255.702L239.435 254.841Z" fill="white"/>
<path d="M240.392 255.747L239.396 254.883L239.472 254.796L240.467 255.66L240.392 255.747Z" fill="white"/>
</g>
</g>
</g>
<mask id="mask35_706_6443" style="mask-type:luminance" maskUnits="userSpaceOnUse" x="239" y="254" width="1" height="3">
<path d="M239.092 254.39H239.807V256.538H239.092V254.39Z" fill="white"/>
</mask>
<g mask="url(#mask35_706_6443)">
<mask id="mask36_706_6443" style="mask-type:luminance" maskUnits="userSpaceOnUse" x="229" y="224" width="44" height="45">
<path d="M229.558 250.324L251.366 224.466L272.71 242.468L250.902 268.326L229.558 250.324Z" fill="white"/>
</mask>
<g mask="url(#mask36_706_6443)">
<mask id="mask37_706_6443" style="mask-type:luminance" maskUnits="userSpaceOnUse" x="229" y="224" width="44" height="45">
<path d="M229.558 250.324L251.366 224.466L272.71 242.468L250.902 268.326L229.558 250.324Z" fill="white"/>
</mask>
<g mask="url(#mask37_706_6443)">
<path d="M239.134 254.947L239.167 256.264L239.134 254.947Z" fill="white"/>
</g>
</g>
</g>
<mask id="mask38_706_6443" style="mask-type:luminance" maskUnits="userSpaceOnUse" x="238" y="254" width="2" height="3">
<path d="M238.375 254.39H239.807V256.538H238.375V254.39Z" fill="white"/>
</mask>
<g mask="url(#mask38_706_6443)">
<mask id="mask39_706_6443" style="mask-type:luminance" maskUnits="userSpaceOnUse" x="229" y="224" width="44" height="45">
<path d="M229.558 250.324L251.366 224.466L272.71 242.468L250.902 268.326L229.558 250.324Z" fill="white"/>
</mask>
<g mask="url(#mask39_706_6443)">
<mask id="mask40_706_6443" style="mask-type:luminance" maskUnits="userSpaceOnUse" x="229" y="224" width="44" height="45">
<path d="M229.558 250.324L251.366 224.466L272.71 242.468L250.902 268.326L229.558 250.324Z" fill="white"/>
</mask>
<g mask="url(#mask40_706_6443)">
<path d="M239.111 256.264L239.078 254.947L239.192 254.944L239.226 256.261L239.111 256.264Z" fill="white"/>
</g>
</g>
</g>
<mask id="mask41_706_6443" style="mask-type:luminance" maskUnits="userSpaceOnUse" x="237" y="254" width="3" height="3">
<path d="M237.66 254.39H239.092V256.538H237.66V254.39Z" fill="white"/>
</mask>
<g mask="url(#mask41_706_6443)">
<mask id="mask42_706_6443" style="mask-type:luminance" maskUnits="userSpaceOnUse" x="229" y="224" width="44" height="45">
<path d="M229.558 250.324L251.366 224.466L272.71 242.468L250.902 268.326L229.558 250.324Z" fill="white"/>
</mask>
<g mask="url(#mask42_706_6443)">
<mask id="mask43_706_6443" style="mask-type:luminance" maskUnits="userSpaceOnUse" x="229" y="224" width="44" height="45">
<path d="M229.558 250.324L251.366 224.466L272.71 242.468L250.902 268.326L229.558 250.324Z" fill="white"/>
</mask>
<g mask="url(#mask43_706_6443)">
<path d="M238.7 254.972L238.096 256.141L238.7 254.972Z" fill="white"/>
<path d="M238.046 256.116L238.65 254.944L238.75 254.997L238.146 256.169L238.046 256.116Z" fill="white"/>
</g>
</g>
</g>
<mask id="mask44_706_6443" style="mask-type:luminance" maskUnits="userSpaceOnUse" x="246" y="228" width="12" height="13">
<path d="M246.251 228.617H257.706V240.788H246.251V228.617Z" fill="white"/>
</mask>
<g mask="url(#mask44_706_6443)">
<mask id="mask45_706_6443" style="mask-type:luminance" maskUnits="userSpaceOnUse" x="229" y="224" width="44" height="45">
<path d="M229.558 250.324L251.366 224.466L272.709 242.468L250.901 268.326L229.558 250.324Z" fill="white"/>
</mask>
<g mask="url(#mask45_706_6443)">
<mask id="mask46_706_6443" style="mask-type:luminance" maskUnits="userSpaceOnUse" x="229" y="224" width="44" height="45">
<path d="M229.558 250.324L251.366 224.466L272.709 242.468L250.901 268.326L229.558 250.324Z" fill="white"/>
</mask>
<g mask="url(#mask46_706_6443)">
<path d="M249.492 235.298L246.505 230.233L252 232.322L256.785 229.291L254.691 234.719L257.641 239.37L252.316 237.681C252.316 237.681 247.162 240.399 247.397 240.343C247.638 240.29 249.492 235.298 249.492 235.298Z" fill="white"/>
</g>
</g>
</g>
<mask id="mask47_706_6443" style="mask-type:luminance" maskUnits="userSpaceOnUse" x="249" y="229" width="3" height="3">
<path d="M249.115 229.333H251.262V231.48H249.115V229.333Z" fill="white"/>
</mask>
<g mask="url(#mask47_706_6443)">
<mask id="mask48_706_6443" style="mask-type:luminance" maskUnits="userSpaceOnUse" x="229" y="224" width="44" height="45">
<path d="M229.558 250.324L251.366 224.467L272.71 242.469L250.902 268.326L229.558 250.324Z" fill="white"/>
</mask>
<g mask="url(#mask48_706_6443)">
<mask id="mask49_706_6443" style="mask-type:luminance" maskUnits="userSpaceOnUse" x="229" y="224" width="44" height="45">
<path d="M229.558 250.324L251.366 224.467L272.71 242.469L250.902 268.326L229.558 250.324Z" fill="white"/>
</mask>
<g mask="url(#mask49_706_6443)">
<path d="M251.072 231.304L249.657 229.394L251.072 231.304Z" fill="white"/>
<path d="M251.025 231.338L249.61 229.428L249.702 229.361L251.117 231.268L251.025 231.338Z" fill="white"/>
</g>
</g>
</g>
<mask id="mask50_706_6443" style="mask-type:luminance" maskUnits="userSpaceOnUse" x="251" y="228" width="2" height="4">
<path d="M251.262 228.617H252.694V231.48H251.262V228.617Z" fill="white"/>
</mask>
<g mask="url(#mask50_706_6443)">
<mask id="mask51_706_6443" style="mask-type:luminance" maskUnits="userSpaceOnUse" x="229" y="224" width="44" height="45">
<path d="M229.558 250.324L251.366 224.466L272.71 242.468L250.902 268.326L229.558 250.324Z" fill="white"/>
</mask>
<g mask="url(#mask51_706_6443)">
<mask id="mask52_706_6443" style="mask-type:luminance" maskUnits="userSpaceOnUse" x="229" y="224" width="44" height="45">
<path d="M229.558 250.324L251.366 224.466L272.71 242.468L250.902 268.326L229.558 250.324Z" fill="white"/>
</mask>
<g mask="url(#mask52_706_6443)">
<path d="M251.64 231.234L252.096 228.902L251.64 231.234Z" fill="white"/>
<path d="M251.584 231.223L252.04 228.891L252.152 228.913L251.699 231.245L251.584 231.223Z" fill="white"/>
</g>
</g>
</g>
<mask id="mask53_706_6443" style="mask-type:luminance" maskUnits="userSpaceOnUse" x="251" y="229" width="4" height="3">
<path d="M251.979 229.333H254.126V231.48H251.979V229.333Z" fill="white"/>
</mask>
<g mask="url(#mask53_706_6443)">
<mask id="mask54_706_6443" style="mask-type:luminance" maskUnits="userSpaceOnUse" x="229" y="224" width="44" height="45">
<path d="M229.558 250.324L251.366 224.467L272.71 242.469L250.902 268.326L229.558 250.324Z" fill="white"/>
</mask>
<g mask="url(#mask54_706_6443)">
<mask id="mask55_706_6443" style="mask-type:luminance" maskUnits="userSpaceOnUse" x="229" y="224" width="44" height="45">
<path d="M229.558 250.324L251.366 224.467L272.71 242.469L250.902 268.326L229.558 250.324Z" fill="white"/>
</mask>
<g mask="url(#mask55_706_6443)">
<path d="M252.415 231.357L253.936 229.534L252.415 231.357Z" fill="white"/>
<path d="M252.37 231.321L253.894 229.498L253.981 229.57L252.46 231.394L252.37 231.321Z" fill="white"/>
</g>
</g>
</g>
<mask id="mask56_706_6443" style="mask-type:luminance" maskUnits="userSpaceOnUse" x="255" y="231" width="3" height="4">
<path d="M255.558 231.48H257.706V234.344H255.558V231.48Z" fill="white"/>
</mask>
<g mask="url(#mask56_706_6443)">
<mask id="mask57_706_6443" style="mask-type:luminance" maskUnits="userSpaceOnUse" x="229" y="224" width="44" height="45">
<path d="M229.558 250.324L251.366 224.466L272.71 242.468L250.902 268.326L229.558 250.324Z" fill="white"/>
</mask>
<g mask="url(#mask57_706_6443)">
<mask id="mask58_706_6443" style="mask-type:luminance" maskUnits="userSpaceOnUse" x="229" y="224" width="44" height="45">
<path d="M229.558 250.324L251.366 224.466L272.71 242.468L250.902 268.326L229.558 250.324Z" fill="white"/>
</mask>
<g mask="url(#mask58_706_6443)">
<path d="M255.687 234.051L257.049 232.104L255.687 234.051Z" fill="white"/>
<path d="M255.639 234.02L257.004 232.073L257.096 232.14L255.734 234.087L255.639 234.02Z" fill="white"/>
</g>
</g>
</g>
<mask id="mask59_706_6443" style="mask-type:luminance" maskUnits="userSpaceOnUse" x="255" y="233" width="4" height="3">
<path d="M255.558 233.628H258.422V235.06H255.558V233.628Z" fill="white"/>
</mask>
<g mask="url(#mask59_706_6443)">
<mask id="mask60_706_6443" style="mask-type:luminance" maskUnits="userSpaceOnUse" x="229" y="224" width="44" height="45">
<path d="M229.558 250.324L251.366 224.467L272.71 242.469L250.902 268.326L229.558 250.324Z" fill="white"/>
</mask>
<g mask="url(#mask60_706_6443)">
<mask id="mask61_706_6443" style="mask-type:luminance" maskUnits="userSpaceOnUse" x="229" y="224" width="44" height="45">
<path d="M229.558 250.324L251.366 224.467L272.71 242.469L250.902 268.326L229.558 250.324Z" fill="white"/>
</mask>
<g mask="url(#mask61_706_6443)">
<path d="M255.933 234.571L258.29 234.263L255.933 234.571Z" fill="white"/>
<path d="M255.941 234.627L255.924 234.512L258.282 234.207L258.296 234.322L255.941 234.627Z" fill="white"/>
</g>
</g>
</g>
<mask id="mask62_706_6443" style="mask-type:luminance" maskUnits="userSpaceOnUse" x="255" y="235" width="4" height="2">
<path d="M255.558 235.06H258.422V236.492H255.558V235.06Z" fill="white"/>
</mask>
<g mask="url(#mask62_706_6443)">
<mask id="mask63_706_6443" style="mask-type:luminance" maskUnits="userSpaceOnUse" x="229" y="224" width="44" height="45">
<path d="M229.558 250.324L251.366 224.466L272.71 242.468L250.902 268.326L229.558 250.324Z" fill="white"/>
</mask>
<g mask="url(#mask63_706_6443)">
<mask id="mask64_706_6443" style="mask-type:luminance" maskUnits="userSpaceOnUse" x="229" y="224" width="44" height="45">
<path d="M229.558 250.324L251.366 224.466L272.71 242.468L250.902 268.326L229.558 250.324Z" fill="white"/>
</mask>
<g mask="url(#mask64_706_6443)">
<path d="M256.059 235.343L258.271 236.21L256.059 235.343Z" fill="white"/>
<path d="M256.039 235.396L256.081 235.289L258.293 236.156L258.251 236.263L256.039 235.396Z" fill="white"/>
</g>
</g>
</g>
<mask id="mask65_706_6443" style="mask-type:luminance" maskUnits="userSpaceOnUse" x="246" y="235" width="4" height="3">
<path d="M246.251 235.776H249.114V237.924H246.251V235.776Z" fill="white"/>
</mask>
<g mask="url(#mask65_706_6443)">
<mask id="mask66_706_6443" style="mask-type:luminance" maskUnits="userSpaceOnUse" x="229" y="224" width="44" height="45">
<path d="M229.558 250.324L251.366 224.466L272.709 242.468L250.901 268.326L229.558 250.324Z" fill="white"/>
</mask>
<g mask="url(#mask66_706_6443)">
<mask id="mask67_706_6443" style="mask-type:luminance" maskUnits="userSpaceOnUse" x="229" y="224" width="44" height="45">
<path d="M229.558 250.324L251.366 224.466L272.709 242.468L250.901 268.326L229.558 250.324Z" fill="white"/>
</mask>
<g mask="url(#mask67_706_6443)">
<path d="M248.454 236.053L246.844 237.801L248.454 236.053Z" fill="white"/>
<path d="M246.883 237.84L246.799 237.762L248.41 236.017L248.494 236.092L246.883 237.84Z" fill="white"/>
</g>
</g>
</g>
<mask id="mask68_706_6443" style="mask-type:luminance" maskUnits="userSpaceOnUse" x="245" y="235" width="4" height="1">
<path d="M245.535 235.06H248.399V235.776H245.535V235.06Z" fill="white"/>
</mask>
<g mask="url(#mask68_706_6443)">
<mask id="mask69_706_6443" style="mask-type:luminance" maskUnits="userSpaceOnUse" x="229" y="224" width="44" height="45">
<path d="M229.558 250.324L251.366 224.466L272.71 242.468L250.902 268.326L229.558 250.324Z" fill="white"/>
</mask>
<g mask="url(#mask69_706_6443)">
<mask id="mask70_706_6443" style="mask-type:luminance" maskUnits="userSpaceOnUse" x="229" y="224" width="44" height="45">
<path d="M229.558 250.324L251.366 224.466L272.71 242.468L250.902 268.326L229.558 250.324Z" fill="white"/>
</mask>
<g mask="url(#mask70_706_6443)">
<path d="M248.278 235.508L245.904 235.494L248.278 235.508Z" fill="white"/>
<path d="M245.901 235.552V235.438L248.278 235.449V235.564L245.901 235.552Z" fill="white"/>
</g>
</g>
</g>
<mask id="mask71_706_6443" style="mask-type:luminance" maskUnits="userSpaceOnUse" x="245" y="232" width="4" height="4">
<path d="M245.535 232.912H248.399V235.06H245.535V232.912Z" fill="white"/>
</mask>
<g mask="url(#mask71_706_6443)">
<mask id="mask72_706_6443" style="mask-type:luminance" maskUnits="userSpaceOnUse" x="229" y="224" width="44" height="45">
<path d="M229.558 250.324L251.366 224.466L272.71 242.468L250.902 268.326L229.558 250.324Z" fill="white"/>
</mask>
<g mask="url(#mask72_706_6443)">
<mask id="mask73_706_6443" style="mask-type:luminance" maskUnits="userSpaceOnUse" x="229" y="224" width="44" height="45">
<path d="M229.558 250.324L251.366 224.466L272.71 242.468L250.902 268.326L229.558 250.324Z" fill="white"/>
</mask>
<g mask="url(#mask73_706_6443)">
<path d="M248.256 234.725L246.181 233.57L248.256 234.725Z" fill="white"/>
<path d="M246.153 233.62L246.209 233.519L248.284 234.674L248.228 234.775L246.153 233.62Z" fill="white"/>
</g>
</g>
</g>
<mask id="mask74_706_6443" style="mask-type:luminance" maskUnits="userSpaceOnUse" x="252" y="237" width="4" height="4">
<path d="M252.694 237.924H255.558V240.788H252.694V237.924Z" fill="white"/>
</mask>
<g mask="url(#mask74_706_6443)">
<mask id="mask75_706_6443" style="mask-type:luminance" maskUnits="userSpaceOnUse" x="229" y="224" width="44" height="45">
<path d="M229.558 250.324L251.366 224.467L272.709 242.469L250.901 268.326L229.558 250.324Z" fill="white"/>
</mask>
<g mask="url(#mask75_706_6443)">
<mask id="mask76_706_6443" style="mask-type:luminance" maskUnits="userSpaceOnUse" x="229" y="224" width="44" height="45">
<path d="M229.558 250.324L251.366 224.467L272.709 242.469L250.901 268.326L229.558 250.324Z" fill="white"/>
</mask>
<g mask="url(#mask76_706_6443)">
<path d="M253.094 238.528L254.889 240.086L253.094 238.528Z" fill="white"/>
<path d="M254.853 240.128L253.06 238.57L253.133 238.483L254.928 240.041L254.853 240.128Z" fill="white"/>
</g>
</g>
</g>
<mask id="mask77_706_6443" style="mask-type:luminance" maskUnits="userSpaceOnUse" x="251" y="238" width="2" height="4">
<path d="M251.979 238.64H252.694V241.504H251.979V238.64Z" fill="white"/>
</mask>
<g mask="url(#mask77_706_6443)">
<mask id="mask78_706_6443" style="mask-type:luminance" maskUnits="userSpaceOnUse" x="229" y="224" width="44" height="45">
<path d="M229.558 250.324L251.366 224.466L272.71 242.468L250.902 268.326L229.558 250.324Z" fill="white"/>
</mask>
<g mask="url(#mask78_706_6443)">
<mask id="mask79_706_6443" style="mask-type:luminance" maskUnits="userSpaceOnUse" x="229" y="224" width="44" height="45">
<path d="M229.558 250.324L251.366 224.466L272.71 242.468L250.902 268.326L229.558 250.324Z" fill="white"/>
</mask>
<g mask="url(#mask79_706_6443)">
<path d="M252.555 238.718L252.613 241.095L252.555 238.718Z" fill="white"/>
<path d="M252.555 241.095L252.496 238.721L252.611 238.718L252.669 241.092L252.555 241.095Z" fill="white"/>
</g>
</g>
</g>
<mask id="mask80_706_6443" style="mask-type:luminance" maskUnits="userSpaceOnUse" x="250" y="238" width="2" height="4">
<path d="M250.546 238.64H251.978V241.504H250.546V238.64Z" fill="white"/>
</mask>
<g mask="url(#mask80_706_6443)">
<mask id="mask81_706_6443" style="mask-type:luminance" maskUnits="userSpaceOnUse" x="229" y="224" width="44" height="45">
<path d="M229.558 250.324L251.366 224.466L272.71 242.468L250.902 268.326L229.558 250.324Z" fill="white"/>
</mask>
<g mask="url(#mask81_706_6443)">
<mask id="mask82_706_6443" style="mask-type:luminance" maskUnits="userSpaceOnUse" x="229" y="224" width="44" height="45">
<path d="M229.558 250.324L251.366 224.466L272.71 242.468L250.902 268.326L229.558 250.324Z" fill="white"/>
</mask>
<g mask="url(#mask82_706_6443)">
<path d="M251.771 238.766L250.681 240.874L251.771 238.766Z" fill="white"/>
<path d="M250.63 240.849L251.721 238.738L251.822 238.791L250.731 240.902L250.63 240.849Z" fill="white"/>
</g>
</g>
</g>
<mask id="mask83_706_6443" style="mask-type:luminance" maskUnits="userSpaceOnUse" x="246" y="245" width="14" height="15">
<path d="M246.251 245.083H259.853V259.402H246.251V245.083Z" fill="white"/>
</mask>
<g mask="url(#mask83_706_6443)">
<mask id="mask84_706_6443" style="mask-type:luminance" maskUnits="userSpaceOnUse" x="229" y="224" width="44" height="45">
<path d="M229.558 250.324L251.366 224.466L272.709 242.468L250.901 268.326L229.558 250.324Z" fill="white"/>
</mask>
<g mask="url(#mask84_706_6443)">
<mask id="mask85_706_6443" style="mask-type:luminance" maskUnits="userSpaceOnUse" x="229" y="224" width="44" height="45">
<path d="M229.558 250.324L251.366 224.466L272.709 242.468L250.901 268.326L229.558 250.324Z" fill="white"/>
</mask>
<g mask="url(#mask85_706_6443)">
<path d="M249.97 252.718L246.374 246.613L252.996 249.13L258.76 245.478L256.237 252.016L259.792 257.623L253.376 255.59C253.376 255.59 247.162 258.865 247.447 258.798C247.735 258.734 249.97 252.718 249.97 252.718Z" fill="white"/>
</g>
</g>
</g>
<mask id="mask86_706_6443" style="mask-type:luminance" maskUnits="userSpaceOnUse" x="249" y="245" width="3" height="3">
<path d="M249.831 245.083H251.978V247.947H249.831V245.083Z" fill="white"/>
</mask>
<g mask="url(#mask86_706_6443)">
<mask id="mask87_706_6443" style="mask-type:luminance" maskUnits="userSpaceOnUse" x="229" y="224" width="44" height="45">
<path d="M229.558 250.324L251.366 224.466L272.71 242.468L250.902 268.326L229.558 250.324Z" fill="white"/>
</mask>
<g mask="url(#mask87_706_6443)">
<mask id="mask88_706_6443" style="mask-type:luminance" maskUnits="userSpaceOnUse" x="229" y="224" width="44" height="45">
<path d="M229.558 250.324L251.366 224.466L272.71 242.468L250.902 268.326L229.558 250.324Z" fill="white"/>
</mask>
<g mask="url(#mask88_706_6443)">
<path d="M251.875 247.905L250.169 245.603L251.875 247.905Z" fill="white"/>
<path d="M251.827 247.936L250.124 245.634L250.217 245.567L251.92 247.869L251.827 247.936Z" fill="white"/>
</g>
</g>
</g>
<mask id="mask89_706_6443" style="mask-type:luminance" maskUnits="userSpaceOnUse" x="251" y="244" width="3" height="4">
<path d="M251.979 244.367H253.41V247.947H251.979V244.367Z" fill="white"/>
</mask>
<g mask="url(#mask89_706_6443)">
<mask id="mask90_706_6443" style="mask-type:luminance" maskUnits="userSpaceOnUse" x="229" y="224" width="44" height="45">
<path d="M229.558 250.324L251.366 224.467L272.71 242.469L250.902 268.326L229.558 250.324Z" fill="white"/>
</mask>
<g mask="url(#mask90_706_6443)">
<mask id="mask91_706_6443" style="mask-type:luminance" maskUnits="userSpaceOnUse" x="229" y="224" width="44" height="45">
<path d="M229.558 250.324L251.366 224.467L272.71 242.469L250.902 268.326L229.558 250.324Z" fill="white"/>
</mask>
<g mask="url(#mask91_706_6443)">
<path d="M252.56 247.821L253.108 245.011L252.56 247.821Z" fill="white"/>
<path d="M252.504 247.81L253.053 244.999L253.167 245.022L252.616 247.832L252.504 247.81Z" fill="white"/>
</g>
</g>
</g>
<mask id="mask92_706_6443" style="mask-type:luminance" maskUnits="userSpaceOnUse" x="253" y="245" width="3" height="4">
<path d="M253.41 245.083H255.558V248.663H253.41V245.083Z" fill="white"/>
</mask>
<g mask="url(#mask92_706_6443)">
<mask id="mask93_706_6443" style="mask-type:luminance" maskUnits="userSpaceOnUse" x="229" y="224" width="44" height="45">
<path d="M229.558 250.324L251.366 224.466L272.71 242.468L250.902 268.326L229.558 250.324Z" fill="white"/>
</mask>
<g mask="url(#mask93_706_6443)">
<mask id="mask94_706_6443" style="mask-type:luminance" maskUnits="userSpaceOnUse" x="229" y="224" width="44" height="45">
<path d="M229.558 250.324L251.366 224.466L272.71 242.468L250.902 268.326L229.558 250.324Z" fill="white"/>
</mask>
<g mask="url(#mask94_706_6443)">
<path d="M253.491 247.969L255.329 245.771L253.491 247.969Z" fill="white"/>
<path d="M253.449 247.933L255.284 245.735L255.374 245.808L253.536 248.009L253.449 247.933Z" fill="white"/>
</g>
</g>
</g>
<mask id="mask95_706_6443" style="mask-type:luminance" maskUnits="userSpaceOnUse" x="256" y="248" width="4" height="4">
<path d="M256.99 248.663H259.138V251.527H256.99V248.663Z" fill="white"/>
</mask>
<g mask="url(#mask95_706_6443)">
<mask id="mask96_706_6443" style="mask-type:luminance" maskUnits="userSpaceOnUse" x="229" y="224" width="44" height="45">
<path d="M229.558 250.324L251.366 224.467L272.709 242.469L250.901 268.326L229.558 250.324Z" fill="white"/>
</mask>
<g mask="url(#mask96_706_6443)">
<mask id="mask97_706_6443" style="mask-type:luminance" maskUnits="userSpaceOnUse" x="229" y="224" width="44" height="45">
<path d="M229.558 250.324L251.366 224.467L272.709 242.469L250.901 268.326L229.558 250.324Z" fill="white"/>
</mask>
<g mask="url(#mask97_706_6443)">
<path d="M257.437 251.216L259.079 248.87L257.437 251.216Z" fill="white"/>
<path d="M257.389 251.183L259.031 248.836L259.126 248.904L257.482 251.25L257.389 251.183Z" fill="white"/>
</g>
</g>
</g>
<mask id="mask98_706_6443" style="mask-type:luminance" maskUnits="userSpaceOnUse" x="257" y="250" width="5" height="3">
<path d="M257.706 250.811H261.285V252.243H257.706V250.811Z" fill="white"/>
</mask>
<g mask="url(#mask98_706_6443)">
<mask id="mask99_706_6443" style="mask-type:luminance" maskUnits="userSpaceOnUse" x="229" y="224" width="44" height="45">
<path d="M229.558 250.324L251.366 224.466L272.71 242.468L250.902 268.326L229.558 250.324Z" fill="white"/>
</mask>
<g mask="url(#mask99_706_6443)">
<mask id="mask100_706_6443" style="mask-type:luminance" maskUnits="userSpaceOnUse" x="229" y="224" width="44" height="45">
<path d="M229.558 250.324L251.366 224.466L272.71 242.468L250.902 268.326L229.558 250.324Z" fill="white"/>
</mask>
<g mask="url(#mask100_706_6443)">
<path d="M257.734 251.84L260.572 251.471L257.734 251.84Z" fill="white"/>
<path d="M257.739 251.896L257.725 251.781L260.567 251.415L260.581 251.527L257.739 251.896Z" fill="white"/>
</g>
</g>
</g>
<mask id="mask101_706_6443" style="mask-type:luminance" maskUnits="userSpaceOnUse" x="257" y="252" width="4" height="3">
<path d="M257.706 252.243H260.57V254.39H257.706V252.243Z" fill="white"/>
</mask>
<g mask="url(#mask101_706_6443)">
<mask id="mask102_706_6443" style="mask-type:luminance" maskUnits="userSpaceOnUse" x="229" y="224" width="44" height="45">
<path d="M229.558 250.324L251.366 224.466L272.71 242.468L250.902 268.326L229.558 250.324Z" fill="white"/>
</mask>
<g mask="url(#mask102_706_6443)">
<mask id="mask103_706_6443" style="mask-type:luminance" maskUnits="userSpaceOnUse" x="229" y="224" width="44" height="45">
<path d="M229.558 250.324L251.366 224.466L272.71 242.468L250.902 268.326L229.558 250.324Z" fill="white"/>
</mask>
<g mask="url(#mask103_706_6443)">
<path d="M257.885 252.771L260.553 253.817L257.885 252.771Z" fill="white"/>
</g>
</g>
</g>
<path d="M257.865 252.824L257.907 252.718L260.575 253.764L260.533 253.87L257.865 252.824Z" fill="white"/>
<path d="M248.72 253.627L246.777 255.733L248.72 253.627Z" fill="white"/>
<path d="M246.821 255.772L246.737 255.694L248.678 253.591L248.762 253.669L246.821 255.772Z" fill="white"/>
<path d="M248.508 252.97L245.644 252.956L248.508 252.97Z" fill="white"/>
<path d="M245.644 253.012L245.647 252.897L248.511 252.911L248.508 253.026L245.644 253.012Z" fill="white"/>
<path d="M248.483 252.027L245.98 250.635L248.483 252.027Z" fill="white"/>
<path d="M245.952 250.685L246.008 250.584L248.511 251.977L248.455 252.078L245.952 250.685Z" fill="white"/>
<path d="M254.313 256.611L256.475 258.488L254.313 256.611Z" fill="white"/>
<path d="M256.439 258.532L254.277 256.653L254.353 256.566L256.515 258.446L256.439 258.532Z" fill="white"/>
<path d="M253.662 256.84L253.735 259.704L253.662 256.84Z" fill="white"/>
<path d="M253.676 259.704L253.603 256.84L253.718 256.838L253.791 259.701L253.676 259.704Z" fill="white"/>
<path d="M252.719 256.896L251.405 259.438L252.719 256.896Z" fill="white"/>
<path d="M251.352 259.413L252.669 256.868L252.77 256.922L251.455 259.466L251.352 259.413Z" fill="white"/>
<path d="M52.124 93.455L56.3385 96.9256L50.8767 96.8501L47.6634 101.014L47.7669 95.6112L43.7146 92.4873L48.8967 92.272C48.8967 92.272 52.5351 88.2616 52.3449 88.3819C52.1548 88.5077 52.124 93.455 52.124 93.455Z" fill="white"/>
<path d="M52.012 97.443L53.8549 98.6595L52.012 97.443Z" fill="white"/>
<path d="M52.0679 97.3647L53.9081 98.5812L53.8018 98.7406L51.9617 97.5241L52.0679 97.3647Z" fill="white"/>
<path d="M51.5393 97.6835L51.8805 99.8649L51.5393 97.6835Z" fill="white"/>
<path d="M51.6316 97.6695L51.9756 99.8481L51.7854 99.8789L51.4414 97.6975L51.6316 97.6695Z" fill="white"/>
<path d="M50.8235 97.8234L50.074 99.8985L50.8235 97.8234Z" fill="white"/>
<path d="M50.913 97.8541L50.1635 99.932L49.9817 99.8649L50.7312 97.7898L50.913 97.8541Z" fill="white"/>
<path d="M47.1096 96.5117L46.5391 98.6428L47.1096 96.5117Z" fill="white"/>
<path d="M47.2019 96.5341L46.6314 98.6679L46.4468 98.6176L47.0173 96.4837L47.2019 96.5341Z" fill="white"/>
<path d="M46.7292 96.137L44.7688 97.1522L46.7292 96.137Z" fill="white"/>
<path d="M46.6872 96.0531L46.7739 96.2237L44.8135 97.2389L44.7268 97.0683L46.6872 96.0531Z" fill="white"/>
<path d="M46.374 95.5022L44.1675 95.449L46.374 95.5022Z" fill="white"/>
<path d="M46.3742 95.4042L46.3686 95.5972L44.1621 95.5441L44.1677 95.3511L46.3742 95.4042Z" fill="white"/>
<path d="M52.7893 92.465L53.6395 90.4262L52.7893 92.465Z" fill="white"/>
<path d="M53.5529 90.3899L53.7291 90.4654L52.8789 92.5014L52.7 92.4286L53.5529 90.3899Z" fill="white"/>
<path d="M53.114 92.8845L55.1919 92.1406L53.114 92.8845Z" fill="white"/>
<path d="M55.1609 92.0511L55.2252 92.2329L53.1473 92.9768L53.083 92.7978L55.1609 92.0511Z" fill="white"/>
<path d="M53.3826 93.5613L55.5611 93.9109L53.3826 93.5613Z" fill="white"/>
<path d="M55.5777 93.8186L55.547 94.0059L53.3684 93.6592L53.3964 93.469L55.5777 93.8186Z" fill="white"/>
<path d="M47.9486 91.7798L45.8875 90.9911L47.9486 91.7798Z" fill="white"/>
<path d="M45.921 90.9017L47.9821 91.6903L47.9122 91.8693L45.8511 91.0807L45.921 90.9017Z" fill="white"/>
<path d="M48.3597 91.4414L47.5515 89.3859L48.3597 91.4414Z" fill="white"/>
<path d="M47.6438 89.3523L48.452 91.4078L48.2731 91.4777L47.4648 89.4222L47.6438 89.3523Z" fill="white"/>
<path d="M49.0281 91.1534L49.3105 88.9636L49.0281 91.1534Z" fill="white"/>
<path d="M49.4055 88.9748L49.123 91.1645L48.9329 91.1394L49.2153 88.9496L49.4055 88.9748Z" fill="white"/>
<path d="M43.3201 128.301L50.9213 134.56L41.0744 134.423L35.2826 141.935L35.4672 132.194L28.1597 126.562L37.506 126.167C37.506 126.167 44.064 118.935 43.7228 119.159C43.3788 119.383 43.3201 128.301 43.3201 128.301Z" fill="white"/>
<path d="M43.1216 135.491L46.444 137.687L43.1216 135.491Z" fill="white"/>
<path d="M43.1776 135.413L46.4971 137.608L46.3909 137.768L43.0713 135.572L43.1776 135.413Z" fill="white"/>
<path d="M42.2659 135.928L42.8839 139.86L42.2659 135.928Z" fill="white"/>
<path d="M42.3608 135.914L42.9789 139.843L42.7887 139.874L42.1707 135.942L42.3608 135.914Z" fill="white"/>
<path d="M40.9765 136.177L39.6257 139.918L40.9765 136.177Z" fill="white"/>
<path d="M41.0689 136.21L39.7154 139.952L39.5364 139.888L40.8871 136.143L41.0689 136.21Z" fill="white"/>
<path d="M34.2844 133.813L33.2524 137.656L34.2844 133.813Z" fill="white"/>
<path d="M34.3739 133.836L33.3447 137.678L33.1602 137.631L34.1893 133.785L34.3739 133.836Z" fill="white"/>
<path d="M33.5991 133.139L30.0642 134.971L33.5991 133.139Z" fill="white"/>
<path d="M33.5543 133.053L33.6438 133.223L30.1089 135.055L30.0222 134.884L33.5543 133.053Z" fill="white"/>
<path d="M32.9559 131.993L28.9763 131.898L32.9559 131.993Z" fill="white"/>
<path d="M32.9588 131.898L32.9532 132.091L28.9736 131.993L28.9792 131.8L32.9588 131.898Z" fill="white"/>
<path d="M44.52 126.517L46.0554 122.845L44.52 126.517Z" fill="white"/>
<path d="M45.9684 122.806L46.1446 122.879L44.6093 126.551L44.4331 126.478L45.9684 122.806Z" fill="white"/>
<path d="M45.1072 127.275L48.8546 125.932L45.1072 127.275Z" fill="white"/>
<path d="M48.8238 125.843L48.8909 126.025L45.1434 127.367L45.0791 127.185L48.8238 125.843Z" fill="white"/>
<path d="M45.5908 128.497L49.5201 129.123L45.5908 128.497Z" fill="white"/>
<path d="M49.5372 129.028L49.5064 129.218L45.5771 128.592L45.6079 128.402L49.5372 129.028Z" fill="white"/>
<path d="M35.7973 125.284L32.0806 123.86L35.7973 125.284Z" fill="white"/>
<path d="M32.1113 123.771L35.828 125.194L35.7609 125.373L32.0442 123.949L32.1113 123.771Z" fill="white"/>
<path d="M36.5383 124.671L35.0813 120.968L36.5383 124.671Z" fill="white"/>
<path d="M35.1736 120.932L36.6306 124.635L36.4517 124.705L34.9946 121.002L35.1736 120.932Z" fill="white"/>
<path d="M37.7439 124.151L38.2501 120.202L37.7439 124.151Z" fill="white"/>
<path d="M38.3478 120.216L37.8416 124.162L37.6487 124.137L38.1577 120.191L38.3478 120.216Z" fill="white"/>
<path d="M32.5838 101.16L41.7427 108.702L29.8766 108.537L22.8963 117.59L23.1228 105.85L14.3135 99.0622L25.5754 98.5896C25.5754 98.5896 33.4787 89.8753 33.0676 90.1438C32.6537 90.4094 32.5838 101.16 32.5838 101.16Z" fill="white"/>
<path d="M32.3462 109.824L36.3453 112.469L32.3462 109.824Z" fill="white"/>
<path d="M32.3992 109.745L36.4012 112.391L36.2949 112.553L32.293 109.908L32.3992 109.745Z" fill="white"/>
<path d="M31.3142 110.35L32.0609 115.087L31.3142 110.35Z" fill="white"/>
<path d="M31.4067 110.333L32.1534 115.073L31.9632 115.101L31.2166 110.364L31.4067 110.333Z" fill="white"/>
<path d="M29.7592 110.649L28.1316 115.16L29.7592 110.649Z" fill="white"/>
<path d="M29.8487 110.679L28.2211 115.193L28.0393 115.126L29.6697 110.615L29.8487 110.679Z" fill="white"/>
<path d="M21.694 107.802L20.4495 112.433L21.694 107.802Z" fill="white"/>
<path d="M21.7864 107.824L20.5447 112.458L20.3601 112.408L21.599 107.774L21.7864 107.824Z" fill="white"/>
<path d="M20.8691 106.988L16.6099 109.194L20.8691 106.988Z" fill="white"/>
<path d="M20.8242 106.904L20.9137 107.075L16.6544 109.281L16.5649 109.111L20.8242 106.904Z" fill="white"/>
<path d="M20.0943 105.609L15.2981 105.492L20.0943 105.609Z" fill="white"/>
<path d="M20.0942 105.514L20.0886 105.704L15.2952 105.587L15.298 105.397L20.0942 105.514Z" fill="white"/>
<path d="M34.0298 99.0063L35.8783 94.5792L34.0298 99.0063Z" fill="white"/>
<path d="M35.7889 94.5428L35.9678 94.6184L34.1165 99.0454L33.9375 98.9699L35.7889 94.5428Z" fill="white"/>
<path d="M34.7373 99.9208L39.2538 98.3044L34.7373 99.9208Z" fill="white"/>
<path d="M39.2233 98.2148L39.2876 98.3966L34.7711 100.013L34.7068 99.8341L39.2233 98.2148Z" fill="white"/>
<path d="M35.3218 101.392L40.0564 102.15L35.3218 101.392Z" fill="white"/>
<path d="M40.0732 102.055L40.0424 102.245L35.3049 101.487L35.3357 101.297L40.0732 102.055Z" fill="white"/>
<path d="M23.5173 97.5185L19.0371 95.8041L23.5173 97.5185Z" fill="white"/>
<path d="M19.0681 95.7146L23.5483 97.429L23.4812 97.6107L19.001 95.8936L19.0681 95.7146Z" fill="white"/>
<path d="M24.4095 96.783L22.656 92.3195L24.4095 96.783Z" fill="white"/>
<path d="M22.7456 92.2859L24.5019 96.7494L24.3229 96.8193L22.5667 92.3559L22.7456 92.2859Z" fill="white"/>
<path d="M25.8608 96.1565L26.4733 91.3994L25.8608 96.1565Z" fill="white"/>
<path d="M26.5712 91.4106L25.9587 96.1705L25.7686 96.1453L26.3782 91.3882L26.5712 91.4106Z" fill="white"/>
</svg>
