<svg width="350" height="331" viewBox="0 0 350 331" fill="none" xmlns="http://www.w3.org/2000/svg">
<path fill-rule="evenodd" clip-rule="evenodd" d="M206.063 2.58545C193.529 5.12972 185.691 7.68351 177.859 14.961C152.784 37.1647 150.692 57.9123 131.373 88.4912C106.819 128.169 95.331 132.902 63.4675 160.572C59.2862 163.846 56.1511 167.129 52.5008 170.403C22.7295 196.249 -3.91295 246.119 29.5149 278.154C36.3099 284.34 43.6168 289.441 53.5469 294.53C62.946 299.263 71.83 304.723 85.4104 301.087C94.8159 298.54 103.69 292.347 112.053 287.982C120.937 283.252 129.815 278.154 140.781 275.968C151.223 273.782 166.378 272.694 177.344 274.88C199.809 279.252 231.669 307.641 271.37 288.712C326.22 262.504 301.666 220.273 320.471 176.951C327.266 160.933 342.411 136.544 333.005 113.969C327.256 99.4107 317.857 95.0391 312.108 89.941C308.973 87.0256 315.243 88.1232 305.317 83.0251C301.135 80.8393 289.122 69.1934 284.944 62.636C282.331 58.6325 280.763 54.264 278.671 48.8043C271.354 27.6887 258.82 18.5871 239.494 8.03565C228.527 2.20793 220.165 0.0221359 206.063 2.57593V2.58545Z" fill="#D89A75"/>
<mask id="mask0_706_7158" style="mask-type:luminance" maskUnits="userSpaceOnUse" x="32" y="0" width="275" height="331">
<path d="M32.5486 0H306.175V331H32.5486V0Z" fill="white"/>
</mask>
<g mask="url(#mask0_706_7158)">
<path d="M84.3932 330.898C82.0752 330.898 79.8622 329.953 78.2596 328.284C76.6603 326.613 75.8145 324.363 75.9162 322.054L77.8876 278.287C64.5234 261.508 57.2007 240.313 57.2007 218.214C57.2007 212.012 60.0306 204.69 65.8144 195.985C62.3295 193.701 59.2738 191.182 56.5902 188.384C48.5774 180.041 44.412 169.369 45.1561 159.103C45.703 151.575 48.7809 144.986 51.4932 139.174C52.0528 137.978 52.6124 136.782 53.1434 135.583C56.1069 128.914 56.9431 123.997 55.6999 120.545C54.5615 117.395 51.4932 114.6 47.9383 111.364C44.234 107.992 40.0368 104.169 37.1751 98.9539C32.3165 90.0934 32.0844 79.1232 36.4756 65.4247C43.9128 42.2058 58.3008 23.1015 76.9878 11.6333C89.1055 4.19712 103.503 0.101532 117.525 0.101532C127.303 0.101532 136.565 2.01132 145.058 5.78015C151.119 8.46718 156.505 11.9473 161.71 15.3132C165.856 17.9939 169.771 20.5255 173.847 22.5622C182.041 26.6546 191.287 28.8182 200.578 28.8182C203.812 28.8182 207.046 28.5549 210.194 28.0315C213.084 27.5524 216 26.8545 219.09 26.1121C224.372 24.8463 229.831 23.5393 235.717 23.2126C236.652 23.1586 237.587 23.1332 238.518 23.1332C256.843 23.1332 275.275 33.0788 287.829 49.7371C297.488 62.56 300.805 76.6328 296.929 88.3485C294.589 95.4167 289.873 101.013 286.083 105.508L270.722 123.727C265.844 129.511 264.331 133.632 264.929 135.218C269.526 136.395 273.959 138.171 278.137 140.519C282.264 142.238 285.488 144.535 287.746 147.362C299.457 157.761 306.156 172.611 306.156 188.26C306.156 198.577 303.209 208.688 297.762 217.361C303.04 224.997 305.889 234.038 305.889 243.432C305.889 268.84 285.174 289.511 259.711 289.511C249.959 289.511 240.623 286.488 232.823 280.895C228.795 283.363 223.908 286.298 218.483 289.438L223.339 321.156C223.711 323.596 222.998 326.076 221.386 327.948C219.774 329.823 217.424 330.898 214.951 330.898H84.3932Z" fill="white"/>
</g>
<path d="M236.372 186.332C232.044 191.706 229.879 199.275 223.71 202.387C217.971 205.284 210.995 203.082 205.306 200.087C191.586 192.857 180.295 181.24 165.789 175.742C161.487 174.112 156.699 173.058 152.308 174.432C144.874 176.754 141.233 184.853 135.926 190.545C129.678 197.245 120.536 200.823 111.388 201.486C102.241 202.149 93.0672 200.097 84.4852 196.874C76.5774 193.904 68.9144 189.837 63.0702 183.749C57.2259 177.661 53.3626 169.34 53.9731 160.933C54.5073 153.599 58.2657 146.956 61.2546 140.233C64.2435 133.511 66.5328 125.818 64.0368 118.896C60.6504 109.509 49.7759 104.861 44.9746 96.1051C40.539 88.0186 42.1002 78.0033 44.911 69.2189C51.2895 49.3057 63.9446 31.0135 81.7889 20.0624C99.6332 9.11121 122.826 6.24017 141.967 14.7327C152.015 19.19 160.575 26.4421 170.406 31.3498C183.135 37.7073 197.898 39.9312 211.939 37.6026C220.187 36.2353 228.197 33.3484 236.544 32.8821C254.051 31.9082 270.865 42.0599 281.402 56.0439C288.054 64.8727 292.7 76.4266 289.227 86.9146C287.425 92.3585 283.644 96.8887 279.946 101.276C274.827 107.348 269.707 113.423 264.585 119.495C259.326 125.732 253.835 134.526 258.318 141.341C261.135 145.62 266.696 146.908 271.628 148.307C276.563 149.709 282.048 152.295 283.148 157.295C284 161.159 281.793 165.099 278.929 167.83C275.39 171.209 270.906 173.42 267.66 177.132C264.925 180.257 264.531 184.565 260.111 183.946C255.803 183.343 253.593 179.127 248.381 179.508C243.679 179.85 239.268 182.734 236.372 186.332Z" fill="#7082FF"/>
<path d="M300.554 187.68C300.554 189.193 300.48 190.706 300.331 192.216C300.182 193.723 299.959 195.221 299.663 196.709C299.368 198.196 298.999 199.665 298.557 201.115C298.118 202.565 297.606 203.989 297.024 205.391C296.442 206.791 295.794 208.161 295.078 209.497C294.363 210.835 293.581 212.133 292.738 213.392C291.892 214.655 290.989 215.87 290.026 217.041C289.062 218.214 288.045 219.334 286.97 220.407C285.895 221.479 284.77 222.497 283.596 223.458C282.423 224.42 281.202 225.321 279.94 226.164C278.677 227.005 277.377 227.786 276.035 228.499C274.696 229.213 273.323 229.86 271.921 230.441C270.518 231.021 269.088 231.532 267.634 231.97C266.181 232.411 264.709 232.779 263.221 233.074C261.73 233.369 260.229 233.591 258.715 233.74C257.205 233.889 255.688 233.965 254.172 233.965C252.652 233.965 251.135 233.889 249.625 233.74C248.111 233.591 246.61 233.369 245.122 233.074C243.631 232.779 242.159 232.411 240.706 231.97C239.253 231.532 237.822 231.021 236.42 230.441C235.017 229.86 233.644 229.213 232.305 228.499C230.966 227.786 229.663 227.005 228.4 226.164C227.138 225.321 225.92 224.42 224.744 223.458C223.571 222.497 222.445 221.479 221.37 220.407C220.299 219.334 219.278 218.214 218.315 217.041C217.351 215.87 216.448 214.655 215.602 213.392C214.76 212.133 213.981 210.835 213.262 209.497C212.547 208.161 211.898 206.791 211.316 205.391C210.734 203.989 210.225 202.565 209.783 201.115C209.341 199.665 208.973 198.196 208.677 196.709C208.381 195.221 208.159 193.723 208.009 192.216C207.86 190.706 207.787 189.193 207.787 187.68C207.787 186.163 207.86 184.65 208.009 183.143C208.159 181.633 208.381 180.136 208.677 178.648C208.973 177.163 209.341 175.695 209.783 174.242C210.225 172.792 210.734 171.367 211.316 169.965C211.898 168.566 212.547 167.196 213.262 165.86C213.981 164.524 214.76 163.224 215.602 161.964C216.448 160.705 217.351 159.487 218.315 158.316C219.278 157.142 220.299 156.022 221.37 154.95C222.445 153.878 223.571 152.863 224.744 151.898C225.92 150.937 227.138 150.036 228.4 149.195C229.663 148.352 230.966 147.574 232.305 146.857C233.644 146.144 235.017 145.496 236.42 144.916C237.822 144.335 239.253 143.828 240.706 143.387C242.159 142.946 243.631 142.578 245.122 142.283C246.61 141.988 248.111 141.766 249.625 141.616C251.135 141.467 252.652 141.394 254.172 141.394C255.688 141.394 257.205 141.467 258.715 141.616C260.229 141.766 261.73 141.988 263.221 142.283C264.709 142.578 266.181 142.946 267.634 143.387C269.088 143.828 270.518 144.335 271.921 144.916C273.323 145.496 274.696 146.144 276.035 146.857C277.377 147.574 278.677 148.352 279.94 149.195C281.202 150.036 282.423 150.937 283.596 151.898C284.77 152.863 285.895 153.878 286.97 154.95C288.045 156.022 289.062 157.142 290.026 158.316C290.989 159.487 291.892 160.705 292.738 161.964C293.581 163.224 294.363 164.524 295.078 165.86C295.794 167.196 296.442 168.566 297.024 169.965C297.606 171.367 298.118 172.792 298.557 174.242C298.999 175.695 299.368 177.163 299.663 178.648C299.959 180.136 300.182 181.633 300.331 183.143C300.48 184.65 300.554 186.163 300.554 187.68Z" fill="#FFB46A"/>
<path d="M267.018 207.688V181.96H250.442V208.278C234.286 212.526 222.372 227.199 222.372 244.653C222.372 265.426 239.25 282.269 260.067 282.269C280.887 282.269 297.765 265.426 297.765 244.653C297.762 226.247 284.515 210.943 267.018 207.688Z" fill="#FFEAE2"/>
<path d="M291.409 245.779C291.409 263.022 277.415 277.002 260.137 277.002C242.858 277.002 228.849 263.022 228.849 245.779C228.849 241.284 229.809 237.005 231.535 233.15C233.749 234.292 236.028 235.295 238.413 236.05C243.237 237.585 248.563 237.991 253.288 236.237C256.194 235.155 258.725 233.321 261.472 231.894C268.022 228.493 275.812 227.538 282.989 229.229C284.432 229.575 285.879 230.013 287.342 230.39C289.933 234.92 291.409 240.186 291.409 245.779Z" fill="#C179FF"/>
<path d="M247.402 179.86H269.959V184.961H247.402V179.86Z" fill="#FFEAE2"/>
<path d="M209.748 230.095L244.871 200.427L250.426 202.219L268.397 189.666C268.397 189.666 271.501 192.274 268.397 197.654C268.397 197.654 272.973 199.12 269.704 206.293C269.704 206.293 271.501 211.511 268.235 215.423C268.235 215.423 270.521 221.292 267.742 226.184C264.966 231.072 226.41 268.405 226.41 268.405L209.748 230.095Z" fill="#FF91B5"/>
<path d="M244.273 206.556C244.121 206.556 243.968 206.483 243.876 206.346C243.726 206.128 243.784 205.829 244.003 205.68L268.127 189.273C268.232 189.196 268.362 189.174 268.49 189.196C268.617 189.222 268.728 189.298 268.798 189.403C268.83 189.45 271.717 193.958 268.741 198.409C268.595 198.631 268.299 198.691 268.076 198.542C267.857 198.396 267.796 198.098 267.943 197.879C270.089 194.666 268.82 191.487 268.238 190.354L244.543 206.47C244.461 206.527 244.365 206.556 244.273 206.556Z" fill="black"/>
<path d="M257.669 216.663C257.523 216.663 257.377 216.596 257.281 216.466C257.126 216.254 257.17 215.956 257.386 215.797C257.472 215.734 265.984 209.484 268.967 206.188C271.262 203.653 269.52 199.783 268.836 198.501L252.709 209.3C252.49 209.449 252.191 209.392 252.044 209.17C251.895 208.951 251.955 208.653 252.175 208.507L268.731 197.419C268.836 197.349 268.97 197.324 269.097 197.349C269.221 197.378 269.332 197.454 269.402 197.562C269.549 197.794 272.938 203.237 269.682 206.835C266.633 210.201 258.308 216.314 257.955 216.571C257.87 216.635 257.768 216.663 257.669 216.663Z" fill="black"/>
<path d="M259.303 224.271C259.154 224.271 259.008 224.201 258.912 224.071C258.76 223.852 258.807 223.557 259.024 223.401C259.068 223.37 263.609 220.112 267.768 215.537C271.726 211.181 269.383 206.711 269.281 206.521C269.157 206.289 269.243 205.997 269.475 205.874C269.707 205.75 270 205.832 270.127 206.064C270.156 206.118 272.906 211.311 268.48 216.181C264.248 220.835 259.628 224.147 259.583 224.182C259.497 224.242 259.399 224.271 259.303 224.271Z" fill="black"/>
<path d="M240.588 266.359L238.07 267.907L235.103 269.718L233.122 270.953H233.11C232.394 271.394 231.637 271.873 230.839 272.367L228.34 273.89C227.898 274.163 227.447 274.439 226.979 274.725L209.466 285.508L209.577 286.209L215.31 323.653H84.7492L86.8669 276.634C71.4296 258.666 66.04 237.417 66.04 219.436C66.04 212.548 71.703 203.279 78.6729 194.443C81.7254 190.602 85.01 186.842 88.1992 183.416C88.4599 183.127 88.7206 182.855 88.9846 182.579C94.1515 177.036 98.9624 172.414 101.85 169.699H101.862C103.608 168.068 104.654 167.132 104.654 167.132L110.619 166.406L147.293 161.948L153.258 161.222H153.274L154.483 161.07C154.483 161.07 154.979 161.333 155.856 161.796C158.4 163.157 164.203 166.269 170.677 169.822C171.061 170.025 171.446 170.235 171.831 170.454C181.135 175.583 191.542 181.481 195.666 184.415C199.513 187.147 203.459 194.101 206.55 200.725C208.985 205.883 210.909 210.835 211.873 213.415C211.993 213.798 212.117 214.128 212.216 214.401C212.407 214.937 212.518 215.239 212.518 215.239L215.294 212.755L215.307 212.742L216.957 211.26L220.97 220.616L225.176 230.409L229.37 240.202L237.027 258.047L240.588 266.359Z" fill="#FFEAE2"/>
<path d="M128.705 63.499C129.866 60.4186 128.142 56.5609 125.071 55.3649C123.916 54.9176 122.641 54.8098 121.503 54.318C118.152 52.8714 117.051 48.7822 114.962 45.7969C111.894 41.4158 106.489 39.3284 101.264 38.1483C96.2214 37.0094 90.1991 36.7651 86.6633 40.5276C86.2563 40.959 85.8779 41.4476 85.3437 41.7014C84.676 42.0154 83.897 41.9107 83.1625 41.8568C76.6124 41.3492 70.0877 45.5781 67.4803 51.5961C64.873 57.6142 66.1035 64.99 70.1767 70.1357C64.8158 70.196 59.5852 73.6095 57.5884 78.5743C55.5947 83.5391 57.1114 89.7539 61.3118 93.0754C64.3865 95.5055 68.4597 96.2954 72.3802 96.4255C72.8508 96.4413 73.3596 96.4636 73.7284 96.7522C74.0654 97.0124 74.2117 97.4407 74.358 97.8404C77.013 105.102 84.0846 110.321 91.7222 111.605C99.3597 112.89 107.36 110.53 113.665 106.041C119.97 101.555 124.676 95.0804 127.916 88.063C130.699 82.0418 132.486 75.2972 131.274 68.7779L128.705 63.499Z" fill="#D06058"/>
<path d="M148.107 63.1532C151.754 61.9223 155.732 61.6748 159.503 62.4425C162.11 62.9755 164.718 64.0573 166.438 66.0876C167.983 67.9054 168.667 70.3323 168.766 72.718C168.81 73.8125 168.769 74.9958 169.401 75.8904C170.142 76.9405 171.545 77.226 172.778 77.6003C175.799 78.5108 178.553 80.4714 180.101 83.2155C181.646 85.9596 181.859 89.4937 180.349 92.26C178.972 94.7885 176.18 97.0694 176.842 99.8738C177.068 100.826 177.681 101.638 178.044 102.548C179.128 105.305 177.694 108.455 175.694 110.641C172.794 113.81 168.632 115.793 164.339 116.053C164.552 113.141 162.696 111.434 161.01 109.048C157.719 104.388 152.641 101.133 149.716 96.2351C148.183 93.6749 147.315 90.769 146.721 87.8472C145.226 80.5158 145.385 72.8544 147.182 65.5896L148.107 63.1532Z" fill="#D06058"/>
<path d="M105.814 126.189L107.411 164.721L155.891 190.25L153.573 165.641L152.184 145.588L126.187 134.713L105.814 126.189Z" fill="#FF91B5"/>
<path d="M126.397 148.961C128.279 151.448 130.753 153.427 133.312 155.223C136.298 157.314 139.49 159.166 142.896 160.502C145.608 161.568 149.824 162.951 153.36 162.583L152.184 145.588L126.187 134.713C125.449 135.269 124.816 135.941 124.349 136.747C123.738 137.816 123.458 139.056 123.404 140.29C123.265 143.409 124.517 146.47 126.397 148.961Z" fill="black"/>
<path d="M105.121 106.755C104.718 89.5826 121.007 75.1132 137.516 73.9743C154.037 72.8354 168.464 85.5568 170.41 102.647L170.346 105.93L170.864 130.662C170.985 136.468 168.664 142.019 164.518 145.842C161.424 148.691 157.516 150.391 153.392 150.674L121.875 152.85L105.811 126.189L105.121 106.755Z" fill="#FF91B5"/>
<path d="M135.897 110.946C137.538 110.546 138.05 108.96 136.667 108.22C136.657 108.214 136.648 108.211 136.638 108.205C135.036 107.367 132.733 107.557 130.994 108.243C130.148 108.576 129.395 109.017 128.762 109.534C127.258 110.765 129.099 112.621 131.258 112.075C132.797 111.685 134.349 111.323 135.897 110.946Z" fill="#D06058"/>
<path d="M159.63 109.299C157.952 109.153 157.201 107.662 158.457 106.72C158.463 106.714 158.473 106.707 158.483 106.701C159.936 105.629 162.241 105.467 164.066 105.879C164.953 106.079 165.764 106.403 166.467 106.818C168.142 107.805 166.607 109.918 164.39 109.705C162.81 109.556 161.22 109.436 159.63 109.299Z" fill="#D06058"/>
<path d="M152.581 126.998C152.444 126.998 152.304 126.944 152.203 126.833C152.009 126.627 152.021 126.3 152.228 126.107C153.02 125.371 153.681 124.536 154.196 123.623C154.235 123.556 154.327 123.397 154.324 123.328C154.32 123.258 154.222 123.115 154.152 123.01C152.47 120.526 151.109 117.865 150.104 115.095C150.006 114.825 150.145 114.534 150.413 114.435C150.68 114.337 150.975 114.476 151.074 114.743C152.05 117.436 153.373 120.022 155.004 122.433C155.144 122.639 155.335 122.921 155.354 123.274C155.37 123.616 155.23 123.895 155.096 124.13C154.527 125.136 153.799 126.053 152.934 126.862C152.832 126.954 152.708 126.998 152.581 126.998Z" fill="black"/>
<path d="M150.311 131.915C150.107 131.915 149.91 131.906 149.716 131.887C148.403 131.757 147.227 131.16 146.489 130.256C146.311 130.037 146.343 129.714 146.562 129.533C146.785 129.352 147.109 129.387 147.29 129.609C147.853 130.3 148.775 130.757 149.818 130.862C150.721 130.954 151.729 130.792 152.826 130.386C153.093 130.291 153.392 130.424 153.487 130.691C153.586 130.957 153.452 131.252 153.185 131.351C152.168 131.728 151.204 131.915 150.311 131.915Z" fill="black"/>
<path d="M158.553 117.186C158.667 118.804 160.069 120.022 161.691 119.911C163.313 119.8 164.534 118.398 164.422 116.78C164.311 115.165 162.906 113.944 161.284 114.055C159.662 114.166 158.441 115.568 158.553 117.186Z" fill="black"/>
<path d="M131.099 119.793C131.211 121.408 132.616 122.63 134.238 122.519C135.856 122.404 137.08 121.005 136.966 119.387C136.855 117.769 135.452 116.551 133.831 116.662C132.209 116.773 130.988 118.176 131.099 119.793Z" fill="black"/>
<path d="M112.488 124.222C110.24 119.695 105.093 116.228 99.9764 116.228C94.253 116.224 89.7601 121.265 90.5201 126.973C91.4803 134.193 100.189 141.382 107.391 137.524C116.628 132.575 112.498 124.244 112.488 124.222Z" fill="#FF91B5"/>
<path d="M106.527 133.996C106.559 133.993 106.591 133.99 106.622 133.977C106.839 133.911 106.956 133.679 106.889 133.463C105.382 128.683 102.288 124.47 98.1739 121.595C96.4029 120.361 94.8671 119.695 93.3377 119.502C93.1151 119.473 92.9084 119.632 92.8798 119.857C92.8512 120.079 93.0102 120.285 93.2359 120.314C94.6254 120.491 96.0467 121.113 97.7034 122.268C101.668 125.037 104.654 129.101 106.107 133.711C106.164 133.895 106.339 134.009 106.527 133.996Z" fill="black"/>
<path d="M155.882 82.8539C156.12 86.9495 151.843 90.7342 147.522 90.2488C145.754 90.0489 144.126 89.2685 142.419 88.7768C140.715 88.2882 138.734 88.1296 137.265 89.0782C134.25 91.026 135.411 96.0035 132.549 98.1449C130.842 99.4234 128.381 99.1538 126.273 98.6398C124.164 98.1227 121.935 97.4311 119.862 98.0593C118.11 98.5922 116.74 100.112 116.46 101.828C116.088 104.119 117.503 106.279 118.431 108.424C119.363 110.571 119.617 113.461 117.621 114.813C116.861 115.33 115.824 115.568 115.357 116.336C114.695 117.408 115.557 118.705 115.821 119.924C116.171 121.545 115.366 123.245 114.12 124.412C112.873 125.577 111.29 126.056 109.652 126.649C109.083 124.964 108.361 123.289 107.194 121.903C105.004 119.305 101.245 117.969 97.7827 118.563C94.3168 119.153 91.2961 121.646 90.2119 124.806C89.8017 115.263 88.6888 106.003 90.0815 96.5429C91.4742 87.0827 95.4456 77.5718 103.159 71.3824C108.069 67.4455 114.225 65.0693 120.524 63.7909C126.826 62.5092 133.309 62.2681 139.754 62.1983C142.607 62.1666 145.487 62.1729 148.273 62.7503C152.155 68.8762 155.468 75.7255 155.882 82.8539Z" fill="#D06058"/>
<path d="M103.481 165.968L105.118 151.026C105.118 151.026 120.326 158.031 132.962 157.564C145.595 157.098 154.018 152.66 154.018 152.66L156.826 166.669L166.419 216.631L101.843 169.705L103.481 165.968Z" fill="#FFB46A"/>
<path d="M177.824 232.906C177.618 232.906 177.424 232.782 177.344 232.576C177.319 232.506 174.521 225.444 166.056 216.996C157.608 208.57 118.985 201.334 118.597 201.261C118.422 201.229 118.279 201.112 118.212 200.95C118.145 200.788 118.167 200.604 118.266 200.462L125.296 190.377L88.412 183.518C88.1322 183.467 87.9478 183.197 87.9987 182.918C88.0527 182.639 88.3198 182.449 88.6028 182.506L126.272 189.51C126.444 189.542 126.587 189.66 126.654 189.821C126.721 189.983 126.698 190.164 126.6 190.31L119.566 200.398C125.29 201.496 158.692 208.193 166.785 216.267C175.421 224.886 178.193 231.913 178.308 232.205C178.409 232.471 178.276 232.769 178.012 232.871C177.952 232.896 177.885 232.906 177.824 232.906Z" fill="black"/>
<path d="M177.742 179.41C177.602 179.67 163.017 205.43 168.117 217.307C168.174 217.418 168.174 217.555 168.146 217.666C168.104 217.802 167.996 217.913 167.856 217.98C167.79 218.008 167.72 218.021 167.65 218.021C167.446 218.021 167.252 217.91 167.17 217.707C166.95 217.199 166.756 216.663 166.607 216.102C163.293 204.224 174.441 183.251 176.53 179.463L160.998 174.746C160.791 174.692 160.654 174.499 160.642 174.28C160.626 174.058 160.762 173.867 160.956 173.785L170.674 169.819C171.058 170.026 171.446 170.232 171.828 170.454L162.689 174.185L177.453 178.667C177.602 178.708 177.726 178.819 177.78 178.972C177.837 179.121 177.821 179.273 177.742 179.41Z" fill="black"/>
<path d="M198.877 221.355C198.645 221.355 198.432 221.193 198.375 220.955C197.742 218.243 196.143 215.854 194.597 213.548L188.073 203.805C187.914 203.571 187.977 203.253 188.213 203.095C188.451 202.933 188.769 202.999 188.928 203.237L195.456 212.977C196.979 215.251 198.702 217.827 199.383 220.724C199.446 221 199.275 221.276 198.995 221.339C198.957 221.349 198.915 221.355 198.877 221.355Z" fill="black"/>
<path d="M136.867 315.097C134.877 315.097 133.058 314.903 131.43 314.491C104.838 307.74 90.9909 280.873 90.8542 280.603C90.7238 280.349 90.8256 280.042 91.0799 279.911C91.3375 279.785 91.6459 279.886 91.7731 280.14C91.9098 280.406 105.554 306.861 131.684 313.495C156.947 319.884 233.978 270.499 239.946 266.635L216.702 211.984L149.583 248.137C149.347 248.26 149.061 248.19 148.915 247.975L126.921 215.99C126.759 215.756 126.819 215.435 127.055 215.274C127.29 215.115 127.608 215.172 127.77 215.407L149.503 247.01L216.712 210.81C216.839 210.743 216.992 210.731 217.128 210.778C217.265 210.826 217.377 210.927 217.431 211.064L241.065 266.632C241.16 266.86 241.081 267.123 240.871 267.26C237.707 269.331 167.449 315.09 136.867 315.097Z" fill="black"/>
<path d="M195.129 323.653H194.098L192.572 295.424L192.559 295.095C192.547 294.806 192.766 294.574 193.039 294.562C193.288 294.52 193.507 294.682 193.564 294.917C193.577 294.958 193.59 294.999 193.59 295.041L195.129 323.653Z" fill="black"/>
<path d="M230.642 76.5472C228.842 74.3423 227.939 71.5506 227.221 68.7906C227.217 68.7652 227.214 68.7399 227.211 68.7145C227.211 68.724 227.208 68.7335 227.208 68.7399C227.205 68.7303 227.202 68.7176 227.198 68.7081C227.198 68.743 227.195 68.7716 227.195 68.8033C226.744 71.6172 226.108 74.4787 224.524 76.839C222.915 79.2374 220.028 80.8997 217.179 81.3375C222.915 82.6826 227.621 87.0352 228.353 92.8661C228.362 92.8724 228.362 92.8629 228.368 92.8565C228.547 86.9812 232.795 82.2099 238.378 80.3287C235.504 80.1637 232.47 78.7774 230.642 76.5472Z" fill="#FFEAE2"/>
<path d="M122.254 24.675C120.454 22.4701 119.551 19.6784 118.832 16.9216C118.829 16.8962 118.826 16.8708 118.823 16.8423C118.823 16.8518 118.819 16.8613 118.819 16.8708C118.816 16.8581 118.813 16.8486 118.81 16.8359C118.81 16.8708 118.807 16.9026 118.807 16.9343C118.352 19.745 117.719 22.6066 116.136 24.97C114.527 27.3652 111.64 29.0275 108.791 29.4653C114.527 30.8104 119.23 35.163 119.964 40.9939C119.974 41.0002 119.974 40.9939 119.98 40.9843C120.158 35.109 124.406 30.3377 129.99 28.4597C127.115 28.2915 124.082 26.9083 122.254 24.675Z" fill="#FFEAE2"/>
<path d="M89.9639 148.881C88.1643 146.68 87.2612 143.888 86.5426 141.128C86.5394 141.103 86.5363 141.077 86.5331 141.052C86.5331 141.061 86.5299 141.068 86.5299 141.077C86.5267 141.068 86.5235 141.055 86.5204 141.045C86.5204 141.077 86.5204 141.109 86.5204 141.141C86.0657 143.955 85.4297 146.816 83.8463 149.176C82.2405 151.571 79.3502 153.237 76.5044 153.675C82.2405 155.017 86.9433 159.369 87.6746 165.203C87.6873 165.21 87.6873 165.2 87.6905 165.194C87.8685 159.319 92.1198 154.547 97.7001 152.666C94.8257 152.501 91.7923 151.115 89.9639 148.881Z" fill="#FFEAE2"/>
<path d="M193.85 150.283C192.047 148.082 191.144 145.287 190.429 142.53C190.425 142.505 190.422 142.479 190.419 142.451C190.416 142.46 190.416 142.47 190.413 142.479C190.41 142.467 190.406 142.457 190.403 142.444C190.403 142.479 190.403 142.511 190.403 142.543C189.948 145.354 189.313 148.218 187.732 150.579C186.123 152.974 183.233 154.636 180.387 155.074C186.123 156.419 190.826 160.771 191.557 166.606C191.57 166.609 191.57 166.602 191.576 166.593C191.751 160.718 196.003 155.946 201.583 154.068C198.712 153.9 195.678 152.517 193.85 150.283Z" fill="#FFEAE2"/>
</svg>
